<svg width="32" height="44" viewBox="0 0 32 44" fill="none" xmlns="http://www.w3.org/2000/svg">
<path d="M3.069 0.5H28.996C30.3502 0.5 31.5 1.63245 31.5 3.041V40.959C31.5 42.3615 30.3572 43.5 28.931 43.5H3.069C1.64365 43.5 0.5 42.3614 0.5 40.959V3.041C0.5 1.6395 1.64376 0.5 3.069 0.5Z" fill="white" stroke="#383838"/>
<path d="M28.7352 35.135C28.2132 36.883 27.8852 38.695 27.4942 40.117H14.3682V39.276C16.1962 37.529 18.0902 35.717 19.7882 33.84C22.0092 31.252 23.5762 28.923 23.5762 26.27C23.5762 23.876 22.3362 22.064 19.9842 22.064C17.8952 22.064 16.4582 23.552 15.4792 24.975L14.6292 24.264L16.6542 21.352C17.8292 20.187 19.4622 19.346 21.4872 19.346C24.6862 19.346 27.6262 21.546 27.6262 25.105C27.6262 27.758 26.1242 29.699 22.8582 32.805L18.9402 36.687H24.1652C26.1242 36.687 26.5822 36.946 27.7562 34.875L28.7352 35.135Z" fill="#1A1A1A"/>
<path d="M9.18366 11.706H3.30566V10.412L6.30966 7.242C6.83266 6.595 7.15866 6.077 7.35566 5.689C7.55166 5.3 7.61666 4.912 7.61666 4.524C7.61666 4.071 7.48666 3.748 7.22466 3.424C6.96366 3.165 6.63666 2.971 6.17966 2.971C5.65766 3.036 5.26466 3.165 5.00366 3.553C4.67766 3.877 4.61266 4.071 4.61266 4.588H3.30566C3.30566 3.812 3.56666 3.359 4.08966 2.841C4.61166 2.259 5.33066 2 6.24466 2C7.09366 2 7.74666 2.259 8.20366 2.712C8.66066 3.165 8.92166 3.812 8.92166 4.524C8.92166 5.042 8.79166 5.495 8.52966 6.012C8.26966 6.465 7.87766 7.112 7.28966 7.824L5.26466 10.412H9.18266V11.706H9.18366Z" fill="#1A1A1A"/>
<path d="M6.245 22.059H8.792L8.727 21.865C6.31 21.671 6.441 18.37 6.441 18.37C6.441 18.37 6.702 20.118 8.531 20.118C10.49 20.118 10.49 18.177 10.49 18.177C10.49 16.818 9.184 16.236 8.531 16.236C7.878 16.236 7.682 16.365 7.682 16.365C8.531 15.588 8.531 15.394 8.531 14.941C8.466 13.841 7.225 13 6.245 13C5.265 13 3.959 13.841 3.959 14.941C3.959 15.588 3.959 15.588 4.808 16.365C4.808 16.365 4.416 16.236 3.959 16.236C3.306 16.236 2 16.818 2 18.177C2 18.177 2.131 20.118 3.959 20.118C5.918 20.118 6.049 18.306 6.049 18.306C6.049 18.306 6.114 21.541 3.763 21.8L3.698 22.059H6.245Z" fill="#231F20"/>
</svg>
