<svg width="32" height="44" viewBox="0 0 32 44" fill="none" xmlns="http://www.w3.org/2000/svg">
<path d="M3.069 0.5H28.996C30.3502 0.5 31.5 1.63245 31.5 3.041V40.959C31.5 42.3615 30.3572 43.5 28.931 43.5H3.069C1.64365 43.5 0.5 42.3614 0.5 40.959V3.041C0.5 1.6395 1.64376 0.5 3.069 0.5Z" fill="white" stroke="#383838"/>
<path d="M6.24566 6.206C6.83366 6.206 7.22466 6.076 7.42066 5.753C7.68266 5.494 7.74766 5.106 7.74766 4.588C7.74766 4.135 7.61766 3.747 7.35566 3.423C7.09466 3.099 6.70266 2.97 6.24566 2.97C5.78866 2.97 5.33166 3.099 5.07066 3.423C4.74366 3.747 4.61366 4.136 4.61366 4.589H3.30666C3.30666 3.877 3.63266 3.23 4.15566 2.777C4.74366 2.259 5.39666 2 6.24566 2C7.09466 2 7.81266 2.194 8.27066 2.647C8.79266 3.1 8.98866 3.747 8.98866 4.589C8.98866 5.042 8.85766 5.43 8.66166 5.818C8.46666 6.206 8.13966 6.465 7.68266 6.66C8.13966 6.854 8.53166 7.113 8.72666 7.501C8.98866 7.889 9.11866 8.342 9.11866 8.924C9.11866 9.765 8.85766 10.477 8.33466 10.929C7.81266 11.447 7.09366 11.641 6.24466 11.641C5.46066 11.641 4.74266 11.382 4.15466 10.929C3.56766 10.476 3.30566 9.894 3.30566 9.117H4.61166C4.61166 9.57 4.67666 9.894 5.00366 10.217C5.33066 10.541 5.72266 10.67 6.24466 10.67C6.76666 10.67 7.15966 10.541 7.41966 10.217C7.74666 9.894 7.87766 9.505 7.87766 8.988C7.87766 8.405 7.74666 7.953 7.48566 7.629C7.22466 7.371 7.15966 7.177 6.57266 7.177H5.26566V5.883L6.24566 6.206Z" fill="#1A1A1A"/>
<path d="M23.771 27.63C26.97 28.148 28.734 30.218 28.734 32.612C28.734 37.789 21.615 40.118 19.396 40.118C17.698 40.118 16.326 39.535 15.739 39.083C15.217 38.694 15.021 38.241 15.021 37.854C15.086 37.336 15.543 36.819 16 36.56C16.326 36.3 16.718 36.236 17.11 36.56C17.959 37.206 19.461 38.436 21.42 38.436C23.379 38.436 24.881 37.012 24.881 33.907C24.881 30.93 22.53 29.766 20.702 29.766C20.049 29.766 19.265 29.895 18.743 30.025L18.482 28.989C21.42 28.084 23.576 26.789 23.576 24.654C23.576 22.649 22.205 21.742 20.572 21.742C18.809 21.742 17.568 22.842 16.523 24.201L15.674 23.489L17.307 21.419C18.286 20.448 19.854 19.478 21.943 19.478H22.009C25.405 19.478 27.429 21.29 27.429 23.749C27.429 24.59 27.037 25.367 26.384 25.949C25.796 26.402 25.012 26.919 23.902 27.566V27.631H23.771V27.63Z" fill="#1A1A1A"/>
<path d="M6.246 22.059H8.793L8.727 21.865C6.311 21.671 6.441 18.371 6.441 18.371C6.441 18.371 6.703 20.118 8.531 20.118C10.49 20.118 10.49 18.177 10.49 18.177C10.49 16.818 9.184 16.236 8.531 16.236C7.878 16.236 7.682 16.365 7.682 16.365C8.531 15.589 8.531 15.395 8.531 14.942C8.466 13.842 7.225 13.001 6.245 13.001C5.265 13.001 3.959 13.842 3.959 14.942C3.959 15.589 3.959 15.589 4.808 16.365C4.808 16.365 4.416 16.236 3.959 16.236C3.306 16.236 2 16.819 2 18.177C2 18.177 2.131 20.118 3.959 20.118C5.918 20.118 6.049 18.306 6.049 18.306C6.049 18.306 6.114 21.541 3.763 21.8L3.699 22.059H6.246Z" fill="#231F20"/>
</svg>
