<svg width="32" height="44" viewBox="0 0 32 44" fill="none" xmlns="http://www.w3.org/2000/svg">
<path d="M3.069 0.5H28.996C30.3502 0.5 31.5 1.63245 31.5 3.041V40.959C31.5 42.3615 30.3572 43.5 28.931 43.5H3.069C1.64365 43.5 0.5 42.3614 0.5 40.959V3.041C0.5 1.6395 1.64376 0.5 3.069 0.5Z" fill="white" stroke="#383838"/>
<path d="M7.8793 8.47H9.1853V9.764H7.8793V11.705H6.5733V9.764H2.6543V8.729L6.5723 2H7.8793V8.47ZM3.9603 8.47H6.5723V3.941L3.9603 8.47Z" fill="black"/>
<path d="M25.4702 34.941V36.235C25.4702 38.306 25.7962 38.888 28.0812 39.083V40.118H19.5922V39.083C22.1392 38.824 22.2042 38.307 22.2042 36.235V34.941H14.3672V33.776L23.5102 19.411H25.4692V33H28.0802V34.941H25.4702ZM22.2042 23.941C20.5712 26.4 16.3262 33 16.3262 33H22.2042V23.941Z" fill="#1A1A1A"/>
<path d="M6.246 22.058H8.793L8.727 21.864C6.311 21.67 6.441 18.37 6.441 18.37C6.441 18.37 6.703 20.117 8.531 20.117C10.49 20.117 10.49 18.176 10.49 18.176C10.49 16.817 9.184 16.235 8.531 16.235C7.878 16.235 7.682 16.364 7.682 16.364C8.531 15.588 8.531 15.394 8.531 14.941C8.466 13.841 7.225 13 6.245 13C5.265 13 3.959 13.841 3.959 14.941C3.959 15.588 3.959 15.588 4.808 16.364C4.808 16.364 4.416 16.235 3.959 16.235C3.306 16.235 2 16.818 2 18.176C2 18.176 2.13 20.117 3.959 20.117C5.918 20.117 6.049 18.305 6.049 18.305C6.049 18.305 6.114 21.54 3.763 21.799L3.699 22.058H6.246Z" fill="#231F20"/>
</svg>
