<svg width="32" height="44" viewBox="0 0 32 44" fill="none" xmlns="http://www.w3.org/2000/svg">
<path d="M3.069 0.5H28.996C30.3502 0.5 31.5 1.63245 31.5 3.041V40.959C31.5 42.3615 30.3572 43.5 28.931 43.5H3.069C1.64365 43.5 0.5 42.3614 0.5 40.959V3.041C0.5 1.6395 1.64376 0.5 3.069 0.5Z" fill="white" stroke="#383838"/>
<path d="M6.50664 2C6.89864 2 7.22564 2.065 7.61664 2.129C7.94364 2.193 8.26964 2.323 8.46564 2.388L8.20464 3.359C7.94364 3.23 7.68264 3.165 7.42164 3.1C7.15964 3.036 6.83364 2.971 6.50664 2.971C5.91964 2.971 5.46164 3.23 5.06964 3.747C4.67764 4.264 4.54764 4.912 4.54764 5.689V6.077C4.80864 5.818 5.46164 5.301 6.44164 5.301C7.42164 5.301 8.00964 5.689 8.46664 6.207C8.92364 6.725 9.18464 7.695 9.18464 8.537C9.18464 9.507 8.92364 10.284 8.40064 10.866C7.87764 11.448 7.15964 11.707 6.31064 11.707C5.46164 11.707 4.74364 11.383 4.15564 10.736C3.56864 10.024 3.30664 9.118 3.30664 8.018V5.818C3.30664 4.718 3.63364 3.812 4.22064 3.1C4.87464 2.389 5.59264 2 6.50664 2ZM6.37664 6.271C5.98464 6.271 5.13564 6.4 4.54764 7.307V8.148C4.54764 8.925 4.74364 9.572 5.06964 10.024C5.39664 10.477 5.85364 10.736 6.31064 10.736C6.83264 10.736 7.22564 10.542 7.48564 10.154C7.74764 9.765 7.87864 9.247 7.87864 8.6C7.87864 8.017 7.81364 7.241 7.55164 6.853C7.29064 6.4 6.89864 6.271 6.37664 6.271Z" fill="black"/>
<path d="M20.3102 27.694C21.0942 27.37 21.6822 27.112 22.2052 27.112C25.7312 27.112 28.0822 29.57 28.0822 33C28.0822 36.947 25.2092 40.118 21.2252 40.118C17.3722 40.118 14.3682 37.076 14.3682 32.094C14.3682 25.3 19.1352 21.677 22.6622 20.447C23.9682 19.994 25.8612 19.606 27.1022 19.412L27.2982 20.577C26.3192 20.771 25.0122 21.16 23.9022 21.677C22.2052 22.518 19.4622 24.395 18.5482 28.535L20.3102 27.694ZM20.7022 29.182C19.7872 29.182 19.0692 29.377 18.3502 29.701C18.2202 30.283 18.1542 31.319 18.1542 32.095C18.1542 36.172 19.7872 38.825 21.8122 38.825C23.9012 38.825 24.4892 36.301 24.4892 34.231C24.4902 31.447 23.0532 29.182 20.7022 29.182Z" fill="#1A1A1A"/>
<path d="M6.246 22.059H8.793L8.727 21.865C6.311 21.671 6.441 18.371 6.441 18.371C6.441 18.371 6.703 20.118 8.531 20.118C10.49 20.118 10.49 18.177 10.49 18.177C10.49 16.818 9.184 16.236 8.531 16.236C7.878 16.236 7.682 16.365 7.682 16.365C8.531 15.589 8.531 15.395 8.531 14.942C8.466 13.842 7.225 13.001 6.245 13.001C5.266 13.001 3.959 13.842 3.959 14.942C3.959 15.589 3.959 15.589 4.808 16.365C4.808 16.365 4.416 16.236 3.959 16.236C3.306 16.236 2 16.819 2 18.177C2 18.177 2.131 20.118 3.959 20.118C5.918 20.118 6.049 18.306 6.049 18.306C6.049 18.306 6.114 21.541 3.763 21.8L3.699 22.059H6.246Z" fill="#231F20"/>
</svg>
