<svg width="32" height="44" viewBox="0 0 32 44" fill="none" xmlns="http://www.w3.org/2000/svg">
<path d="M3.069 0.5H28.996C30.3502 0.5 31.5 1.63245 31.5 3.041V40.959C31.5 42.3615 30.3572 43.5 28.931 43.5H3.069C1.64365 43.5 0.5 42.3614 0.5 40.959V3.041C0.5 1.6395 1.64376 0.5 3.069 0.5Z" fill="white" stroke="#383838"/>
<path d="M8.53162 4.588C8.53162 5.882 7.94362 6.529 7.48662 6.659C8.00862 6.853 8.40062 7.112 8.72662 7.565C9.05362 7.953 9.18462 8.471 9.18462 8.988C9.18462 9.829 8.92362 10.541 8.40062 10.994C7.87862 11.447 7.15962 11.706 6.31162 11.706C5.39762 11.706 4.67862 11.447 4.15662 10.994C3.56862 10.541 3.30762 9.829 3.30762 8.988C3.30762 8.47 3.43862 8.017 3.76562 7.565C4.09262 7.177 4.48362 6.853 5.07162 6.659C4.61262 6.465 3.95962 5.883 3.95962 4.588C3.95962 2.647 5.46162 2 6.31062 2C7.09462 2 8.53162 2.647 8.53162 4.588ZM7.94362 8.924C7.94362 8.406 7.81362 8.018 7.48662 7.63C7.15962 7.306 6.76762 7.112 6.31062 7.112C5.78762 7.112 5.39662 7.306 5.06962 7.63C4.74262 7.953 4.54662 8.406 4.54662 8.924C4.54662 9.442 4.74262 9.895 5.06962 10.218C5.39662 10.541 5.85262 10.671 6.37562 10.671C6.83262 10.671 7.22462 10.542 7.55062 10.218C7.81262 9.894 7.94362 9.506 7.94362 8.924ZM7.42062 4.653C7.42062 4.006 7.22462 3.035 6.31062 3.035C5.33162 3.035 5.06962 3.876 5.06962 4.588C5.06962 5.365 5.46162 6.076 6.31062 6.076C7.22462 6.077 7.42062 5.43 7.42062 4.653Z" fill="black"/>
<path d="M21.4852 19.412C24.8812 19.412 27.2322 21.547 27.2322 24.265C27.2322 25.171 26.9052 26.013 26.2532 26.724C25.8602 27.113 25.1432 27.76 23.7712 28.6C26.0572 29.829 28.0812 31.382 28.0812 34.164C28.0812 38.047 24.0982 40.117 21.0932 40.117C17.1102 40.117 14.3672 38.047 14.3672 34.681C14.3672 33.193 15.0852 32.352 15.7382 31.769C16.2602 31.251 17.6322 30.346 18.6762 29.763C16.7172 28.663 15.1502 27.111 15.1502 24.781C15.1512 21.935 17.7632 19.412 21.4852 19.412ZM21.4202 38.952C23.3142 38.952 24.6202 37.529 24.5542 35.329C24.5542 32.999 22.7262 31.964 19.7872 30.476C18.6122 31.252 17.7632 32.741 17.7632 34.423C17.7632 37.399 19.7222 38.952 21.4202 38.952ZM21.0932 20.576C19.4602 20.576 18.4812 22.129 18.4812 23.553C18.4812 25.818 20.2452 26.853 22.7262 27.953C23.4452 27.37 24.1632 26.27 24.1632 24.394C24.0982 21.741 22.4652 20.576 21.0932 20.576Z" fill="#1A1A1A"/>
<path d="M6.246 22.059H8.793L8.727 21.865C6.311 21.671 6.441 18.371 6.441 18.371C6.441 18.371 6.702 20.118 8.531 20.118C10.49 20.118 10.49 18.177 10.49 18.177C10.49 16.818 9.184 16.236 8.531 16.236C7.878 16.236 7.682 16.366 7.682 16.366C8.531 15.589 8.531 15.395 8.531 14.942C8.466 13.842 7.225 13.001 6.245 13.001C5.265 13.001 3.959 13.842 3.959 14.942C3.959 15.589 3.959 15.589 4.808 16.366C4.808 16.366 4.416 16.236 3.959 16.236C3.306 16.236 2 16.819 2 18.177C2 18.177 2.13 20.118 3.959 20.118C5.918 20.118 6.049 18.306 6.049 18.306C6.049 18.306 6.114 21.541 3.763 21.8L3.699 22.059H6.246Z" fill="#231F20"/>
</svg>
