<svg width="32" height="44" viewBox="0 0 32 44" fill="none" xmlns="http://www.w3.org/2000/svg">
<path d="M3.069 0.5H28.996C30.3502 0.5 31.5 1.63245 31.5 3.041V40.959C31.5 42.3615 30.3572 43.5 28.931 43.5H3.069C1.64365 43.5 0.5 42.3614 0.5 40.959V3.041C0.5 1.6395 1.64376 0.5 3.069 0.5Z" fill="white" stroke="#383838"/>
<path d="M8.53083 11.706H9.83683L6.89783 2H5.59183L2.65283 11.706H3.95883L4.54683 9.765H8.00783L8.53083 11.706ZM4.93883 8.471L6.24483 3.941H6.30983L7.61583 8.471H4.93883Z" fill="black"/>
<path d="M21.5511 40.118V39.147C23.1181 38.888 23.3141 38.5 22.9221 37.206C22.5951 36.171 22.2041 34.747 21.682 33.194H16.3911C16.0651 34.359 15.6731 35.524 15.3471 36.753C14.8891 38.436 15.0201 38.824 16.9791 39.148V40.119H11.1021V39.148C12.8001 38.889 13.1921 38.565 14.1061 35.913L19.526 19.801L20.7011 19.413C22.3991 24.849 24.0971 30.413 25.7951 35.783C26.6451 38.501 27.0361 38.889 28.7341 39.084V40.119H21.5511V40.118ZM19.1351 24.524H19.0701C18.2861 26.918 17.5681 29.377 16.8491 31.706H21.2891L19.1351 24.524Z" fill="#1A1A1A"/>
<path d="M6.245 22.059H8.792L8.727 21.865C6.31 21.671 6.441 18.371 6.441 18.371C6.441 18.371 6.703 20.118 8.531 20.118C10.49 20.118 10.49 18.177 10.49 18.177C10.49 16.818 9.184 16.236 8.531 16.236C7.878 16.236 7.682 16.365 7.682 16.365C8.531 15.589 8.531 15.395 8.531 14.942C8.466 13.842 7.225 13.001 6.245 13.001C5.266 13.001 3.959 13.842 3.959 14.942C3.959 15.589 3.959 15.589 4.808 16.365C4.808 16.365 4.416 16.236 3.959 16.236C3.306 16.236 2 16.819 2 18.177C2 18.177 2.131 20.118 3.959 20.118C5.918 20.118 6.049 18.306 6.049 18.306C6.049 18.306 6.114 21.541 3.763 21.8L3.698 22.059H6.245Z" fill="#231F20"/>
</svg>
