<svg width="32" height="44" viewBox="0 0 32 44" fill="none" xmlns="http://www.w3.org/2000/svg">
<path d="M3.069 0.5H28.996C30.3502 0.5 31.5 1.63245 31.5 3.041V40.959C31.5 42.3615 30.3572 43.5 28.931 43.5H3.069C1.64365 43.5 0.5 42.3614 0.5 40.959V3.041C0.5 1.6395 1.64376 0.5 3.069 0.5Z" fill="white" stroke="#383838"/>
<path d="M7.22466 2H8.53066V8.729C8.53066 9.635 8.26966 10.347 7.81166 10.865C7.35466 11.447 6.70166 11.706 5.91766 11.706C5.06866 11.706 4.48066 11.447 3.95866 10.994C3.50166 10.541 3.30566 10.088 3.30566 9.118H4.54666C4.54666 9.765 4.74266 10.671 5.98366 10.671C6.96266 10.671 7.28966 9.7 7.28966 9.118V2H7.22466Z" fill="black"/>
<path d="M27.8859 19.347C27.1669 19.347 26.5799 19.541 26.1229 19.93C25.6649 20.318 25.4699 20.771 25.4699 21.353V34.294C25.4699 35.782 24.8819 37.658 23.7059 38.565C22.4659 39.6 22.3349 40.118 20.3099 40.118C19.0699 40.118 17.9589 39.73 16.9789 39.017C16.0649 38.306 15.6079 37.594 15.6079 36.752C15.6079 36.106 15.8039 35.588 16.1299 35.2C16.4569 34.747 16.9789 34.553 17.6319 34.553C18.0889 34.553 18.4809 34.682 18.8729 34.941C19.3949 35.265 19.6559 35.718 19.6559 36.235C19.6559 36.624 19.5259 37.077 19.1989 37.53C18.9379 37.983 18.7419 38.306 18.8069 38.501C18.8729 39.018 19.3289 39.277 20.2439 39.277C21.5499 39.277 22.1379 38.306 22.1379 36.882V21.353C22.1379 20.771 21.9419 20.383 21.5499 19.93C21.0919 19.542 20.5049 19.347 19.8519 19.347V18.765H27.8839V19.347H27.8859Z" fill="#1A1A1A"/>
<path d="M6.245 22.059H8.792L8.727 21.865C6.31 21.671 6.441 18.371 6.441 18.371C6.441 18.371 6.703 20.118 8.531 20.118C10.49 20.118 10.49 18.177 10.49 18.177C10.49 16.818 9.184 16.236 8.531 16.236C7.878 16.236 7.682 16.366 7.682 16.366C8.531 15.589 8.531 15.395 8.531 14.942C8.466 13.842 7.225 13.001 6.245 13.001C5.266 13.001 3.959 13.842 3.959 14.942C3.959 15.589 3.959 15.589 4.808 16.366C4.808 16.366 4.416 16.236 3.959 16.236C3.306 16.236 2 16.819 2 18.177C2 18.177 2.131 20.118 3.959 20.118C5.918 20.118 6.049 18.306 6.049 18.306C6.049 18.306 6.114 21.541 3.763 21.8L3.698 22.059H6.245Z" fill="#231F20"/>
</svg>
