<svg width="32" height="44" viewBox="0 0 32 44" fill="none" xmlns="http://www.w3.org/2000/svg">
<path d="M3.069 0.5H28.996C30.3502 0.5 31.5 1.63245 31.5 3.041V40.959C31.5 42.3615 30.3572 43.5 28.931 43.5H3.069C1.64365 43.5 0.5 42.3614 0.5 40.959V3.041C0.5 1.6395 1.64376 0.5 3.069 0.5Z" fill="white" stroke="#383838"/>
<path d="M28.7342 35.135C28.2122 36.882 27.8852 38.695 27.4932 40.117H14.3672V39.276C16.1962 37.529 18.0902 35.717 19.7872 33.84C22.0082 31.252 23.5752 28.923 23.5752 26.27C23.5752 23.876 22.3342 22.064 19.9832 22.064C17.8942 22.064 16.4572 23.552 15.4772 24.975L14.6282 24.264L16.6522 21.352C17.8272 20.187 19.4602 19.346 21.4852 19.346C24.6852 19.346 27.6232 21.546 27.6232 25.104C27.6232 27.757 26.1212 29.699 22.8562 32.805L18.9382 36.687H24.1632C26.1222 36.687 26.5792 36.945 27.7552 34.875L28.7342 35.135Z" fill="#ED0000"/>
<path d="M9.18366 11.706H3.30566V10.412L6.30966 7.242C6.83266 6.595 7.15866 6.077 7.35466 5.689C7.55066 5.3 7.61566 4.912 7.61566 4.524C7.61566 4.071 7.48466 3.748 7.22366 3.424C6.96366 3.165 6.63666 2.971 6.17966 2.971C5.65766 3.036 5.26466 3.165 5.00366 3.553C4.67766 3.877 4.61266 4.071 4.61266 4.589H3.30566C3.30566 3.812 3.56666 3.36 4.08966 2.841C4.61166 2.259 5.33066 2 6.24466 2C7.09366 2 7.74666 2.259 8.20366 2.712C8.66066 3.165 8.92166 3.812 8.92166 4.524C8.92166 5.042 8.79066 5.495 8.52966 6.012C8.26966 6.465 7.87766 7.112 7.28966 7.824L5.26566 10.412H9.18366V11.706Z" fill="#ED0000"/>
<path d="M6.245 13.647L4.417 16.041L2 17.853L4.417 19.665L6.245 22.059L8.074 19.665L10.49 17.853L8.074 16.041L6.245 13.647Z" fill="#ED0000"/>
</svg>
