<svg width="32" height="44" viewBox="0 0 32 44" fill="none" xmlns="http://www.w3.org/2000/svg">
<path d="M3.069 0.5H28.996C30.3502 0.5 31.5 1.63245 31.5 3.041V40.959C31.5 42.3615 30.3572 43.5 28.931 43.5H3.069C1.64365 43.5 0.5 42.3614 0.5 40.959V3.041C0.5 1.6395 1.64376 0.5 3.069 0.5Z" fill="white" stroke="#383838"/>
<path d="M7.87832 8.471H9.18432V9.765H7.87832V11.706H6.57232V9.765H2.65332V8.729L6.57132 2H7.87832V8.471ZM3.95932 8.471H6.57132V3.941L3.95932 8.471Z" fill="#ED0000"/>
<path d="M25.4702 34.941V36.235C25.4702 38.305 25.7962 38.887 28.0822 39.083V40.117H19.5922V39.083C22.1392 38.823 22.2042 38.306 22.2042 36.235V34.941H14.3682V33.776L23.5112 19.411H25.4702V33H28.0822V34.941H25.4702ZM22.2042 23.941C20.5722 26.4 16.3272 33 16.3272 33H22.2042V23.941Z" fill="#ED0000"/>
<path d="M6.245 13.647L4.417 16.041L2 17.853L4.417 19.665L6.245 22.059L8.074 19.665L10.49 17.853L8.074 16.041L6.245 13.647Z" fill="#ED0000"/>
</svg>
