<svg width="32" height="44" viewBox="0 0 32 44" fill="none" xmlns="http://www.w3.org/2000/svg">
<path d="M3.069 0.5H28.996C30.3502 0.5 31.5 1.63245 31.5 3.041V40.959C31.5 42.3615 30.3572 43.5 28.931 43.5H3.069C1.64365 43.5 0.5 42.3614 0.5 40.959V3.041C0.5 1.6395 1.64376 0.5 3.069 0.5Z" fill="white" stroke="#383838"/>
<path d="M3.30566 7.176L3.95866 2H9.18266V3.294H5.26466L4.61266 5.882C4.80766 5.752 5.33066 5.235 6.24466 5.235C7.15866 5.235 7.94266 5.623 8.39966 6.206C8.92266 6.787 9.18366 7.564 9.18366 8.535C9.18366 9.506 8.92266 10.282 8.39966 10.865C7.87666 11.448 7.09366 11.771 6.11366 11.771C5.26466 11.771 4.61166 11.577 4.08966 11.124C3.56766 10.605 3.30566 9.764 3.30566 9.117H4.54666C4.54666 9.635 4.67766 9.958 5.00466 10.282C5.33066 10.541 5.72266 10.735 6.17966 10.735C6.70166 10.735 7.15866 10.541 7.48566 10.152C7.81166 9.764 8.00866 9.182 8.00866 8.535C8.00866 7.953 7.87766 7.37 7.55166 6.982C7.22466 6.594 6.76666 6.399 6.17966 6.399C5.65766 6.399 5.26466 6.528 5.06966 6.658C4.80766 6.787 4.74266 6.917 4.54666 7.176H3.30566Z" fill="#ED0000"/>
<path d="M17.1752 27.888C18.7432 27.306 20.4412 26.853 21.3552 26.853C25.7312 26.853 28.0822 29.571 28.0822 32.353C28.0822 34.358 27.0372 36.235 24.8162 37.853C22.9222 39.211 20.5712 40.053 18.6122 40.118C17.1752 40.118 15.7382 39.536 15.0862 39.018C14.4982 38.5 14.3022 38.177 14.3682 37.789C14.3682 37.336 14.8252 36.689 15.3472 36.301C15.7392 36.042 16.0652 36.107 16.4572 36.43C17.2412 37.143 18.7432 38.307 20.7672 38.307C23.1182 38.307 24.2932 36.301 24.2932 33.908C24.2932 30.996 22.3992 28.99 19.0692 28.99C17.5672 28.99 16.1952 29.379 15.4122 29.637L16.9142 19.413H27.2972L27.4932 19.737L26.4482 22.519H18.0902L17.1752 27.888Z" fill="#ED0000"/>
<path d="M6.245 13.771L4.417 16.165L2 17.977L4.417 19.789L6.245 22.183L8.074 19.789L10.49 17.977L8.074 16.165L6.245 13.771Z" fill="#ED0000"/>
</svg>
