<svg width="32" height="44" viewBox="0 0 32 44" fill="none" xmlns="http://www.w3.org/2000/svg">
<path d="M3.069 0.5H28.996C30.3502 0.5 31.5 1.63245 31.5 3.041V40.959C31.5 42.3615 30.3572 43.5 28.931 43.5H3.069C1.64365 43.5 0.5 42.3614 0.5 40.959V3.041C0.5 1.6395 1.64376 0.5 3.069 0.5Z" fill="white" stroke="#383838"/>
<path d="M6.50566 2C6.89766 2 7.22366 2.065 7.61566 2.129C7.94266 2.193 8.26866 2.323 8.46466 2.388L8.20366 3.359C7.94266 3.23 7.68166 3.165 7.41966 3.1C7.15866 3.036 6.83266 2.971 6.50566 2.971C5.91766 2.971 5.46066 3.23 5.06866 3.747C4.67766 4.265 4.54666 4.912 4.54666 5.689V6.077C4.80766 5.818 5.46066 5.3 6.44066 5.3C7.42066 5.3 8.00866 5.689 8.46466 6.206C8.92266 6.724 9.18366 7.694 9.18366 8.535C9.18366 9.506 8.92266 10.282 8.39966 10.865C7.87666 11.448 7.15866 11.706 6.30966 11.706C5.46066 11.706 4.74266 11.382 4.15466 10.735C3.56666 10.023 3.30566 9.117 3.30566 8.017V5.817C3.30566 4.717 3.63166 3.811 4.21966 3.1C4.87266 2.389 5.59166 2 6.50566 2ZM6.37566 6.271C5.98366 6.271 5.13466 6.4 4.54666 7.307V8.148C4.54666 8.925 4.74266 9.572 5.06866 10.024C5.39566 10.477 5.85266 10.736 6.30966 10.736C6.83166 10.736 7.22366 10.542 7.48466 10.153C7.74666 9.765 7.87766 9.247 7.87766 8.6C7.87766 8.017 7.81266 7.241 7.55066 6.853C7.28966 6.4 6.89766 6.271 6.37566 6.271Z" fill="#ED0000"/>
<path d="M20.3102 27.694C21.0942 27.37 21.6822 27.112 22.2042 27.112C25.7302 27.112 28.0812 29.57 28.0812 33C28.0812 36.947 25.2082 40.118 21.2252 40.118C17.3712 40.118 14.3682 37.077 14.3682 32.094C14.3682 25.3 19.1352 21.677 22.6622 20.447C23.9682 19.994 25.8612 19.606 27.1022 19.412L27.2982 20.577C26.3192 20.771 25.0122 21.16 23.9022 21.677C22.2042 22.518 19.4612 24.395 18.5472 28.535L20.3102 27.694ZM20.7022 29.182C19.7872 29.182 19.0692 29.377 18.3502 29.701C18.2202 30.283 18.1542 31.319 18.1542 32.095C18.1542 36.172 19.7872 38.825 21.8122 38.825C23.9012 38.825 24.4892 36.301 24.4892 34.231C24.4902 31.447 23.0532 29.182 20.7022 29.182Z" fill="#ED0000"/>
<path d="M6.245 13.647L4.417 16.042L2 17.853L4.417 19.665L6.245 22.059L8.074 19.665L10.49 17.853L8.074 16.042L6.245 13.647Z" fill="#ED0000"/>
</svg>
