<svg width="32" height="44" viewBox="0 0 32 44" fill="none" xmlns="http://www.w3.org/2000/svg">
<path d="M3.069 0.5H28.996C30.3502 0.5 31.5 1.63245 31.5 3.041V40.959C31.5 42.3615 30.3572 43.5 28.931 43.5H3.069C1.64365 43.5 0.5 42.3614 0.5 40.959V3.041C0.5 1.6395 1.64376 0.5 3.069 0.5Z" fill="white" stroke="#383838"/>
<path d="M8.53066 4.588C8.53066 5.882 7.94266 6.529 7.48566 6.659C8.00866 6.853 8.39966 7.112 8.72666 7.565C9.05266 7.954 9.18366 8.471 9.18366 8.988C9.18366 9.83 8.92266 10.541 8.39966 10.994C7.87766 11.447 7.15866 11.705 6.30966 11.705C5.39566 11.705 4.67766 11.446 4.15466 10.994C3.56766 10.541 3.30566 9.829 3.30566 8.988C3.30566 8.471 3.43666 8.018 3.76266 7.565C4.08966 7.177 4.48066 6.854 5.06866 6.659C4.61266 6.465 3.95866 5.883 3.95866 4.588C3.95866 2.647 5.46066 2 6.30966 2C7.09366 2 8.53066 2.647 8.53066 4.588ZM7.94266 8.924C7.94266 8.406 7.81166 8.018 7.48566 7.63C7.15866 7.306 6.76666 7.112 6.30966 7.112C5.78766 7.112 5.39566 7.306 5.06866 7.63C4.74266 7.954 4.54666 8.406 4.54666 8.924C4.54666 9.442 4.74266 9.895 5.06866 10.218C5.39566 10.541 5.85266 10.671 6.37466 10.671C6.83166 10.671 7.22366 10.542 7.55066 10.218C7.81166 9.894 7.94266 9.506 7.94266 8.924ZM7.42066 4.653C7.42066 4.006 7.22466 3.035 6.31066 3.035C5.33166 3.035 5.06966 3.876 5.06966 4.588C5.06966 5.365 5.46166 6.076 6.31066 6.076C7.22466 6.077 7.42066 5.43 7.42066 4.653Z" fill="#ED0000"/>
<path d="M21.4862 19.412C24.8812 19.412 27.2332 21.547 27.2332 24.265C27.2332 25.171 26.9062 26.012 26.2532 26.723C25.8612 27.112 25.1432 27.759 23.7722 28.6C26.0582 29.829 28.0822 31.382 28.0822 34.164C28.0822 38.046 24.0992 40.117 21.0942 40.117C17.1112 40.117 14.3682 38.047 14.3682 34.681C14.3682 33.193 15.0862 32.352 15.7392 31.77C16.2612 31.252 17.6332 30.347 18.6772 29.764C16.7182 28.664 15.1512 27.111 15.1512 24.782C15.1512 21.935 17.7642 19.412 21.4862 19.412ZM21.4202 38.953C23.3142 38.953 24.6202 37.529 24.5552 35.329C24.5552 33 22.7262 31.965 19.7872 30.476C18.6122 31.253 17.7632 32.741 17.7632 34.424C17.7642 37.399 19.7232 38.953 21.4202 38.953ZM21.0942 20.576C19.4622 20.576 18.4822 22.129 18.4822 23.553C18.4822 25.818 20.2462 26.853 22.7272 27.953C23.4462 27.37 24.1642 26.27 24.1642 24.394C24.0992 21.741 22.4662 20.576 21.0942 20.576Z" fill="#ED0000"/>
<path d="M6.245 13.647L4.417 16.041L2 17.853L4.417 19.665L6.245 22.059L8.074 19.665L10.49 17.853L8.074 16.041L6.245 13.647Z" fill="#ED0000"/>
</svg>
