<svg width="32" height="44" viewBox="0 0 32 44" fill="none" xmlns="http://www.w3.org/2000/svg">
<path d="M3.069 0.5H28.996C30.3502 0.5 31.5 1.63245 31.5 3.041V40.959C31.5 42.3615 30.3572 43.5 28.931 43.5H3.069C1.64365 43.5 0.5 42.3614 0.5 40.959V3.041C0.5 1.6395 1.64376 0.5 3.069 0.5Z" fill="white" stroke="#383838"/>
<path d="M8.53083 11.706H9.83683L6.89783 2H5.59183L2.65283 11.706H3.95883L4.54683 9.765H8.00783L8.53083 11.706ZM4.93883 8.471L6.24483 3.941H6.30983L7.61583 8.471H4.93883Z" fill="#ED0000"/>
<path d="M21.551 40.117V39.147C23.119 38.887 23.315 38.5 22.922 37.206C22.596 36.171 22.204 34.747 21.682 33.194H16.392C16.066 34.359 15.674 35.524 15.347 36.753C14.89 38.436 15.021 38.823 16.98 39.148V40.118H11.103V39.148C12.801 38.888 13.193 38.565 14.107 35.913L19.527 19.8L20.702 19.412C22.4 24.848 24.098 30.412 25.796 35.783C26.645 38.501 27.037 38.888 28.734 39.084V40.118H21.551V40.117ZM19.134 24.524H19.069C18.285 26.918 17.567 29.377 16.848 31.706H21.289L19.134 24.524Z" fill="#ED0000"/>
<path d="M6.245 13.647L4.417 16.041L2 17.853L4.417 19.665L6.245 22.059L8.074 19.665L10.49 17.853L8.074 16.041L6.245 13.647Z" fill="#ED0000"/>
</svg>
