<svg width="32" height="44" viewBox="0 0 32 44" fill="none" xmlns="http://www.w3.org/2000/svg">
<path d="M3.069 0.5H28.996C30.3502 0.5 31.5 1.63245 31.5 3.041V40.959C31.5 42.3615 30.3572 43.5 28.931 43.5H3.069C1.64365 43.5 0.5 42.3614 0.5 40.959V3.041C0.5 1.6395 1.64376 0.5 3.069 0.5Z" fill="white" stroke="#383838"/>
<path d="M5.26466 7.177H4.61266V11.707H3.30566V2H4.61166V5.882H5.26466L7.87766 2H9.18366L6.17966 6.465L9.83666 11.706H8.33466L5.26466 7.177Z" fill="#ED0000"/>
<path d="M24.294 40.117C22.922 37.917 20.963 34.423 19.069 31.058C18.547 30.152 18.22 29.958 17.828 30.023V35.911C17.828 38.629 18.089 38.887 19.918 39.081V40.116H13.126V39.081C14.889 38.887 15.151 38.629 15.151 35.911V23.618C15.151 20.836 14.955 20.641 13.061 20.448V19.412H19.853V20.448C18.089 20.642 17.894 20.836 17.894 23.618V29.118C18.416 28.924 19.004 28.471 19.657 27.5C21.159 25.494 22.4 23.682 23.249 22.194C23.902 21.159 23.837 20.706 22.727 20.512L22.27 20.448V19.412H28.344V20.448C26.776 20.642 25.927 20.966 24.49 22.712C23.249 24.265 22.008 26.012 20.702 27.759C22.335 30.8 24.425 34.294 25.927 36.753C27.037 38.5 27.625 38.888 28.67 39.082V40.117H24.294Z" fill="#ED0000"/>
<path d="M6.245 13.647L4.417 16.041L2 17.853L4.417 19.665L6.245 22.059L8.074 19.665L10.49 17.853L8.074 16.041L6.245 13.647Z" fill="#ED0000"/>
</svg>
