<svg width="32" height="44" viewBox="0 0 32 44" fill="none" xmlns="http://www.w3.org/2000/svg">
<path d="M3.069 0.5H28.996C30.3502 0.5 31.5 1.63245 31.5 3.041V40.959C31.5 42.3615 30.3572 43.5 28.931 43.5H3.069C1.64365 43.5 0.5 42.3614 0.5 40.959V3.041C0.5 1.6395 1.64376 0.5 3.069 0.5Z" fill="white" stroke="#383838"/>
<path d="M9.1843 8.212C9.1843 8.665 9.1193 9.053 8.9883 9.441C8.8573 9.83 8.7273 10.088 8.5313 10.412L9.8373 11.706L8.7923 12.353L7.6823 11.124C7.4213 11.253 7.1603 11.448 6.8333 11.512C6.5723 11.576 6.2463 11.706 5.8543 11.706C4.8753 11.706 4.0913 11.382 3.5033 10.8C2.9153 10.153 2.6543 9.312 2.6543 8.212V5.494C2.6543 4.394 2.9153 3.553 3.5033 2.906C4.0913 2.324 4.8753 2 5.8543 2C6.8333 2 7.6833 2.324 8.2713 2.906C8.8583 3.489 9.1853 4.394 9.1853 5.494V8.212H9.1843ZM7.9423 5.365C7.9423 4.589 7.6823 4.136 7.3563 3.747C7.0293 3.359 6.5063 3.1 5.8543 3.1C5.2013 3.1 4.7443 3.294 4.4173 3.747C4.0903 4.136 3.9593 4.589 3.9593 5.365V8.212C3.9593 9.053 4.1553 9.635 4.4813 10.024C4.8073 10.413 5.3303 10.671 5.9183 10.671C6.5713 10.671 7.0283 10.477 7.4203 10.024C7.7473 9.636 7.9423 8.989 7.9423 8.148V5.365Z" fill="#ED0000"/>
<path d="M26.7749 40.765C25.4689 40.765 24.2279 40.701 23.4449 40.442C22.7259 40.182 23.2489 40.83 20.5059 38.113C19.1999 38.048 17.1099 37.142 15.8039 35.395C14.4979 33.712 13.7139 31.318 13.7139 28.73C13.7139 23.554 16.4569 18.765 21.4199 18.765C25.3379 18.765 28.7349 22.583 28.7349 28.212C28.7349 33.065 26.4489 36.429 23.7719 37.465C25.2079 38.759 25.0129 38.823 26.7749 39.924V40.765ZM22.3349 36.235C22.5309 36.428 22.7269 36.558 22.9219 36.753C24.2279 36.171 25.6649 33.711 25.6649 29.118C25.6649 23.359 23.7059 19.93 20.8979 19.93C18.4169 19.93 16.6529 23.165 16.6529 27.954C16.6529 32.548 18.2199 36.106 20.6359 36.883L22.3349 36.235Z" fill="#ED0000"/>
<path d="M6.245 13.647L4.417 16.041L2 17.853L4.417 19.665L6.245 22.059L8.074 19.665L10.49 17.853L8.074 16.041L6.245 13.647Z" fill="#ED0000"/>
</svg>
