<svg width="32" height="44" viewBox="0 0 32 44" fill="none" xmlns="http://www.w3.org/2000/svg">
<path d="M3.069 0.5H28.996C30.3502 0.5 31.5 1.63245 31.5 3.041V40.959C31.5 42.3615 30.3572 43.5 28.931 43.5H3.069C1.64365 43.5 0.5 42.3614 0.5 40.959V3.041C0.5 1.6395 1.64376 0.5 3.069 0.5Z" fill="white" stroke="#383838"/>
<path d="M28.7352 35.135C28.2132 36.882 27.8852 38.694 27.4942 40.117H14.3682V39.276C16.1962 37.529 18.0902 35.717 19.7882 33.84C22.0092 31.252 23.5762 28.923 23.5762 26.269C23.5762 23.875 22.3362 22.063 19.9842 22.063C17.8952 22.063 16.4582 23.551 15.4792 24.975L14.6292 24.263L16.6542 21.351C17.8292 20.186 19.4622 19.345 21.4872 19.345C24.6862 19.345 27.6262 21.545 27.6262 25.104C27.6262 27.757 26.1242 29.698 22.8582 32.804L18.9402 36.686H24.1652C26.1242 36.686 26.5822 36.945 27.7562 34.874L28.7352 35.135Z" fill="#ED0000"/>
<path d="M9.13191 11.706H3.25391V10.412L6.25791 7.242C6.77991 6.595 7.10691 6.077 7.30291 5.689C7.49891 5.301 7.56391 4.913 7.56391 4.524C7.56391 4.071 7.43391 3.748 7.17191 3.424C6.91191 3.165 6.58491 2.971 6.12791 2.971C5.60591 3.036 5.21291 3.165 4.95191 3.553C4.62591 3.876 4.56091 4.071 4.56091 4.588H3.25391C3.25391 3.812 3.51491 3.359 4.03791 2.841C4.55991 2.259 5.27891 2 6.19291 2C7.04191 2 7.69491 2.259 8.15191 2.711C8.60891 3.164 8.86991 3.811 8.86991 4.523C8.86991 5.041 8.73991 5.493 8.47791 6.011C8.21791 6.465 7.82591 7.112 7.23791 7.824L5.21291 10.412H9.13091V11.706H9.13191Z" fill="#ED0000"/>
<path d="M10.0459 14.424C9.45792 13.971 8.86992 13.648 8.47892 13.648C8.08692 13.648 7.04192 13.583 6.19292 15.007C5.34392 13.583 4.36392 13.713 3.97192 13.713C3.57992 13.713 2.92692 14.037 2.40492 14.489C1.88292 15.007 1.94792 15.848 2.14392 16.301C2.33992 16.754 6.19292 21.413 6.19292 21.413C6.19292 21.413 10.1109 16.689 10.3069 16.236C10.5029 15.782 10.5689 14.941 10.0459 14.424Z" fill="#ED0000"/>
</svg>
