<svg width="32" height="44" viewBox="0 0 32 44" fill="none" xmlns="http://www.w3.org/2000/svg">
<path d="M3.069 0.5H28.996C30.3502 0.5 31.5 1.63245 31.5 3.041V40.959C31.5 42.3615 30.3572 43.5 28.931 43.5H3.069C1.64365 43.5 0.5 42.3614 0.5 40.959V3.041C0.5 1.6395 1.64376 0.5 3.069 0.5Z" fill="white" stroke="#383838"/>
<path d="M6.45293 2C6.84493 2 7.17193 2.065 7.56293 2.129C7.88993 2.193 8.21593 2.323 8.41193 2.388L8.15093 3.359C7.88993 3.23 7.62893 3.165 7.36793 3.1C7.10593 3.036 6.77993 2.971 6.45293 2.971C5.86593 2.971 5.40793 3.23 5.01593 3.747C4.62393 4.264 4.49393 4.912 4.49393 5.689V6.077C4.75493 5.818 5.40793 5.3 6.38793 5.3C7.36793 5.3 7.95593 5.689 8.41293 6.206C8.86993 6.723 9.13093 7.694 9.13093 8.535C9.13093 9.506 8.86993 10.282 8.34693 10.865C7.82393 11.448 7.10593 11.706 6.25693 11.706C5.40793 11.706 4.68993 11.382 4.10193 10.735C3.51493 10.023 3.25293 9.117 3.25293 8.017V5.817C3.25293 4.717 3.57993 3.811 4.16693 3.1C4.82093 2.389 5.53893 2 6.45293 2ZM6.32293 6.271C5.93093 6.271 5.08193 6.4 4.49393 7.307V8.148C4.49393 8.925 4.68993 9.572 5.01593 10.024C5.34293 10.477 5.79993 10.736 6.25693 10.736C6.77893 10.736 7.17193 10.542 7.43193 10.153C7.69393 9.765 7.82493 9.247 7.82493 8.6C7.82493 8.017 7.75993 7.241 7.49793 6.853C7.23693 6.4 6.84493 6.271 6.32293 6.271Z" fill="#ED0000"/>
<path d="M20.3102 27.694C21.0942 27.37 21.6822 27.112 22.2052 27.112C25.7312 27.112 28.0822 29.57 28.0822 33C28.0822 36.947 25.2092 40.118 21.2252 40.118C17.3722 40.118 14.3682 37.077 14.3682 32.094C14.3682 25.3 19.1352 21.677 22.6622 20.447C23.9682 19.994 25.8612 19.606 27.1022 19.412L27.2982 20.577C26.3192 20.771 25.0122 21.16 23.9022 21.677C22.2052 22.518 19.4622 24.395 18.5482 28.535L20.3102 27.694ZM20.7022 29.182C19.7872 29.182 19.0692 29.377 18.3502 29.701C18.2202 30.283 18.1542 31.319 18.1542 32.095C18.1542 36.172 19.7872 38.825 21.8122 38.825C23.9012 38.825 24.4892 36.301 24.4892 34.231C24.4902 31.447 23.0532 29.182 20.7022 29.182Z" fill="#ED0000"/>
<path d="M10.0449 14.424C9.45792 13.971 8.86992 13.647 8.47792 13.647C8.08592 13.647 7.04092 13.583 6.19192 15.006C5.34292 13.583 4.36392 13.712 3.97192 13.712C3.57992 13.712 2.92692 14.036 2.40492 14.488C1.88292 15.006 1.94792 15.847 2.14392 16.3C2.33992 16.753 6.19292 21.412 6.19292 21.412C6.19292 21.412 10.1109 16.688 10.3069 16.235C10.5019 15.783 10.5679 14.942 10.0449 14.424Z" fill="#ED0000"/>
</svg>
