<svg width="32" height="44" viewBox="0 0 32 44" fill="none" xmlns="http://www.w3.org/2000/svg">
<path d="M3.069 0.5H28.996C30.3502 0.5 31.5 1.63245 31.5 3.041V40.959C31.5 42.3615 30.3572 43.5 28.931 43.5H3.069C1.64365 43.5 0.5 42.3614 0.5 40.959V3.041C0.5 1.6395 1.64376 0.5 3.069 0.5Z" fill="white" stroke="#383838"/>
<path d="M9.13191 3.229C7.89091 4.718 7.23791 5.689 6.78091 6.853C6.32391 7.953 6.51991 9.053 6.51991 10.412V11.706H5.21291V10.412C5.21291 8.924 5.27791 7.824 5.80091 6.659C6.32391 5.494 6.78091 4.588 7.82591 3.294H3.25391V2H9.13091V3.229H9.13191Z" fill="#ED0000"/>
<path d="M28.735 19.8C25.731 26.4 22.595 33.065 19.657 39.73L16.718 40.118L16.522 39.666C20.114 34.036 23.379 27.954 26.057 22.454H19.265C17.11 22.454 16.914 22.712 16.065 24.719H15.02C15.412 22.454 15.608 20.772 15.738 19.348H28.407L28.735 19.8Z" fill="#ED0000"/>
<path d="M10.0459 14.424C9.45792 13.971 8.86992 13.648 8.47892 13.648C8.08692 13.648 7.04192 13.583 6.19292 15.007C5.34392 13.583 4.36392 13.713 3.97192 13.713C3.57992 13.713 2.92692 14.036 2.40492 14.489C1.88292 15.007 1.94792 15.848 2.14392 16.301C2.33992 16.754 6.19292 21.413 6.19292 21.413C6.19292 21.413 10.1109 16.69 10.3069 16.237C10.5029 15.783 10.5689 14.941 10.0459 14.424Z" fill="#ED0000"/>
</svg>
