<svg width="32" height="44" viewBox="0 0 32 44" fill="none" xmlns="http://www.w3.org/2000/svg">
<path d="M3.069 0.5H28.996C30.3502 0.5 31.5 1.63245 31.5 3.041V40.959C31.5 42.3615 30.3572 43.5 28.931 43.5H3.069C1.64365 43.5 0.5 42.3614 0.5 40.959V3.041C0.5 1.6395 1.64376 0.5 3.069 0.5Z" fill="white" stroke="#383838"/>
<path d="M7.17291 2H8.47891V8.729C8.47891 9.635 8.21791 10.347 7.75991 10.865C7.30291 11.447 6.64991 11.706 5.86591 11.706C5.01691 11.706 4.42891 11.447 3.90691 10.995C3.44991 10.542 3.25391 10.089 3.25391 9.119H4.49491C4.49491 9.766 4.69091 10.672 5.93191 10.672C6.91091 10.672 7.23791 9.701 7.23791 9.119V2H7.17291Z" fill="#ED0000"/>
<path d="M27.8859 19.347C27.1669 19.347 26.5799 19.541 26.1229 19.929C25.6649 20.317 25.4699 20.77 25.4699 21.353V34.294C25.4699 35.782 24.8819 37.659 23.7059 38.565C22.4659 39.6 22.3349 40.118 20.3099 40.118C19.0699 40.118 17.9589 39.73 16.9789 39.018C16.0649 38.306 15.6079 37.594 15.6079 36.753C15.6079 36.106 15.8039 35.588 16.1299 35.2C16.4569 34.747 16.9789 34.553 17.6319 34.553C18.0889 34.553 18.4809 34.682 18.8729 34.942C19.3949 35.265 19.6559 35.718 19.6559 36.236C19.6559 36.624 19.5259 37.077 19.1989 37.53C18.9379 37.983 18.7419 38.306 18.8069 38.501C18.8729 39.019 19.3289 39.277 20.2439 39.277C21.5499 39.277 22.1379 38.306 22.1379 36.882V21.353C22.1379 20.77 21.9419 20.382 21.5499 19.929C21.0919 19.541 20.5049 19.347 19.8519 19.347V18.764H27.8839V19.347H27.8859Z" fill="#ED0000"/>
<path d="M10.0459 14.424C9.45792 13.971 8.86992 13.648 8.47892 13.648C8.08692 13.648 7.04192 13.583 6.19292 15.007C5.34392 13.583 4.36392 13.713 3.97192 13.713C3.57992 13.713 2.92692 14.036 2.40492 14.489C1.88292 15.007 1.94792 15.848 2.14392 16.301C2.33992 16.754 6.19292 21.413 6.19292 21.413C6.19292 21.413 10.1109 16.69 10.3069 16.237C10.5029 15.783 10.5689 14.941 10.0459 14.424Z" fill="#ED0000"/>
</svg>
