<svg width="32" height="44" viewBox="0 0 32 44" fill="none" xmlns="http://www.w3.org/2000/svg">
<path d="M3.069 0.5H28.996C30.3502 0.5 31.5 1.63245 31.5 3.041V40.959C31.5 42.3615 30.3572 43.5 28.931 43.5H3.069C1.64365 43.5 0.5 42.3614 0.5 40.959V3.041C0.5 1.6395 1.64376 0.5 3.069 0.5Z" fill="white" stroke="#383838"/>
<path d="M9.13107 8.212C9.13107 8.665 9.06607 9.053 8.93507 9.441C8.80407 9.83 8.67407 10.088 8.47807 10.412L9.78407 11.706L8.73907 12.353L7.62907 11.124C7.36807 11.253 7.10707 11.447 6.78007 11.512C6.51907 11.576 6.19207 11.706 5.80107 11.706C4.82207 11.706 4.03807 11.383 3.45007 10.8C2.86207 10.153 2.60107 9.312 2.60107 8.212V5.494C2.60107 4.394 2.86207 3.553 3.45007 2.906C4.03807 2.323 4.82207 2 5.80107 2C6.78007 2 7.63007 2.323 8.21807 2.906C8.80507 3.488 9.13207 4.394 9.13207 5.494V8.212H9.13107ZM7.88907 5.365C7.88907 4.588 7.62907 4.136 7.30307 3.747C6.97607 3.359 6.45307 3.1 5.80007 3.1C5.14707 3.1 4.69007 3.294 4.36307 3.747C4.03707 4.136 3.90607 4.588 3.90607 5.365V8.212C3.90607 9.053 4.10207 9.635 4.42807 10.024C4.75407 10.413 5.27707 10.671 5.86507 10.671C6.51807 10.671 6.97507 10.477 7.36707 10.024C7.69307 9.636 7.88907 8.988 7.88907 8.148V5.365Z" fill="#ED0000"/>
<path d="M26.7749 40.765C25.4689 40.765 24.2279 40.701 23.4449 40.442C22.7259 40.182 23.2489 40.83 20.5059 38.113C19.1999 38.048 17.1099 37.142 15.8039 35.395C14.4979 33.712 13.7139 31.318 13.7139 28.73C13.7139 23.554 16.4569 18.765 21.4199 18.765C25.3379 18.765 28.7349 22.583 28.7349 28.212C28.7349 33.065 26.4489 36.43 23.7719 37.465C25.2079 38.759 25.0129 38.823 26.7749 39.924V40.765ZM22.3349 36.235C22.5309 36.429 22.7269 36.558 22.9219 36.753C24.2279 36.171 25.6649 33.711 25.6649 29.118C25.6649 23.359 23.7059 19.93 20.8979 19.93C18.4169 19.93 16.6529 23.165 16.6529 27.954C16.6529 32.548 18.2199 36.106 20.6359 36.884L22.3349 36.235Z" fill="#ED0000"/>
<path d="M10.0449 14.424C9.45792 13.971 8.86992 13.648 8.47792 13.648C8.08592 13.648 7.04092 13.583 6.19192 15.007C5.34292 13.583 4.36392 13.713 3.97192 13.713C3.57992 13.713 2.92692 14.036 2.40492 14.489C1.88292 15.007 1.94792 15.848 2.14392 16.301C2.33992 16.754 6.19292 21.413 6.19292 21.413C6.19292 21.413 10.1109 16.69 10.3069 16.237C10.5019 15.783 10.5679 14.941 10.0449 14.424Z" fill="#ED0000"/>
</svg>
