<svg width="32" height="44" viewBox="0 0 32 44" fill="none" xmlns="http://www.w3.org/2000/svg">
<path d="M3.069 0.5H28.996C30.3502 0.5 31.5 1.63245 31.5 3.041V40.959C31.5 42.3615 30.3572 43.5 28.931 43.5H3.069C1.64365 43.5 0.5 42.3614 0.5 40.959V3.041C0.5 1.6395 1.64376 0.5 3.069 0.5Z" fill="white" stroke="#383838"/>
<path d="M6.40366 22.058H9.14666L9.08167 21.799C7.90567 21.735 7.51366 21.347 6.99166 20.829C6.46966 20.247 6.53366 18.694 6.53366 18.694C7.44866 19.859 8.03566 20.182 8.42766 20.182C9.14566 20.182 9.79966 19.988 10.3217 19.211C10.8437 18.434 10.5177 17.27 8.68866 16.041C6.86066 14.811 6.27366 13.064 6.27366 13.064C6.27366 13.064 5.68666 14.811 3.85766 16.041C2.02866 17.27 1.70266 18.435 2.22466 19.211C2.81266 19.923 3.53067 20.117 4.24867 20.117C4.70667 20.117 5.22766 19.794 6.14266 18.629C6.14266 18.629 6.20766 20.182 5.68566 20.764C5.16366 21.347 4.77066 21.67 3.59566 21.735L3.53066 22.059H6.40366V22.058Z" fill="#1A1A1A"/>
<path d="M7.97207 8.47H9.27807V9.764H7.97207V11.705H6.66607V9.764H2.74707V8.729L6.66507 2H7.97207V8.47ZM4.05307 8.47H6.66507V3.941L4.05307 8.47Z" fill="black"/>
<path d="M25.4702 34.941V36.235C25.4702 38.306 25.7962 38.888 28.0812 39.083V40.118H19.5922V39.083C22.1392 38.824 22.2042 38.307 22.2042 36.235V34.941H14.3672V33.776L23.5102 19.411H25.4692V33H28.0802V34.941H25.4702ZM22.2042 23.941C20.5712 26.4 16.3262 33 16.3262 33H22.2042V23.941Z" fill="#1A1A1A"/>
</svg>
