<svg width="32" height="44" viewBox="0 0 32 44" fill="none" xmlns="http://www.w3.org/2000/svg">
<path d="M3.069 0.5H28.996C30.3502 0.5 31.5 1.63245 31.5 3.041V40.959C31.5 42.3615 30.3572 43.5 28.931 43.5H3.069C1.64365 43.5 0.5 42.3614 0.5 40.959V3.041C0.5 1.6395 1.64376 0.5 3.069 0.5Z" fill="white" stroke="#383838"/>
<path d="M6.40429 22.058H9.14729L9.08229 21.799C7.90629 21.735 7.51529 21.347 6.99229 20.829C6.47029 20.247 6.53429 18.694 6.53429 18.694C7.44929 19.859 8.03629 20.182 8.42929 20.182C9.14729 20.182 9.80029 19.988 10.3233 19.211C10.8463 18.434 10.5193 17.27 8.69029 16.041C6.86129 14.812 6.27429 13.064 6.27429 13.064C6.27429 13.064 5.68629 14.811 3.85729 16.041C2.02829 17.271 1.70229 18.435 2.22529 19.211C2.81229 19.923 3.53129 20.117 4.24929 20.117C4.70729 20.117 5.22829 19.794 6.14329 18.629C6.14329 18.629 6.20829 20.182 5.68629 20.764C5.16429 21.347 4.77229 21.67 3.59629 21.735L3.53129 22.059H6.40429V22.058Z" fill="#1A1A1A"/>
<path d="M3.40039 7.176L4.05339 2H9.27839V3.294H5.35939L4.70739 5.882C4.90239 5.752 5.42539 5.234 6.33939 5.234C7.25439 5.234 8.03739 5.623 8.49439 6.205C9.01739 6.787 9.27839 7.564 9.27839 8.535C9.27839 9.506 9.01739 10.282 8.49439 10.865C7.97239 11.447 7.18839 11.771 6.20839 11.771C5.35939 11.771 4.70639 11.577 4.18439 11.124C3.66239 10.605 3.40039 9.764 3.40039 9.117H4.64139C4.64139 9.635 4.77239 9.958 5.09839 10.282C5.42539 10.541 5.81739 10.735 6.27439 10.735C6.79639 10.735 7.25339 10.541 7.58039 10.153C7.90639 9.764 8.10339 9.181 8.10339 8.535C8.10339 7.952 7.97239 7.37 7.64539 6.982C7.31939 6.593 6.86139 6.399 6.27439 6.399C5.75239 6.399 5.35939 6.529 5.16439 6.658C4.90239 6.787 4.83739 6.917 4.64139 7.176H3.40039Z" fill="black"/>
<path d="M17.1752 27.888C18.7422 27.306 20.4402 26.853 21.3552 26.853C25.7302 26.853 28.0812 29.571 28.0812 32.353C28.0812 34.359 27.0372 36.236 24.8162 37.853C22.9222 39.211 20.5712 40.053 18.6122 40.118C17.1752 40.118 15.7382 39.535 15.0852 39.018C14.4982 38.5 14.3012 38.176 14.3672 37.789C14.3672 37.336 14.8252 36.688 15.3462 36.301C15.7382 36.042 16.0652 36.107 16.4562 36.43C17.2402 37.142 18.7422 38.307 20.7662 38.307C23.1182 38.307 24.2932 36.301 24.2932 33.907C24.2932 30.995 22.3992 28.989 19.0682 28.989C17.5662 28.989 16.1942 29.378 15.4112 29.636L16.9132 19.413H27.2962L27.4912 19.736L26.4472 22.518H18.0902L17.1752 27.888Z" fill="#1A1A1A"/>
</svg>
