<svg width="32" height="44" viewBox="0 0 32 44" fill="none" xmlns="http://www.w3.org/2000/svg">
<path d="M3.069 0.5H28.996C30.3502 0.5 31.5 1.63245 31.5 3.041V40.959C31.5 42.3615 30.3572 43.5 28.931 43.5H3.069C1.64365 43.5 0.5 42.3614 0.5 40.959V3.041C0.5 1.6395 1.64376 0.5 3.069 0.5Z" fill="white" stroke="#383838"/>
<path d="M6.40466 22.059H9.14767L9.08167 21.8C7.90567 21.736 7.51466 21.348 6.99166 20.83C6.46966 20.248 6.53466 18.695 6.53466 18.695C7.44966 19.86 8.03666 20.183 8.42866 20.183C9.14666 20.183 9.79966 19.989 10.3227 19.212C10.8457 18.435 10.5187 17.271 8.69066 16.042C6.86066 14.812 6.27366 13.065 6.27366 13.065C6.27366 13.065 5.68566 14.812 3.85766 16.042C2.02866 17.271 1.70266 18.436 2.22466 19.212C2.81166 19.924 3.53067 20.118 4.24867 20.118C4.70567 20.118 5.22766 19.795 6.14266 18.63C6.14266 18.63 6.20766 20.183 5.68466 20.765C5.16266 21.348 4.77066 21.671 3.59466 21.736L3.52966 22.06H6.40466V22.059Z" fill="#1A1A1A"/>
<path d="M6.60041 2C6.99241 2 7.31841 2.064 7.71041 2.129C8.03741 2.193 8.36341 2.323 8.55941 2.388L8.29741 3.359C8.03641 3.229 7.77541 3.165 7.51441 3.1C7.25241 3.036 6.92641 2.971 6.60041 2.971C6.01241 2.971 5.55541 3.229 5.16341 3.747C4.77141 4.265 4.64041 4.912 4.64041 5.688V6.076C4.90141 5.818 5.55441 5.3 6.53441 5.3C7.51341 5.3 8.10141 5.688 8.55841 6.206C9.01541 6.724 9.27641 7.694 9.27641 8.536C9.27641 9.507 9.01541 10.283 8.49241 10.866C7.97041 11.448 7.25141 11.707 6.40341 11.707C5.55341 11.707 4.83641 11.384 4.24841 10.736C3.66041 10.025 3.39941 9.119 3.39941 8.019V5.819C3.39941 4.719 3.72641 3.813 4.31341 3.102C4.96741 2.389 5.68541 2 6.60041 2ZM6.46941 6.271C6.07741 6.271 5.22841 6.4 4.64041 7.306V8.147C4.64041 8.923 4.83641 9.57 5.16241 10.023C5.48941 10.476 5.94641 10.734 6.40341 10.734C6.92541 10.734 7.31741 10.54 7.57841 10.152C7.83941 9.764 7.97141 9.247 7.97141 8.6C7.97141 8.017 7.90641 7.241 7.64541 6.853C7.38341 6.4 6.99141 6.271 6.46941 6.271Z" fill="black"/>
<path d="M20.3102 27.694C21.0942 27.37 21.6822 27.112 22.2042 27.112C25.7312 27.112 28.0822 29.57 28.0822 33C28.0822 36.947 25.2082 40.118 21.2252 40.118C17.3712 40.118 14.3682 37.077 14.3682 32.094C14.3682 25.3 19.1352 21.677 22.6622 20.448C23.9682 19.995 25.8622 19.607 27.1032 19.413L27.2982 20.578C26.3192 20.772 25.0132 21.161 23.9022 21.678C22.2042 22.519 19.4622 24.396 18.5482 28.536L20.3102 27.694ZM20.7022 29.182C19.7872 29.182 19.0702 29.377 18.3512 29.7C18.2212 30.282 18.1552 31.318 18.1552 32.094C18.1552 36.171 19.7872 38.824 21.8122 38.824C23.9012 38.824 24.4892 36.3 24.4892 34.23C24.4902 31.446 23.0532 29.182 20.7022 29.182Z" fill="#1A1A1A"/>
</svg>
