<svg width="32" height="44" viewBox="0 0 32 44" fill="none" xmlns="http://www.w3.org/2000/svg">
<path d="M3.069 0.5H28.996C30.3502 0.5 31.5 1.63245 31.5 3.041V40.959C31.5 42.3615 30.3572 43.5 28.931 43.5H3.069C1.64365 43.5 0.5 42.3614 0.5 40.959V3.041C0.5 1.6395 1.64376 0.5 3.069 0.5Z" fill="white" stroke="#383838"/>
<path d="M6.40366 22.059H9.14666L9.08167 21.8C7.90567 21.736 7.51366 21.348 6.99166 20.83C6.46966 20.248 6.53366 18.695 6.53366 18.695C7.44866 19.86 8.03566 20.183 8.42766 20.183C9.14566 20.183 9.79966 19.989 10.3217 19.212C10.8437 18.435 10.5177 17.271 8.68866 16.042C6.86066 14.812 6.27366 13.065 6.27366 13.065C6.27366 13.065 5.68666 14.812 3.85766 16.042C2.02866 17.271 1.70266 18.436 2.22466 19.212C2.81266 19.924 3.53067 20.118 4.24867 20.118C4.70667 20.118 5.22766 19.795 6.14266 18.63C6.14266 18.63 6.20766 20.183 5.68566 20.765C5.16366 21.348 4.77066 21.671 3.59566 21.736L3.53066 22.06H6.40366V22.059Z" fill="#1A1A1A"/>
<path d="M9.27741 3.23C8.03641 4.718 7.38341 5.689 6.92641 6.853C6.46941 7.953 6.66541 9.053 6.66541 10.412V11.706H5.35841V10.412C5.35841 8.924 5.42341 7.824 5.94641 6.66C6.46941 5.494 6.92641 4.589 7.97141 3.294H3.39941V2H9.27641V3.23H9.27741Z" fill="black"/>
<path d="M28.734 19.8C25.73 26.4 22.595 33.065 19.656 39.729L16.717 40.118L16.521 39.665C20.113 34.035 23.378 27.953 26.057 22.453H19.265C17.11 22.453 16.914 22.712 16.065 24.718H15.02C15.412 22.453 15.607 20.771 15.738 19.347H28.407L28.734 19.8Z" fill="#1A1A1A"/>
</svg>
