<svg width="32" height="44" viewBox="0 0 32 44" fill="none" xmlns="http://www.w3.org/2000/svg">
<path d="M3.069 0.5H28.996C30.3502 0.5 31.5 1.63245 31.5 3.041V40.959C31.5 42.3615 30.3572 43.5 28.931 43.5H3.069C1.64365 43.5 0.5 42.3614 0.5 40.959V3.041C0.5 1.6395 1.64376 0.5 3.069 0.5Z" fill="white" stroke="#383838"/>
<path d="M6.40429 22.058H9.14729L9.08229 21.799C7.90629 21.735 7.51529 21.347 6.99229 20.829C6.47029 20.247 6.53429 18.694 6.53429 18.694C7.44929 19.859 8.03629 20.182 8.42929 20.182C9.14729 20.182 9.80029 19.988 10.3233 19.211C10.8463 18.434 10.5193 17.27 8.69029 16.041C6.86129 14.811 6.27429 13.064 6.27429 13.064C6.27429 13.064 5.68629 14.811 3.85729 16.041C2.02829 17.27 1.70229 18.435 2.22529 19.211C2.81229 19.923 3.53129 20.117 4.24929 20.117C4.70729 20.117 5.22829 19.794 6.14329 18.629C6.14329 18.629 6.20829 20.182 5.68629 20.764C5.16429 21.347 4.77229 21.67 3.59629 21.735L3.53129 22.059H6.40429V22.058Z" fill="#1A1A1A"/>
<path d="M8.62539 4.588C8.62539 5.882 8.03839 6.529 7.58039 6.659C8.10339 6.852 8.49439 7.111 8.82039 7.564C9.14739 7.952 9.27839 8.47 9.27839 8.987C9.27839 9.828 9.01739 10.54 8.49439 10.993C7.97239 11.446 7.25339 11.705 6.40439 11.705C5.49039 11.705 4.77239 11.446 4.24939 10.993C3.66239 10.54 3.40039 9.828 3.40039 8.987C3.40039 8.469 3.53139 8.016 3.85739 7.564C4.18439 7.176 4.57539 6.852 5.16339 6.658C4.70739 6.464 4.05339 5.882 4.05339 4.588C4.05339 2.647 5.55539 2 6.40439 2C7.18839 1.999 8.62539 2.646 8.62539 4.588ZM8.03739 8.923C8.03739 8.405 7.90639 8.017 7.57939 7.629C7.25339 7.306 6.86139 7.111 6.40439 7.111C5.88239 7.111 5.49039 7.305 5.16339 7.629C4.83739 7.953 4.64139 8.405 4.64139 8.923C4.64139 9.441 4.83739 9.894 5.16339 10.217C5.49039 10.541 5.94739 10.67 6.46939 10.67C6.92639 10.67 7.31839 10.541 7.64439 10.217C7.90639 9.894 8.03739 9.505 8.03739 8.923ZM7.51539 4.652C7.51539 4.005 7.31939 3.035 6.40539 3.035C5.42639 3.035 5.16439 3.876 5.16439 4.588C5.16439 5.364 5.55639 6.076 6.40539 6.076C7.31939 6.076 7.51539 5.429 7.51539 4.652Z" fill="black"/>
<path d="M21.4861 19.412C24.8821 19.412 27.2331 21.547 27.2331 24.265C27.2331 25.171 26.9071 26.012 26.2541 26.723C25.8611 27.112 25.1441 27.759 23.7731 28.6C26.0591 29.829 28.0831 31.382 28.0831 34.164C28.0831 38.046 24.1001 40.117 21.0961 40.117C17.1131 40.117 14.3691 38.046 14.3691 34.681C14.3691 33.193 15.0871 32.351 15.7411 31.769C16.2631 31.251 17.6351 30.346 18.6791 29.764C16.7201 28.664 15.1531 27.111 15.1531 24.781C15.1511 21.936 17.7631 19.412 21.4861 19.412ZM21.4201 38.953C23.3151 38.953 24.6201 37.529 24.5551 35.329C24.5551 33 22.7261 31.965 19.7881 30.476C18.6131 31.252 17.7641 32.741 17.7641 34.423C17.7631 37.4 19.7231 38.953 21.4201 38.953ZM21.0941 20.577C19.4611 20.577 18.4821 22.13 18.4821 23.554C18.4821 25.819 20.2451 26.854 22.7271 27.954C23.4461 27.371 24.1641 26.271 24.1641 24.395C24.0981 21.741 22.4651 20.577 21.0941 20.577Z" fill="#1A1A1A"/>
</svg>
