<svg width="32" height="44" viewBox="0 0 32 44" fill="none" xmlns="http://www.w3.org/2000/svg">
<path d="M3.069 0.5H28.996C30.3502 0.5 31.5 1.63245 31.5 3.041V40.959C31.5 42.3615 30.3572 43.5 28.931 43.5H3.069C1.64365 43.5 0.5 42.3614 0.5 40.959V3.041C0.5 1.6395 1.64376 0.5 3.069 0.5Z" fill="white" stroke="#383838"/>
<path d="M6.40366 22.059H9.14666L9.08167 21.8C7.90567 21.736 7.51366 21.348 6.99166 20.83C6.46966 20.248 6.53366 18.695 6.53366 18.695C7.44866 19.86 8.03566 20.183 8.42766 20.183C9.14566 20.183 9.79966 19.989 10.3217 19.212C10.8437 18.435 10.5177 17.271 8.68866 16.042C6.86066 14.812 6.27366 13.065 6.27366 13.065C6.27366 13.065 5.68666 14.812 3.85766 16.042C2.02866 17.271 1.70266 18.436 2.22466 19.212C2.81266 19.924 3.53067 20.118 4.24867 20.118C4.70667 20.118 5.22766 19.795 6.14266 18.63C6.14266 18.63 6.20766 20.183 5.68566 20.765C5.16366 21.348 4.77066 21.671 3.59566 21.736L3.53066 22.06H6.40366V22.059Z" fill="#1A1A1A"/>
<path d="M7.31741 2H8.62341V8.729C8.62341 9.635 8.36241 10.347 7.90541 10.864C7.44841 11.447 6.79541 11.705 6.01141 11.705C5.16241 11.705 4.57441 11.446 4.05241 10.993C3.59541 10.54 3.39941 10.087 3.39941 9.117H4.64041C4.64041 9.764 4.83641 10.67 6.07741 10.67C7.05741 10.67 7.38341 9.7 7.38341 9.117V2H7.31741Z" fill="black"/>
<path d="M27.8859 19.347C27.1669 19.347 26.5789 19.541 26.1219 19.93C25.6649 20.319 25.4699 20.771 25.4699 21.353V34.294C25.4699 35.782 24.8819 37.659 23.7059 38.564C22.4649 39.6 22.3339 40.118 20.3099 40.118C19.0689 40.118 17.9589 39.729 16.9789 39.017C16.0649 38.306 15.6069 37.593 15.6069 36.752C15.6069 36.106 15.8029 35.588 16.1299 35.199C16.4559 34.746 16.9789 34.553 17.6309 34.553C18.0889 34.553 18.4799 34.682 18.8719 34.941C19.3939 35.264 19.6549 35.717 19.6549 36.235C19.6549 36.624 19.5249 37.076 19.1979 37.529C18.9359 37.982 18.7399 38.306 18.8059 38.5C18.8709 39.018 19.3279 39.277 20.2429 39.277C21.5489 39.277 22.1369 38.306 22.1369 36.882V21.352C22.1369 20.77 21.9409 20.381 21.5489 19.929C21.0919 19.541 20.5049 19.346 19.8509 19.346V18.763H27.8839V19.347H27.8859Z" fill="#1A1A1A"/>
</svg>
