<svg width="32" height="44" viewBox="0 0 32 44" fill="none" xmlns="http://www.w3.org/2000/svg">
<path d="M3.069 0.5H28.996C30.3502 0.5 31.5 1.63245 31.5 3.041V40.959C31.5 42.3615 30.3572 43.5 28.931 43.5H3.069C1.64365 43.5 0.5 42.3614 0.5 40.959V3.041C0.5 1.6395 1.64376 0.5 3.069 0.5Z" fill="white" stroke="#383838"/>
<path d="M6.40429 22.059H9.14729L9.08229 21.8C7.90629 21.736 7.51529 21.348 6.99229 20.83C6.47029 20.248 6.53529 18.695 6.53529 18.695C7.45029 19.86 8.03729 20.183 8.42929 20.183C9.14729 20.183 9.80029 19.989 10.3233 19.212C10.8463 18.435 10.5193 17.271 8.69129 16.042C6.86129 14.812 6.27429 13.065 6.27429 13.065C6.27429 13.065 5.68629 14.812 3.85729 16.042C2.02829 17.272 1.70229 18.436 2.22529 19.212C2.81229 19.924 3.53129 20.118 4.24929 20.118C4.70729 20.118 5.22929 19.795 6.14429 18.63C6.14429 18.63 6.20929 20.183 5.68629 20.765C5.16429 21.348 4.77229 21.671 3.59629 21.736L3.53129 22.06H6.40429V22.059Z" fill="#1A1A1A"/>
<path d="M5.35939 7.177H4.70739V11.706H3.40039V2H4.70639V5.882H5.35939L7.97239 2H9.27839L6.27439 6.465L9.93139 11.706H8.42939L5.35939 7.177Z" fill="black"/>
<path d="M24.294 40.117C22.922 37.917 20.963 34.423 19.07 31.058C18.548 30.152 18.221 29.958 17.829 30.023V35.911C17.829 38.629 18.09 38.888 19.919 39.082V40.117H13.127V39.082C14.89 38.888 15.152 38.629 15.152 35.911V23.617C15.152 20.835 14.956 20.64 13.062 20.447V19.412H19.854V20.447C18.09 20.641 17.895 20.835 17.895 23.617V29.117C18.417 28.923 19.005 28.47 19.658 27.499C21.16 25.494 22.401 23.681 23.25 22.193C23.903 21.158 23.838 20.705 22.728 20.511L22.271 20.446V19.411H28.345V20.446C26.777 20.64 25.928 20.964 24.491 22.711C23.25 24.264 22.01 26.011 20.703 27.758C22.336 30.799 24.426 34.293 25.928 36.751C27.038 38.499 27.626 38.887 28.671 39.081V40.116H24.294V40.117Z" fill="#1A1A1A"/>
</svg>
