<svg width="32" height="44" viewBox="0 0 32 44" fill="none" xmlns="http://www.w3.org/2000/svg">
<path d="M3.069 0.5H28.996C30.3502 0.5 31.5 1.63245 31.5 3.041V40.959C31.5 42.3615 30.3572 43.5 28.931 43.5H3.069C1.64365 43.5 0.5 42.3614 0.5 40.959V3.041C0.5 1.6395 1.64376 0.5 3.069 0.5Z" fill="white" stroke="#383838"/>
<path d="M6.40329 22.059H9.14629L9.08129 21.8C7.90529 21.736 7.51329 21.348 6.99129 20.83C6.46929 20.248 6.53329 18.695 6.53329 18.695C7.44829 19.86 8.03529 20.183 8.42729 20.183C9.14529 20.183 9.79929 19.989 10.3213 19.212C10.8433 18.435 10.5173 17.271 8.68829 16.042C6.85929 14.813 6.27329 13.065 6.27329 13.065C6.27329 13.065 5.68629 14.812 3.85729 16.042C2.02829 17.272 1.70229 18.436 2.22529 19.212C2.81229 19.924 3.53129 20.118 4.24929 20.118C4.70729 20.118 5.22829 19.795 6.14329 18.63C6.14329 18.63 6.20829 20.183 5.68629 20.765C5.16429 21.348 4.77129 21.671 3.59629 21.736L3.53129 22.06H6.40329V22.059Z" fill="#1A1A1A"/>
<path d="M9.27709 8.212C9.27709 8.665 9.21209 9.053 9.08109 9.441C8.95009 9.829 8.81909 10.088 8.62309 10.412L9.92909 11.706L8.88409 12.353L7.77409 11.124C7.51209 11.253 7.25209 11.447 6.92509 11.512C6.66409 11.576 6.33709 11.706 5.94609 11.706C4.96609 11.706 4.18309 11.383 3.59509 10.8C3.00709 10.153 2.74609 9.312 2.74609 8.212V5.494C2.74609 4.394 3.00709 3.553 3.59509 2.906C4.18309 2.323 4.96609 2 5.94609 2C6.92509 2 7.77509 2.323 8.36309 2.906C8.95009 3.488 9.27709 4.394 9.27709 5.494V8.212ZM8.03509 5.365C8.03509 4.588 7.77509 4.135 7.44909 3.747C7.12209 3.359 6.59909 3.1 5.94609 3.1C5.29309 3.1 4.83609 3.294 4.50909 3.747C4.18309 4.135 4.05209 4.588 4.05209 5.365V8.212C4.05209 9.053 4.24809 9.635 4.57409 10.024C4.90109 10.412 5.42309 10.671 6.01109 10.671C6.66409 10.671 7.12109 10.477 7.51209 10.024C7.83909 9.635 8.03509 8.988 8.03509 8.148V5.365Z" fill="black"/>
<path d="M26.7749 40.765C25.4679 40.765 24.2279 40.701 23.4439 40.441C22.7249 40.182 23.2479 40.83 20.5059 38.112C19.1999 38.048 17.1099 37.141 15.8039 35.394C14.4979 33.711 13.7139 31.318 13.7139 28.73C13.7139 23.553 16.4569 18.765 21.4199 18.765C25.3389 18.765 28.7339 22.583 28.7339 28.211C28.7339 33.064 26.4489 36.429 23.7709 37.465C25.2079 38.759 25.0109 38.823 26.7749 39.923V40.765V40.765ZM22.3339 36.234C22.5299 36.428 22.7259 36.558 22.9209 36.752C24.2269 36.17 25.6639 33.711 25.6639 29.117C25.6639 23.358 23.7049 19.929 20.8969 19.929C18.4159 19.929 16.6519 23.164 16.6519 27.952C16.6519 32.546 18.2199 36.105 20.6349 36.881L22.3339 36.234Z" fill="#1A1A1A"/>
</svg>
