<svg width="32" height="44" viewBox="0 0 32 44" fill="none" xmlns="http://www.w3.org/2000/svg">
<path d="M3.069 0.5H28.996C30.3502 0.5 31.5 1.63245 31.5 3.041V40.959C31.5 42.3615 30.3572 43.5 28.931 43.5H3.069C1.64365 43.5 0.5 42.3614 0.5 40.959V3.041C0.5 1.6395 1.64376 0.5 3.069 0.5Z" fill="white" stroke="#383838"/>
<path d="M3.30664 7.177L3.95964 2H9.18464V3.294H5.26564L4.61364 5.883C4.80864 5.753 5.33164 5.236 6.24564 5.236C7.16064 5.236 7.94364 5.624 8.40064 6.207C8.92364 6.788 9.18464 7.565 9.18464 8.536C9.18464 9.506 8.92364 10.283 8.40064 10.865C7.87764 11.447 7.09464 11.771 6.11464 11.771C5.26564 11.771 4.61264 11.577 4.09064 11.124C3.56864 10.606 3.30664 9.765 3.30664 9.118H4.54764C4.54764 9.636 4.67864 9.959 5.00464 10.283C5.33164 10.542 5.72364 10.736 6.18064 10.736C6.70264 10.736 7.15964 10.542 7.48664 10.154C7.81264 9.765 8.00964 9.183 8.00964 8.536C8.00964 7.953 7.87864 7.371 7.55164 6.983C7.22564 6.595 6.76764 6.4 6.18064 6.4C5.65864 6.4 5.26564 6.529 5.07064 6.659C4.80864 6.788 4.74364 6.918 4.54764 7.177H3.30664Z" fill="black"/>
<path d="M17.1752 27.888C18.7422 27.306 20.4402 26.853 21.3552 26.853C25.7302 26.853 28.0812 29.571 28.0812 32.353C28.0812 34.359 27.0372 36.235 24.8162 37.853C22.9222 39.211 20.5712 40.053 18.6122 40.118C17.1752 40.118 15.7382 39.535 15.0852 39.017C14.4982 38.499 14.3012 38.176 14.3672 37.788C14.3672 37.335 14.8252 36.687 15.3462 36.299C15.7382 36.041 16.0652 36.106 16.4562 36.429C17.2402 37.141 18.7422 38.306 20.7662 38.306C23.1182 38.306 24.2932 36.299 24.2932 33.906C24.2932 30.994 22.3992 28.988 19.0682 28.988C17.5662 28.988 16.1942 29.377 15.4112 29.635L16.9132 19.412H27.2962L27.4912 19.735L26.4472 22.517H18.0902L17.1752 27.888Z" fill="#1A1A1A"/>
<path d="M6.246 22.059H8.793L8.727 21.865C6.311 21.671 6.441 18.371 6.441 18.371C6.441 18.371 6.703 20.118 8.531 20.118C10.49 20.118 10.49 18.177 10.49 18.177C10.49 16.818 9.184 16.236 8.531 16.236C7.878 16.236 7.682 16.365 7.682 16.365C8.531 15.589 8.531 15.395 8.531 14.942C8.466 13.842 7.225 13.001 6.245 13.001C5.266 13.001 3.959 13.842 3.959 14.942C3.959 15.589 3.959 15.589 4.808 16.365C4.808 16.365 4.416 16.236 3.959 16.236C3.306 16.236 2 16.819 2 18.177C2 18.177 2.131 20.118 3.959 20.118C5.918 20.118 6.049 18.306 6.049 18.306C6.049 18.306 6.114 21.541 3.763 21.8L3.699 22.059H6.246Z" fill="#231F20"/>
</svg>
