<svg width="32" height="44" viewBox="0 0 32 44" fill="none" xmlns="http://www.w3.org/2000/svg">
<path d="M3.069 0.5H28.996C30.3502 0.5 31.5 1.63245 31.5 3.041V40.959C31.5 42.3615 30.3572 43.5 28.931 43.5H3.069C1.64365 43.5 0.5 42.3614 0.5 40.959V3.041C0.5 1.6395 1.64376 0.5 3.069 0.5Z" fill="white" stroke="#383838"/>
<path d="M9.18366 3.229C7.94266 4.718 7.28966 5.689 6.83266 6.853C6.37566 7.953 6.57166 9.053 6.57166 10.412V11.706H5.26466V10.412C5.26466 8.924 5.32966 7.824 5.85266 6.659C6.37566 5.494 6.83266 4.588 7.87766 3.294H3.30566V2H9.18266V3.229H9.18366Z" fill="black"/>
<path d="M28.735 19.8C25.731 26.4 22.595 33.065 19.657 39.73L16.718 40.118L16.522 39.665C20.114 34.036 23.379 27.954 26.057 22.454H19.265C17.11 22.454 16.914 22.712 16.065 24.719H15.02C15.412 22.454 15.608 20.772 15.738 19.348H28.407L28.735 19.8Z" fill="#1A1A1A"/>
<path d="M6.245 22.059H8.792L8.727 21.865C6.31 21.671 6.441 18.37 6.441 18.37C6.441 18.37 6.702 20.118 8.531 20.118C10.49 20.118 10.49 18.177 10.49 18.177C10.49 16.818 9.184 16.236 8.531 16.236C7.878 16.236 7.682 16.365 7.682 16.365C8.531 15.588 8.531 15.394 8.531 14.941C8.466 13.841 7.225 13 6.245 13C5.265 13 3.959 13.841 3.959 14.941C3.959 15.588 3.959 15.588 4.808 16.365C4.808 16.365 4.416 16.236 3.959 16.236C3.306 16.236 2 16.818 2 18.177C2 18.177 2.131 20.118 3.959 20.118C5.918 20.118 6.049 18.306 6.049 18.306C6.049 18.306 6.114 21.541 3.763 21.8L3.698 22.059H6.245Z" fill="#231F20"/>
</svg>
