<svg width="32" height="44" viewBox="0 0 32 44" fill="none" xmlns="http://www.w3.org/2000/svg">
<path d="M3.069 0.5H28.996C30.3502 0.5 31.5 1.63245 31.5 3.041V40.959C31.5 42.3615 30.3572 43.5 28.931 43.5H3.069C1.64365 43.5 0.5 42.3614 0.5 40.959V3.041C0.5 1.6395 1.64376 0.5 3.069 0.5Z" fill="white" stroke="#383838"/>
<path d="M5.98364 11.707C5.59164 11.707 5.26464 11.642 4.87364 11.577C4.54664 11.513 4.22064 11.383 4.02464 11.318L4.28564 10.348C4.54664 10.477 4.80764 10.542 5.06964 10.606C5.33064 10.671 5.65764 10.736 5.98464 10.736C6.57164 10.736 7.02964 10.477 7.42164 9.959C7.81364 9.441 7.94364 8.794 7.94364 8.018V7.631C7.68164 7.89 7.02864 8.407 6.04864 8.407C5.06964 8.407 4.48164 8.019 4.02464 7.501C3.56764 6.983 3.30664 6.077 3.30664 5.171C3.30664 4.2 3.56764 3.424 4.09064 2.841C4.61264 2.259 5.33164 2 6.18064 2C7.02964 2 7.74764 2.324 8.33564 2.971C8.92264 3.618 9.18464 4.524 9.18464 5.689V7.889C9.18464 8.989 8.85764 9.895 8.27064 10.606C7.61664 11.319 6.89764 11.707 5.98364 11.707ZM6.11464 7.436C6.50664 7.436 7.35564 7.307 7.94364 6.401V5.56C7.94364 4.784 7.74764 4.137 7.42164 3.684C7.09364 3.231 6.63664 2.972 6.17964 2.972C5.65764 2.972 5.26464 3.231 5.00364 3.619C4.67764 4.007 4.54664 4.525 4.54664 5.172C4.54664 5.755 4.61164 6.531 4.87364 6.919C5.19964 7.308 5.59164 7.436 6.11464 7.436Z" fill="black"/>
<path d="M21.4202 19.412C25.7312 19.412 28.0822 23.1 28.0822 27.436C28.0822 33.259 24.7512 37.335 20.3102 39.082C18.9392 39.664 16.4572 40.117 15.2822 40.117L15.0862 39.017C19.7882 38.241 23.1192 34.876 23.9682 30.735L22.2042 31.641C21.4862 32.029 20.9632 32.159 20.3762 32.159C16.7182 32.159 14.3682 29.571 14.3682 26.206C14.3682 23.294 16.7842 19.412 21.4202 19.412ZM20.7682 20.641C18.8092 20.641 18.0252 23.035 18.0252 25.041C18.0252 27.759 19.5272 30.153 21.9432 30.153C22.8582 30.153 23.5762 29.894 24.0992 29.571C24.2292 28.73 24.2292 27.953 24.2292 27.306C24.2942 24.265 23.5102 20.641 20.7682 20.641Z" fill="#1A1A1A"/>
<path d="M6.245 22.06H8.792L8.727 21.866C6.31 21.672 6.441 18.372 6.441 18.372C6.441 18.372 6.703 20.119 8.531 20.119C10.49 20.119 10.49 18.178 10.49 18.178C10.49 16.819 9.184 16.237 8.531 16.237C7.878 16.237 7.682 16.366 7.682 16.366C8.531 15.59 8.531 15.395 8.531 14.942C8.466 13.842 7.225 13.001 6.245 13.001C5.266 13.001 3.959 13.842 3.959 14.942C3.959 15.589 3.959 15.589 4.808 16.366C4.808 16.366 4.416 16.237 3.959 16.237C3.306 16.237 2 16.819 2 18.178C2 18.178 2.131 20.119 3.959 20.119C5.918 20.119 6.049 18.307 6.049 18.307C6.049 18.307 6.114 21.542 3.763 21.801L3.698 22.06H6.245Z" fill="#231F20"/>
</svg>
