<svg width="32" height="44" viewBox="0 0 32 44" fill="none" xmlns="http://www.w3.org/2000/svg">
<path d="M3.069 0.5H28.996C30.3502 0.5 31.5 1.63245 31.5 3.041V40.959C31.5 42.3615 30.3572 43.5 28.931 43.5H3.069C1.64365 43.5 0.5 42.3614 0.5 40.959V3.041C0.5 1.6395 1.64376 0.5 3.069 0.5Z" fill="white" stroke="#383838"/>
<path d="M5.26564 7.177H4.61364V11.707H3.30664V2H4.61264V5.882H5.26564L7.87864 2H9.18464L6.18064 6.465L9.83764 11.706H8.33564L5.26564 7.177Z" fill="#231F20"/>
<path d="M24.2941 40.118C22.9221 37.918 20.9631 34.424 19.0691 31.059C18.5471 30.153 18.2201 29.959 17.8281 30.024V35.912C17.8281 38.63 18.0901 38.889 19.9181 39.083V40.118H13.1261V39.083C14.8891 38.889 15.1501 38.63 15.1501 35.912V23.618C15.1501 20.836 14.9541 20.641 13.0601 20.448V19.413H19.8521V20.448C18.0891 20.642 17.8931 20.836 17.8931 23.618V29.118C18.4151 28.924 19.0031 28.471 19.6561 27.501C21.1581 25.495 22.3991 23.683 23.2481 22.195C23.9011 21.16 23.8361 20.707 22.7261 20.513L22.2691 20.448V19.413H28.3431V20.448C26.7761 20.642 25.9271 20.966 24.4901 22.713C23.2491 24.266 22.0091 26.013 20.7021 27.76C22.3341 30.801 24.4251 34.295 25.9271 36.754C27.0371 38.501 27.6241 38.89 28.6701 39.084V40.119H24.2941V40.118Z" fill="#1A1A1A"/>
<path d="M6.246 22.059H8.793L8.727 21.865C6.311 21.671 6.441 18.371 6.441 18.371C6.441 18.371 6.703 20.118 8.531 20.118C10.49 20.118 10.49 18.177 10.49 18.177C10.49 16.818 9.184 16.236 8.531 16.236C7.878 16.236 7.682 16.365 7.682 16.365C8.531 15.589 8.531 15.395 8.531 14.942C8.466 13.842 7.225 13.001 6.245 13.001C5.265 13.001 3.959 13.842 3.959 14.942C3.959 15.589 3.959 15.589 4.808 16.365C4.808 16.365 4.416 16.236 3.959 16.236C3.306 16.236 2 16.819 2 18.177C2 18.177 2.13 20.118 3.959 20.118C5.918 20.118 6.049 18.306 6.049 18.306C6.049 18.306 6.114 21.541 3.763 21.8L3.699 22.059H6.246Z" fill="#231F20"/>
</svg>
