<svg width="32" height="44" viewBox="0 0 32 44" fill="none" xmlns="http://www.w3.org/2000/svg">
<path d="M3.069 0.5H28.996C30.3502 0.5 31.5 1.63245 31.5 3.041V40.959C31.5 42.3615 30.3572 43.5 28.931 43.5H3.069C1.64365 43.5 0.5 42.3614 0.5 40.959V3.041C0.5 1.6395 1.64376 0.5 3.069 0.5Z" fill="white" stroke="#383838"/>
<path d="M9.1843 8.212C9.1843 8.665 9.1193 9.053 8.9883 9.441C8.8573 9.829 8.7273 10.088 8.5313 10.411L9.8373 11.705L8.7923 12.352L7.6823 11.123C7.4213 11.252 7.1603 11.447 6.8333 11.512C6.5723 11.576 6.2453 11.706 5.8543 11.706C4.8753 11.706 4.0913 11.382 3.5033 10.8C2.9153 10.153 2.6543 9.311 2.6543 8.212V5.494C2.6543 4.394 2.9153 3.553 3.5033 2.906C4.0913 2.324 4.8753 2 5.8543 2C6.8333 2 7.6833 2.324 8.2713 2.906C8.8573 3.489 9.1843 4.395 9.1843 5.494V8.212ZM7.9423 5.365C7.9423 4.589 7.6823 4.136 7.3563 3.747C7.0293 3.359 6.5063 3.1 5.8533 3.1C5.2003 3.1 4.7433 3.294 4.4163 3.747C4.0903 4.136 3.9593 4.589 3.9593 5.365V8.212C3.9593 9.053 4.1553 9.635 4.4813 10.024C4.8073 10.413 5.3303 10.671 5.9183 10.671C6.5713 10.671 7.0283 10.477 7.4203 10.024C7.7463 9.636 7.9423 8.989 7.9423 8.148V5.365Z" fill="#231F20"/>
<path d="M26.7749 40.765C25.4689 40.765 24.2279 40.701 23.4449 40.442C22.7259 40.183 23.2489 40.83 20.5059 38.113C19.1999 38.048 17.1099 37.142 15.8039 35.395C14.4979 33.712 13.7139 31.319 13.7139 28.73C13.7139 23.553 16.4569 18.765 21.4199 18.765C25.3379 18.765 28.7349 22.583 28.7349 28.212C28.7349 33.065 26.4489 36.43 23.7719 37.465C25.2079 38.76 25.0129 38.824 26.7749 39.924V40.765ZM22.3349 36.235C22.5309 36.429 22.7269 36.559 22.9219 36.753C24.2279 36.171 25.6649 33.712 25.6649 29.118C25.6649 23.359 23.7059 19.93 20.8979 19.93C18.4169 19.93 16.6529 23.165 16.6529 27.953C16.6529 32.547 18.2199 36.106 20.6359 36.883L22.3349 36.235Z" fill="#1A1A1A"/>
<path d="M6.245 22.059H8.792L8.727 21.865C6.31 21.671 6.441 18.371 6.441 18.371C6.441 18.371 6.703 20.118 8.531 20.118C10.49 20.118 10.49 18.177 10.49 18.177C10.49 16.818 9.184 16.236 8.531 16.236C7.878 16.236 7.682 16.365 7.682 16.365C8.531 15.589 8.531 15.395 8.531 14.942C8.466 13.842 7.225 13.001 6.245 13.001C5.266 13.001 3.959 13.842 3.959 14.942C3.959 15.589 3.959 15.589 4.808 16.365C4.808 16.365 4.416 16.236 3.959 16.236C3.306 16.236 2 16.819 2 18.177C2 18.177 2.131 20.118 3.959 20.118C5.918 20.118 6.049 18.306 6.049 18.306C6.049 18.306 6.114 21.541 3.763 21.8L3.698 22.059H6.245Z" fill="#231F20"/>
</svg>
