<svg width="32" height="44" viewBox="0 0 32 44" fill="none" xmlns="http://www.w3.org/2000/svg">
<path d="M3.069 0.5H28.996C30.3502 0.5 31.5 1.63245 31.5 3.041V40.959C31.5 42.3615 30.3572 43.5 28.931 43.5H3.069C1.64365 43.5 0.5 42.3614 0.5 40.959V3.041C0.5 1.6395 1.64376 0.5 3.069 0.5Z" fill="white" stroke="#383838"/>
<path d="M4.613 11.706H3.306V3.941H2V3.294L4.612 2V11.706H4.613Z" fill="black"/>
<path d="M11.143 8.21204C11.143 9.24704 10.882 10.153 10.424 10.735C9.96697 11.382 9.31397 11.641 8.52997 11.641C7.74597 11.641 7.09297 11.318 6.63597 10.735C6.17897 10.088 5.91797 9.24704 5.91797 8.21204V5.43004C5.91797 4.39504 6.17897 3.55404 6.63597 2.90704C7.09297 2.32404 7.74597 2.00104 8.52997 2.00104C9.31397 2.00104 9.96697 2.32404 10.424 2.97204C10.882 3.61904 11.143 4.46004 11.143 5.49504V8.21204ZM9.83697 5.23604C9.83697 4.58904 9.90197 4.00704 9.64097 3.61804C9.37997 3.23004 8.98797 3.03604 8.53097 3.03604C8.07297 3.03604 7.68197 3.23004 7.42097 3.61904C7.15997 4.00804 7.22497 4.58904 7.22497 5.23604V8.47104C7.22497 9.11804 7.15997 9.70004 7.42097 10.089C7.68197 10.478 8.07397 10.671 8.53097 10.671C8.98797 10.671 9.37997 10.477 9.64097 10.089C9.90197 9.70104 9.83697 9.11804 9.83697 8.47104V5.23604Z" fill="black"/>
<path d="M11.7549 40.118V39.471C13.3869 39.471 13.7139 39.212 13.7139 36.883V23.941C13.1919 23.941 11.7549 23.941 11.7549 23.941V23.294C13.5829 22.97 15.2159 21.741 16.2609 19.412H16.9789V36.883C16.9789 39.148 17.3059 39.535 18.9379 39.535V40.118H11.7549Z" fill="#1A1A1A"/>
<path d="M23.9021 19.412C19.7231 19.412 18.2861 25.041 18.2861 29.765C18.2861 34.554 19.6581 40.118 23.8371 40.118C28.0161 40.118 29.3881 34.424 29.3881 29.765C29.3881 25.042 28.0171 19.412 23.9021 19.412ZM25.4701 36.947C25.4701 37.723 24.7521 38.371 23.8371 38.371C22.9221 38.371 22.2041 37.724 22.2041 36.947V22.583C22.2041 21.806 22.9221 21.159 23.8371 21.159C24.7521 21.159 25.4701 21.806 25.4701 22.583V36.947Z" fill="#1A1A1A"/>
<path d="M6.245 22.059H8.792L8.727 21.865C6.31 21.671 6.441 18.371 6.441 18.371C6.441 18.371 6.702 20.118 8.531 20.118C10.49 20.118 10.49 18.177 10.49 18.177C10.49 16.818 9.184 16.236 8.531 16.236C7.878 16.236 7.682 16.365 7.682 16.365C8.531 15.589 8.531 15.395 8.531 14.942C8.466 13.842 7.225 13.001 6.245 13.001C5.265 13.001 3.959 13.842 3.959 14.942C3.959 15.589 3.959 15.589 4.808 16.365C4.808 16.365 4.416 16.236 3.959 16.236C3.306 16.236 2 16.819 2 18.177C2 18.177 2.131 20.118 3.959 20.118C5.918 20.118 6.049 18.306 6.049 18.306C6.049 18.306 6.114 21.541 3.763 21.8L3.698 22.059H6.245Z" fill="#231F20"/>
</svg>
