<svg width="32" height="44" viewBox="0 0 32 44" fill="none" xmlns="http://www.w3.org/2000/svg">
<path d="M3.069 0.5H28.996C30.3502 0.5 31.5 1.63245 31.5 3.041V40.959C31.5 42.3615 30.3572 43.5 28.931 43.5H3.069C1.64365 43.5 0.5 42.3614 0.5 40.959V3.041C0.5 1.6395 1.64376 0.5 3.069 0.5Z" fill="white" stroke="#383838"/>
<path d="M6.24466 6.206C6.83266 6.206 7.22466 6.077 7.42066 5.753C7.68166 5.494 7.74666 5.106 7.74666 4.588C7.74666 4.135 7.61666 3.747 7.35466 3.423C7.09366 3.1 6.70166 2.97 6.24466 2.97C5.78766 2.97 5.33066 3.099 5.06966 3.423C4.74266 3.747 4.61266 4.136 4.61266 4.588H3.30566C3.30566 3.877 3.63266 3.229 4.15466 2.776C4.74266 2.258 5.39566 2 6.24466 2C7.09366 2 7.81166 2.194 8.26966 2.647C8.79166 3.1 8.98766 3.747 8.98766 4.588C8.98766 5.041 8.85666 5.429 8.66066 5.817C8.46466 6.205 8.13866 6.465 7.68166 6.659C8.13866 6.853 8.53066 7.112 8.72566 7.5C8.98766 7.889 9.11766 8.341 9.11766 8.924C9.11766 9.765 8.85666 10.477 8.33466 10.93C7.81166 11.448 7.09366 11.642 6.24466 11.642C5.46066 11.642 4.74366 11.383 4.15466 10.93C3.56766 10.477 3.30566 9.895 3.30566 9.118H4.61166C4.61166 9.571 4.67666 9.894 5.00366 10.218C5.33066 10.541 5.72266 10.671 6.24466 10.671C6.76666 10.671 7.15966 10.542 7.42066 10.218C7.74666 9.894 7.87766 9.506 7.87766 8.988C7.87766 8.406 7.74666 7.953 7.48566 7.63C7.22466 7.37 7.15866 7.177 6.57166 7.177H5.26466V5.883L6.24466 6.206Z" fill="#ED0000"/>
<path d="M23.771 27.629C26.97 28.147 28.734 30.217 28.734 32.611C28.734 37.787 21.615 40.116 19.396 40.116C17.698 40.116 16.326 39.534 15.739 39.082C15.217 38.693 15.021 38.24 15.021 37.852C15.086 37.334 15.543 36.818 16 36.558C16.326 36.299 16.718 36.235 17.11 36.558C17.959 37.205 19.461 38.435 21.42 38.435C23.379 38.435 24.881 37.011 24.881 33.906C24.881 30.929 22.53 29.764 20.702 29.764C20.049 29.764 19.265 29.893 18.743 30.023L18.482 28.987C21.42 28.081 23.576 26.787 23.576 24.652C23.576 22.646 22.205 21.74 20.572 21.74C18.809 21.74 17.568 22.84 16.523 24.199L15.674 23.487L17.307 21.416C18.286 20.446 19.854 19.475 21.943 19.475H22.009C25.405 19.475 27.429 21.287 27.429 23.746C27.429 24.587 27.037 25.364 26.384 25.946C25.796 26.399 25.012 26.917 23.902 27.564V27.629H23.771Z" fill="#ED0000"/>
<path d="M6.245 13.647L4.417 16.041L2 17.853L4.417 19.665L6.245 22.059L8.074 19.665L10.49 17.853L8.074 16.041L6.245 13.647Z" fill="#ED0000"/>
</svg>
