<svg width="32" height="44" viewBox="0 0 32 44" fill="none" xmlns="http://www.w3.org/2000/svg">
<path d="M3.069 0.5H28.996C30.3502 0.5 31.5 1.63245 31.5 3.041V40.959C31.5 42.3615 30.3572 43.5 28.931 43.5H3.069C1.64365 43.5 0.5 42.3614 0.5 40.959V3.041C0.5 1.6395 1.64376 0.5 3.069 0.5Z" fill="white" stroke="#383838"/>
<path d="M5.98366 11.706C5.59166 11.706 5.26466 11.641 4.87366 11.577C4.54666 11.513 4.22066 11.383 4.02466 11.318L4.28566 10.347C4.54666 10.476 4.80766 10.541 5.06966 10.606C5.33066 10.671 5.65766 10.735 5.98466 10.735C6.57166 10.735 7.02966 10.476 7.42166 9.959C7.81366 9.442 7.94366 8.794 7.94366 8.018V7.63C7.68166 7.889 7.02866 8.406 6.04866 8.406C5.06966 8.406 4.48166 8.017 4.02466 7.5C3.56766 6.983 3.30566 6.077 3.30566 5.171C3.30566 4.2 3.56666 3.424 4.08966 2.841C4.61166 2.259 5.33066 2 6.17966 2C7.02866 2 7.74666 2.323 8.33466 2.97C8.92166 3.617 9.18366 4.523 9.18366 5.688V7.888C9.18366 8.988 8.85666 9.894 8.26966 10.605C7.61666 11.318 6.89766 11.706 5.98366 11.706ZM6.11466 7.435C6.50666 7.435 7.35566 7.306 7.94366 6.399V5.559C7.94366 4.783 7.74766 4.135 7.42166 3.683C7.09366 3.229 6.63666 2.971 6.17966 2.971C5.65766 2.971 5.26466 3.23 5.00366 3.618C4.67766 4.006 4.54666 4.524 4.54666 5.171C4.54666 5.753 4.61166 6.53 4.87366 6.918C5.19966 7.306 5.59166 7.435 6.11466 7.435Z" fill="#ED0000"/>
<path d="M21.4202 19.412C25.7312 19.412 28.0822 23.1 28.0822 27.435C28.0822 33.259 24.7512 37.335 20.3102 39.082C18.9392 39.664 16.4572 40.117 15.2822 40.117L15.0862 39.017C19.7882 38.24 23.1192 34.875 23.9682 30.734L22.2042 31.64C21.4862 32.028 20.9632 32.158 20.3762 32.158C16.7182 32.158 14.3682 29.57 14.3682 26.205C14.3682 23.294 16.7842 19.412 21.4202 19.412ZM20.7682 20.641C18.8092 20.641 18.0252 23.035 18.0252 25.041C18.0252 27.759 19.5272 30.152 21.9432 30.152C22.8582 30.152 23.5762 29.894 24.0992 29.57C24.2292 28.729 24.2292 27.952 24.2292 27.305C24.2942 24.264 23.5102 20.641 20.7682 20.641Z" fill="#ED0000"/>
<path d="M6.245 13.647L4.417 16.041L2 17.853L4.417 19.664L6.245 22.059L8.074 19.664L10.49 17.853L8.074 16.041L6.245 13.647Z" fill="#ED0000"/>
</svg>
