<svg width="32" height="44" viewBox="0 0 32 44" fill="none" xmlns="http://www.w3.org/2000/svg">
<path d="M3.069 0.5H28.996C30.3502 0.5 31.5 1.63245 31.5 3.041V40.959C31.5 42.3615 30.3572 43.5 28.931 43.5H3.069C1.64365 43.5 0.5 42.3614 0.5 40.959V3.041C0.5 1.6395 1.64376 0.5 3.069 0.5Z" fill="white" stroke="#383838"/>
<path d="M7.22466 2H8.53066V8.729C8.53066 9.635 8.26966 10.347 7.81166 10.864C7.35466 11.447 6.70166 11.705 5.91766 11.705C5.06866 11.705 4.48066 11.446 3.95866 10.993C3.50166 10.54 3.30566 10.087 3.30566 9.117H4.54666C4.54666 9.764 4.74266 10.67 5.98366 10.67C6.96266 10.67 7.28966 9.7 7.28966 9.117V2H7.22466Z" fill="#ED0000"/>
<path d="M27.8859 19.347C27.1669 19.347 26.5799 19.541 26.1229 19.93C25.6649 20.318 25.4699 20.771 25.4699 21.353V34.294C25.4699 35.782 24.8819 37.659 23.7059 38.564C22.4659 39.6 22.3349 40.118 20.3099 40.118C19.0699 40.118 17.9589 39.729 16.9789 39.017C16.0649 38.306 15.6079 37.593 15.6079 36.752C15.6079 36.106 15.8039 35.588 16.1299 35.199C16.4569 34.746 16.9789 34.553 17.6319 34.553C18.0889 34.553 18.4809 34.682 18.8729 34.941C19.3949 35.264 19.6559 35.717 19.6559 36.235C19.6559 36.624 19.5259 37.076 19.1989 37.529C18.9379 37.982 18.7419 38.306 18.8069 38.5C18.8729 39.018 19.3289 39.277 20.2439 39.277C21.5499 39.277 22.1379 38.306 22.1379 36.882V21.352C22.1379 20.77 21.9419 20.381 21.5499 19.929C21.0919 19.541 20.5049 19.346 19.8519 19.346V18.763H27.8839V19.347H27.8859Z" fill="#ED0000"/>
<path d="M6.245 13.647L4.417 16.042L2 17.853L4.417 19.665L6.245 22.059L8.074 19.665L10.49 17.853L8.074 16.042L6.245 13.647Z" fill="#ED0000"/>
</svg>
