<svg width="32" height="44" viewBox="0 0 32 44" fill="none" xmlns="http://www.w3.org/2000/svg">
<path d="M3.069 0.5H28.996C30.3502 0.5 31.5 1.63245 31.5 3.041V40.959C31.5 42.3615 30.3572 43.5 28.931 43.5H3.069C1.64365 43.5 0.5 42.3614 0.5 40.959V3.041C0.5 1.6395 1.64376 0.5 3.069 0.5Z" fill="white" stroke="#383838"/>
<path d="M6.19291 6.205C6.77991 6.205 7.17191 6.075 7.36791 5.752C7.62891 5.493 7.69491 5.105 7.69491 4.587C7.69491 4.134 7.56391 3.746 7.30291 3.422C7.04091 3.098 6.64991 2.969 6.19291 2.969C5.73491 2.969 5.27791 3.098 5.01691 3.422C4.69091 3.746 4.56091 4.135 4.56091 4.588H3.25391C3.25391 3.876 3.58091 3.229 4.10291 2.776C4.69091 2.258 5.34391 2 6.19291 2C7.04191 2 7.75991 2.194 8.21691 2.647C8.73991 3.099 8.93591 3.746 8.93591 4.588C8.93591 5.041 8.80491 5.429 8.60891 5.817C8.41391 6.205 8.08691 6.464 7.62991 6.659C8.08691 6.853 8.47891 7.112 8.67491 7.5C8.93591 7.888 9.06591 8.34 9.06591 8.923C9.06591 9.764 8.80491 10.476 8.28291 10.928C7.75991 11.446 7.04191 11.64 6.19291 11.64C5.40891 11.64 4.69091 11.381 4.10291 10.928C3.51591 10.475 3.25391 9.893 3.25391 9.116H4.55991C4.55991 9.569 4.62491 9.892 4.95191 10.216C5.27891 10.54 5.67091 10.669 6.19291 10.669C6.71491 10.669 7.10691 10.54 7.36791 10.216C7.69491 9.892 7.82491 9.504 7.82491 8.987C7.82491 8.404 7.69491 7.952 7.43291 7.628C7.17291 7.37 7.10691 7.176 6.51991 7.176H5.21291V5.882L6.19291 6.205Z" fill="#ED0000"/>
<path d="M23.772 27.63C26.972 28.148 28.735 30.218 28.735 32.612C28.735 37.789 21.616 40.118 19.396 40.118C17.698 40.118 16.327 39.535 15.739 39.083C15.217 38.694 15.021 38.241 15.021 37.854C15.086 37.336 15.543 36.819 16 36.56C16.327 36.3 16.718 36.236 17.11 36.56C17.959 37.206 19.461 38.436 21.42 38.436C23.379 38.436 24.881 37.013 24.881 33.907C24.881 30.93 22.53 29.766 20.702 29.766C20.049 29.766 19.265 29.895 18.743 30.025L18.481 28.989C21.42 28.084 23.575 26.789 23.575 24.654C23.575 22.649 22.204 21.742 20.572 21.742C18.808 21.742 17.568 22.842 16.523 24.201L15.674 23.489L17.306 21.419C18.285 20.448 19.853 19.478 21.943 19.478H22.008C25.404 19.478 27.428 21.29 27.428 23.749C27.428 24.59 27.036 25.367 26.383 25.949C25.795 26.402 25.012 26.919 23.901 27.567V27.632H23.772V27.63Z" fill="#ED0000"/>
<path d="M10.0459 14.423C9.45792 13.97 8.86992 13.646 8.47892 13.646C8.08692 13.646 7.04192 13.582 6.19292 15.005C5.34392 13.582 4.36392 13.711 3.97192 13.711C3.57992 13.711 2.92692 14.035 2.40492 14.487C1.88292 15.005 1.94792 15.846 2.14392 16.299C2.33992 16.752 6.19292 21.411 6.19292 21.411C6.19292 21.411 10.1109 16.687 10.3069 16.234C10.5029 15.782 10.5689 14.941 10.0459 14.423Z" fill="#ED0000"/>
</svg>
