<svg width="32" height="44" viewBox="0 0 32 44" fill="none" xmlns="http://www.w3.org/2000/svg">
<path d="M3.069 0.5H28.996C30.3502 0.5 31.5 1.63245 31.5 3.041V40.959C31.5 42.3615 30.3572 43.5 28.931 43.5H3.069C1.64365 43.5 0.5 42.3614 0.5 40.959V3.041C0.5 1.6395 1.64376 0.5 3.069 0.5Z" fill="white" stroke="#383838"/>
<path d="M7.8251 8.471H9.1311V9.765H7.8251V11.706H6.5191V9.765H2.6001V8.729L6.5181 2H7.8251V8.471ZM3.9061 8.471H6.5181V3.941L3.9061 8.471Z" fill="#ED0000"/>
<path d="M25.4702 34.941V36.235C25.4702 38.305 25.7962 38.887 28.0822 39.083V40.117H19.5922V39.083C22.1392 38.823 22.2042 38.306 22.2042 36.235V34.941H14.3682V33.776L23.5112 19.411H25.4702V33H28.0822V34.941H25.4702ZM22.2042 23.941C20.5722 26.4 16.3272 33 16.3272 33H22.2042V23.941Z" fill="#ED0000"/>
<path d="M10.0449 14.424C9.45792 13.971 8.86992 13.648 8.47792 13.648C8.08592 13.648 7.04092 13.583 6.19192 15.007C5.34292 13.583 4.36392 13.713 3.97192 13.713C3.57992 13.713 2.92692 14.036 2.40492 14.489C1.88292 15.007 1.94792 15.848 2.14392 16.301C2.33992 16.754 6.19292 21.413 6.19292 21.413C6.19292 21.413 10.1109 16.69 10.3069 16.237C10.5019 15.783 10.5679 14.941 10.0449 14.424Z" fill="#ED0000"/>
</svg>
