<svg width="32" height="44" viewBox="0 0 32 44" fill="none" xmlns="http://www.w3.org/2000/svg">
<path d="M3.069 0.5H28.996C30.3502 0.5 31.5 1.63245 31.5 3.041V40.959C31.5 42.3615 30.3572 43.5 28.931 43.5H3.069C1.64365 43.5 0.5 42.3614 0.5 40.959V3.041C0.5 1.6395 1.64376 0.5 3.069 0.5Z" fill="white" stroke="#383838"/>
<path d="M3.25293 7.176L3.90593 2H9.13093V3.294H5.21193L4.55993 5.882C4.75493 5.752 5.27793 5.234 6.19193 5.234C7.10693 5.234 7.88993 5.623 8.34693 6.205C8.86993 6.787 9.13093 7.564 9.13093 8.535C9.13093 9.506 8.86993 10.282 8.34693 10.865C7.82493 11.447 7.04093 11.771 6.06093 11.771C5.21193 11.771 4.55893 11.577 4.03693 11.124C3.51493 10.605 3.25293 9.764 3.25293 9.117H4.49393C4.49393 9.635 4.62493 9.958 4.95093 10.282C5.27793 10.541 5.66993 10.735 6.12693 10.735C6.64893 10.735 7.10593 10.541 7.43293 10.153C7.75893 9.764 7.95593 9.181 7.95593 8.535C7.95593 7.952 7.82493 7.37 7.49793 6.982C7.17193 6.593 6.71393 6.399 6.12693 6.399C5.60493 6.399 5.21193 6.529 5.01693 6.658C4.75493 6.787 4.68993 6.917 4.49393 7.176H3.25293Z" fill="#ED0000"/>
<path d="M17.1752 27.888C18.7422 27.306 20.4402 26.853 21.3552 26.853C25.7302 26.853 28.0812 29.571 28.0812 32.353C28.0812 34.359 27.0372 36.236 24.8162 37.853C22.9222 39.211 20.5712 40.053 18.6122 40.118C17.1752 40.118 15.7382 39.535 15.0852 39.018C14.4982 38.5 14.3012 38.176 14.3672 37.789C14.3672 37.336 14.8252 36.688 15.3462 36.301C15.7382 36.042 16.0652 36.107 16.4562 36.43C17.2402 37.142 18.7422 38.307 20.7662 38.307C23.1182 38.307 24.2932 36.301 24.2932 33.907C24.2932 30.995 22.3992 28.989 19.0682 28.989C17.5662 28.989 16.1942 29.378 15.4112 29.636L16.9132 19.413H27.2962L27.4912 19.736L26.4472 22.518H18.0902L17.1752 27.888Z" fill="#ED0000"/>
<path d="M10.0449 14.423C9.45792 13.97 8.86992 13.647 8.47792 13.647C8.08592 13.647 7.04092 13.582 6.19192 15.006C5.34292 13.582 4.36392 13.712 3.97192 13.712C3.57992 13.712 2.92692 14.036 2.40492 14.488C1.88292 15.006 1.94792 15.847 2.14392 16.3C2.33992 16.753 6.19292 21.412 6.19292 21.412C6.19292 21.412 10.1109 16.688 10.3069 16.235C10.5019 15.781 10.5679 14.94 10.0449 14.423Z" fill="#ED0000"/>
</svg>
