<svg width="32" height="44" viewBox="0 0 32 44" fill="none" xmlns="http://www.w3.org/2000/svg">
<path d="M3.069 0.5H28.996C30.3502 0.5 31.5 1.63245 31.5 3.041V40.959C31.5 42.3615 30.3572 43.5 28.931 43.5H3.069C1.64365 43.5 0.5 42.3614 0.5 40.959V3.041C0.5 1.6395 1.64376 0.5 3.069 0.5Z" fill="white" stroke="#383838"/>
<path d="M8.47793 4.588C8.47793 5.882 7.89093 6.529 7.43293 6.659C7.95593 6.852 8.34693 7.111 8.67293 7.564C8.99993 7.952 9.13093 8.47 9.13093 8.987C9.13093 9.828 8.86993 10.54 8.34693 10.993C7.82493 11.446 7.10593 11.705 6.25693 11.705C5.34293 11.705 4.62493 11.446 4.10193 10.993C3.51493 10.54 3.25293 9.828 3.25293 8.987C3.25293 8.469 3.38393 8.016 3.70993 7.564C4.03693 7.176 4.42793 6.852 5.01593 6.658C4.55993 6.464 3.90593 5.882 3.90593 4.588C3.90593 2.647 5.40793 2 6.25693 2C7.04093 1.999 8.47793 2.646 8.47793 4.588ZM7.88993 8.923C7.88993 8.405 7.75893 8.017 7.43193 7.629C7.10593 7.306 6.71393 7.111 6.25693 7.111C5.73493 7.111 5.34293 7.305 5.01593 7.629C4.68993 7.953 4.49393 8.405 4.49393 8.923C4.49393 9.441 4.68993 9.894 5.01593 10.217C5.34293 10.541 5.79993 10.67 6.32193 10.67C6.77893 10.67 7.17093 10.541 7.49693 10.217C7.75893 9.894 7.88993 9.505 7.88993 8.923ZM7.36793 4.652C7.36793 4.005 7.17193 3.034 6.25793 3.034C5.27893 3.034 5.01693 3.875 5.01693 4.587C5.01693 5.363 5.40893 6.075 6.25793 6.075C7.17193 6.076 7.36793 5.429 7.36793 4.652Z" fill="#ED0000"/>
<path d="M21.4861 19.412C24.8821 19.412 27.2331 21.547 27.2331 24.265C27.2331 25.171 26.9071 26.012 26.2541 26.723C25.8611 27.112 25.1441 27.759 23.7731 28.6C26.0591 29.829 28.0831 31.382 28.0831 34.164C28.0831 38.046 24.1001 40.117 21.0961 40.117C17.1131 40.117 14.3691 38.046 14.3691 34.681C14.3691 33.193 15.0871 32.351 15.7411 31.769C16.2631 31.251 17.6351 30.346 18.6791 29.764C16.7201 28.664 15.1531 27.111 15.1531 24.781C15.1511 21.936 17.7631 19.412 21.4861 19.412ZM21.4201 38.953C23.3151 38.953 24.6201 37.529 24.5551 35.329C24.5551 33 22.7261 31.965 19.7881 30.476C18.6131 31.252 17.7641 32.741 17.7641 34.423C17.7631 37.4 19.7231 38.953 21.4201 38.953ZM21.0941 20.577C19.4611 20.577 18.4821 22.13 18.4821 23.554C18.4821 25.819 20.2451 26.854 22.7271 27.954C23.4461 27.371 24.1641 26.271 24.1641 24.395C24.0981 21.741 22.4651 20.577 21.0941 20.577Z" fill="#ED0000"/>
<path d="M10.0449 14.423C9.45792 13.97 8.86992 13.646 8.47792 13.646C8.08592 13.646 7.04092 13.582 6.19192 15.005C5.34292 13.582 4.36392 13.711 3.97192 13.711C3.57992 13.711 2.92692 14.035 2.40492 14.487C1.88292 15.005 1.94792 15.846 2.14392 16.299C2.33992 16.752 6.19292 21.411 6.19292 21.411C6.19292 21.411 10.1109 16.687 10.3069 16.234C10.5019 15.782 10.5679 14.941 10.0449 14.423Z" fill="#ED0000"/>
</svg>
