<svg width="32" height="44" viewBox="0 0 32 44" fill="none" xmlns="http://www.w3.org/2000/svg">
<path d="M3.069 0.5H28.996C30.3502 0.5 31.5 1.63245 31.5 3.041V40.959C31.5 42.3615 30.3572 43.5 28.931 43.5H3.069C1.64365 43.5 0.5 42.3614 0.5 40.959V3.041C0.5 1.6395 1.64376 0.5 3.069 0.5Z" fill="white" stroke="#383838"/>
<path d="M5.93091 11.707C5.53891 11.707 5.21191 11.642 4.82091 11.577C4.49391 11.513 4.16791 11.383 3.97191 11.318L4.23291 10.348C4.49391 10.477 4.75491 10.542 5.01691 10.607C5.27891 10.672 5.60491 10.736 5.93191 10.736C6.51891 10.736 6.97691 10.477 7.36891 9.959C7.76091 9.442 7.89091 8.794 7.89091 8.018V7.631C7.62891 7.89 6.97591 8.407 5.99591 8.407C5.01691 8.407 4.42891 8.019 3.97191 7.501C3.51491 6.983 3.25391 6.077 3.25391 5.171C3.25391 4.2 3.51491 3.424 4.03791 2.841C4.55991 2.259 5.27891 2 6.12791 2C6.97691 2 7.69491 2.323 8.28291 2.971C8.86991 3.618 9.13191 4.524 9.13191 5.689V7.889C9.13191 8.989 8.80491 9.895 8.21791 10.607C7.56391 11.319 6.84491 11.707 5.93091 11.707ZM6.06191 7.436C6.45391 7.436 7.30291 7.307 7.89091 6.401V5.56C7.89091 4.784 7.69491 4.137 7.36891 3.684C7.04091 3.231 6.58391 2.972 6.12691 2.972C5.60491 2.972 5.21191 3.231 4.95091 3.619C4.62491 4.007 4.49391 4.525 4.49391 5.172C4.49391 5.755 4.55891 6.531 4.82091 6.919C5.14691 7.308 5.53891 7.436 6.06191 7.436Z" fill="#ED0000"/>
<path d="M21.4202 19.412C25.7312 19.412 28.0812 23.1 28.0812 27.436C28.0812 33.259 24.7512 37.336 20.3102 39.083C18.9392 39.665 16.4572 40.118 15.2822 40.118L15.0862 39.017C19.7882 38.241 23.1192 34.876 23.9682 30.735L22.2052 31.641C21.4872 32.029 20.9642 32.159 20.3762 32.159C16.7182 32.159 14.3682 29.571 14.3682 26.206C14.3672 23.294 16.7842 19.412 21.4202 19.412ZM20.7672 20.641C18.8082 20.641 18.0242 23.035 18.0242 25.041C18.0242 27.759 19.5272 30.152 21.9422 30.152C22.8572 30.152 23.5752 29.894 24.0982 29.57C24.2282 28.729 24.2282 27.952 24.2282 27.305C24.2942 24.265 23.5102 20.641 20.7672 20.641Z" fill="#ED0000"/>
<path d="M10.0449 14.425C9.45792 13.972 8.86992 13.648 8.47792 13.648C8.08592 13.648 7.04092 13.584 6.19192 15.007C5.34292 13.584 4.36392 13.713 3.97192 13.713C3.57992 13.713 2.92692 14.037 2.40492 14.489C1.88292 15.007 1.94792 15.848 2.14392 16.301C2.33992 16.754 6.19292 21.413 6.19292 21.413C6.19292 21.413 10.1109 16.689 10.3069 16.236C10.5019 15.784 10.5679 14.943 10.0449 14.425Z" fill="#ED0000"/>
</svg>
