<svg width="32" height="44" viewBox="0 0 32 44" fill="none" xmlns="http://www.w3.org/2000/svg">
<path d="M3.069 0.5H28.996C30.3502 0.5 31.5 1.63245 31.5 3.041V40.959C31.5 42.3615 30.3572 43.5 28.931 43.5H3.069C1.64365 43.5 0.5 42.3614 0.5 40.959V3.041C0.5 1.6395 1.64376 0.5 3.069 0.5Z" fill="white" stroke="#383838"/>
<path d="M8.47761 11.706H9.78361L6.84461 2H5.53861L2.59961 11.706H3.90561L4.49361 9.765H7.95461L8.47761 11.706ZM4.88561 8.471L6.19161 3.942H6.25661L7.56261 8.471H4.88561Z" fill="#ED0000"/>
<path d="M21.5511 40.117V39.146C23.1181 38.887 23.3141 38.5 22.9221 37.205C22.5951 36.17 22.2041 34.747 21.682 33.193H16.3911C16.0651 34.358 15.6731 35.523 15.3471 36.752C14.8891 38.436 15.0201 38.823 16.9791 39.147V40.118H11.1021V39.147C12.8001 38.888 13.1921 38.565 14.1061 35.912L19.526 19.801L20.7011 19.413C22.3991 24.849 24.0971 30.413 25.7951 35.784C26.6451 38.502 27.0361 38.889 28.7341 39.084V40.119H21.5511V40.117ZM19.1351 24.523H19.0701C18.2861 26.917 17.5681 29.376 16.8491 31.705H21.2891L19.1351 24.523Z" fill="#ED0000"/>
<path d="M10.0449 14.424C9.45792 13.971 8.86992 13.648 8.47792 13.648C8.08592 13.648 7.04092 13.583 6.19192 15.007C5.34292 13.583 4.36392 13.713 3.97192 13.713C3.57992 13.713 2.92692 14.037 2.40492 14.489C1.88292 15.007 1.94792 15.848 2.14392 16.301C2.33992 16.754 6.19292 21.413 6.19292 21.413C6.19292 21.413 10.1109 16.689 10.3069 16.236C10.5019 15.782 10.5679 14.941 10.0449 14.424Z" fill="#ED0000"/>
</svg>
