<svg width="32" height="44" viewBox="0 0 32 44" fill="none" xmlns="http://www.w3.org/2000/svg">
<path d="M3.069 0.5H28.996C30.3502 0.5 31.5 1.63245 31.5 3.041V40.959C31.5 42.3615 30.3572 43.5 28.931 43.5H3.069C1.64365 43.5 0.5 42.3614 0.5 40.959V3.041C0.5 1.6395 1.64376 0.5 3.069 0.5Z" fill="white" stroke="#383838"/>
<path d="M5.21193 7.177H4.55993V11.706H3.25293V2H4.55893V5.882H5.21193L7.82493 2H9.13093L6.12693 6.465L9.78393 11.706H8.28193L5.21193 7.177Z" fill="#ED0000"/>
<path d="M24.294 40.117C22.922 37.917 20.963 34.424 19.069 31.058C18.547 30.152 18.22 29.958 17.828 30.023V35.911C17.828 38.629 18.089 38.887 19.918 39.082V40.116H13.126V39.082C14.889 38.887 15.151 38.629 15.151 35.911V23.618C15.151 20.836 14.955 20.641 13.061 20.448V19.412H19.853V20.448C18.089 20.642 17.894 20.836 17.894 23.618V29.118C18.416 28.924 19.004 28.471 19.657 27.5C21.159 25.494 22.4 23.682 23.249 22.194C23.902 21.159 23.837 20.706 22.727 20.512L22.27 20.448V19.412H28.344V20.448C26.776 20.642 25.927 20.965 24.49 22.712C23.249 24.265 22.008 26.012 20.702 27.76C22.335 30.801 24.425 34.295 25.927 36.754C27.037 38.501 27.625 38.889 28.67 39.084V40.118H24.294V40.117Z" fill="#ED0000"/>
<path d="M10.0449 14.424C9.45792 13.971 8.86992 13.648 8.47792 13.648C8.08592 13.648 7.04092 13.583 6.19192 15.007C5.34292 13.583 4.36392 13.713 3.97192 13.713C3.57992 13.713 2.92692 14.036 2.40492 14.489C1.88292 15.007 1.94792 15.848 2.14392 16.301C2.33992 16.754 6.19292 21.413 6.19292 21.413C6.19292 21.413 10.1109 16.69 10.3069 16.237C10.5019 15.783 10.5679 14.941 10.0449 14.424Z" fill="#ED0000"/>
</svg>
