<svg width="32" height="44" viewBox="0 0 32 44" fill="none" xmlns="http://www.w3.org/2000/svg">
<path d="M3.069 0.5H28.996C30.3502 0.5 31.5 1.63245 31.5 3.041V40.959C31.5 42.3615 30.3572 43.5 28.931 43.5H3.069C1.64365 43.5 0.5 42.3614 0.5 40.959V3.041C0.5 1.6395 1.64376 0.5 3.069 0.5Z" fill="white" stroke="#383838"/>
<path d="M28.7408 35.136C28.2198 36.883 27.8938 38.695 27.5028 40.118H14.4028V39.277C16.2278 37.529 18.1178 35.717 19.8128 33.841C22.0288 31.253 23.5928 28.924 23.5928 26.27C23.5928 23.876 22.3548 22.064 20.0088 22.064C17.9238 22.064 16.4888 23.552 15.5118 24.976L14.6648 24.265L16.6848 21.353C17.8588 20.188 19.4878 19.347 21.5078 19.347C24.7018 19.347 27.6338 21.547 27.6338 25.106C27.5688 27.824 26.0698 29.765 22.8108 32.871L18.9658 36.689H24.1148C26.0698 36.689 26.5258 36.948 27.6998 34.877L28.7408 35.136Z" fill="#1A1A1A"/>
<path d="M9.26344 11.705H3.39844V10.411L6.39644 7.241C6.91744 6.594 7.24344 6.076 7.43844 5.688C7.63444 5.3 7.69944 4.911 7.69944 4.523C7.69944 4.07 7.56944 3.747 7.30844 3.423C7.04744 3.164 6.72244 2.97 6.26544 2.97C5.74444 2.97 5.28744 3.164 5.02744 3.488C4.76644 3.876 4.70144 4.071 4.70144 4.588H3.39844C3.39844 3.811 3.65944 3.359 4.18044 2.841C4.63644 2.258 5.35344 2 6.26544 2C7.11244 2 7.76444 2.259 8.22044 2.712C8.67744 3.165 8.93744 3.812 8.93744 4.524C8.93744 5.042 8.80744 5.495 8.54644 6.012C8.28644 6.464 7.89544 7.111 7.30844 7.823L5.28744 10.411H9.19844V11.705H9.26344V11.705Z" fill="#1A1A1A"/>
<path d="M6.39632 22.058H9.13332L9.06832 21.799C7.89532 21.735 7.50432 21.347 6.98332 20.829C6.46232 20.247 6.52732 18.694 6.52732 18.694C7.43932 19.859 8.02632 20.182 8.41732 20.182C9.13432 20.182 9.78632 19.988 10.3073 19.211C10.8283 18.435 10.5023 17.27 8.67832 16.041C6.85232 14.811 6.26532 13.064 6.26532 13.064C6.26532 13.064 5.67932 14.811 3.85332 16.041C2.02832 17.27 1.70332 18.435 2.22432 19.211C2.81132 19.923 3.46332 20.117 4.18032 20.117C4.63632 20.117 5.15832 19.794 6.07032 18.629C6.07032 18.629 6.13532 20.182 5.61332 20.764C5.09232 21.347 4.70132 21.67 3.52832 21.735L3.46332 22.059H6.39632V22.058Z" fill="#1A1A1A"/>
</svg>
