<svg width="32" height="44" viewBox="0 0 32 44" fill="none" xmlns="http://www.w3.org/2000/svg">
<path d="M3.069 0.5H28.996C30.3502 0.5 31.5 1.63245 31.5 3.041V40.959C31.5 42.3615 30.3572 43.5 28.931 43.5H3.069C1.64365 43.5 0.5 42.3614 0.5 40.959V3.041C0.5 1.6395 1.64376 0.5 3.069 0.5Z" fill="white" stroke="#383838"/>
<path d="M6.40429 22.058H9.14729L9.08229 21.799C7.90629 21.735 7.51529 21.347 6.99229 20.829C6.47029 20.247 6.53429 18.694 6.53429 18.694C7.44929 19.859 8.03629 20.182 8.42929 20.182C9.14729 20.182 9.80029 19.988 10.3233 19.211C10.8463 18.434 10.5193 17.27 8.69029 16.041C6.86129 14.811 6.27429 13.064 6.27429 13.064C6.27429 13.064 5.68629 14.811 3.85729 16.041C2.02829 17.27 1.70229 18.435 2.22529 19.211C2.81229 19.923 3.53129 20.117 4.24929 20.117C4.70729 20.117 5.22829 19.794 6.14329 18.629C6.14329 18.629 6.20829 20.182 5.68629 20.764C5.16429 21.347 4.77229 21.67 3.59629 21.735L3.53129 22.059H6.40429V22.058Z" fill="#1A1A1A"/>
<path d="M6.33939 6.205C6.92739 6.205 7.31939 6.075 7.51539 5.752C7.77639 5.493 7.84139 5.105 7.84139 4.587C7.84139 4.134 7.71139 3.746 7.44939 3.422C7.18839 3.098 6.79639 2.969 6.33939 2.969C5.88239 2.969 5.42539 3.098 5.16439 3.422C4.83739 3.746 4.70739 4.135 4.70739 4.588H3.40039C3.40039 3.876 3.72739 3.229 4.24939 2.776C4.83739 2.258 5.49039 2 6.33939 2C7.18839 2 7.90639 2.194 8.36439 2.647C8.88639 3.099 9.08239 3.746 9.08239 4.588C9.08239 5.041 8.95139 5.429 8.75539 5.817C8.56039 6.205 8.23339 6.464 7.77639 6.659C8.23339 6.853 8.62539 7.112 8.82039 7.5C9.08239 7.888 9.21239 8.34 9.21239 8.923C9.21239 9.764 8.95139 10.476 8.42939 10.928C7.90639 11.446 7.18839 11.64 6.33939 11.64C5.55539 11.64 4.83839 11.381 4.24939 10.928C3.66239 10.54 3.40039 9.893 3.40039 9.116H4.70639C4.70639 9.569 4.77139 9.892 5.09839 10.216C5.42539 10.54 5.81739 10.669 6.33939 10.669C6.86139 10.669 7.25439 10.54 7.58039 10.216C7.90739 9.892 8.03839 9.504 8.03839 8.987C8.03839 8.404 7.90739 7.952 7.64639 7.628C7.31939 7.37 7.25339 7.176 6.66639 7.176H5.35939V5.882L6.33939 6.205Z" fill="#1A1A1A"/>
<path d="M23.771 27.63C26.97 28.148 28.734 30.218 28.734 32.612C28.734 37.789 21.615 40.118 19.396 40.118C17.698 40.118 16.326 39.535 15.739 39.083C15.217 38.694 15.021 38.241 15.021 37.854C15.086 37.336 15.543 36.819 16 36.56C16.326 36.3 16.718 36.236 17.11 36.56C17.959 37.206 19.461 38.436 21.42 38.436C23.379 38.436 24.881 37.013 24.881 33.907C24.881 30.93 22.53 29.766 20.702 29.766C20.049 29.766 19.265 29.895 18.743 30.025L18.482 28.989C21.42 28.084 23.576 26.789 23.576 24.654C23.576 22.649 22.205 21.742 20.572 21.742C18.809 21.742 17.568 22.842 16.523 24.201L15.674 23.489L17.307 21.419C18.286 20.448 19.854 19.478 21.943 19.478H22.009C25.405 19.478 27.429 21.29 27.429 23.749C27.429 24.59 27.037 25.367 26.384 25.949C25.796 26.402 25.012 26.919 23.902 27.567V27.632H23.771V27.63Z" fill="#1A1A1A"/>
</svg>
