<svg width="32" height="44" viewBox="0 0 32 44" fill="none" xmlns="http://www.w3.org/2000/svg">
<path d="M3.069 0.5H28.996C30.3502 0.5 31.5 1.63245 31.5 3.041V40.959C31.5 42.3615 30.3572 43.5 28.931 43.5H3.069C1.64365 43.5 0.5 42.3614 0.5 40.959V3.041C0.5 1.6395 1.64376 0.5 3.069 0.5Z" fill="white" stroke="#383838"/>
<path d="M6.4041 22.06H9.1471L9.0821 21.801C7.9061 21.737 7.5141 21.348 6.9921 20.831C6.4701 20.248 6.5341 18.695 6.5341 18.695C7.4491 19.86 8.0361 20.183 8.4281 20.183C9.1461 20.183 9.8001 19.989 10.3221 19.213C10.8441 18.436 10.5181 17.272 8.6891 16.042C6.8601 14.812 6.2741 13.066 6.2741 13.066C6.2741 13.066 5.6871 14.813 3.8581 16.043C2.0291 17.273 1.7021 18.436 2.2251 19.213C2.8131 19.924 3.5311 20.119 4.2491 20.119C4.7071 20.119 5.2281 19.795 6.1431 18.631C6.1431 18.631 6.2081 20.184 5.6861 20.766C5.1641 21.349 4.7711 21.672 3.5961 21.737L3.5311 22.06H6.4041Z" fill="#1A1A1A"/>
<path d="M6.07837 11.707C5.68637 11.707 5.36037 11.643 4.96837 11.578C4.64237 11.514 4.31537 11.384 4.11937 11.319L4.38037 10.348C4.64137 10.478 4.90237 10.542 5.16437 10.607C5.42537 10.672 5.75237 10.737 6.07837 10.737C6.66637 10.737 7.12337 10.478 7.51537 9.96C7.90737 9.442 8.03837 8.795 8.03837 8.019V7.631C7.77637 7.89 7.12337 8.407 6.14337 8.407C5.16337 8.407 4.57637 8.019 4.11937 7.501C3.66137 6.983 3.40137 6.077 3.40137 5.171C3.40137 4.2 3.66237 3.424 4.18537 2.841C4.70737 2.259 5.42637 2 6.27437 2C7.12337 2 7.84137 2.323 8.42937 2.971C9.01737 3.618 9.27837 4.524 9.27837 5.689V7.889C9.27837 8.989 8.95137 9.895 8.36437 10.606C7.71137 11.319 6.99237 11.707 6.07837 11.707ZM6.20837 7.436C6.60037 7.436 7.44937 7.307 8.03737 6.401V5.56C8.03737 4.784 7.84137 4.137 7.51437 3.684C7.18837 3.23 6.73137 2.972 6.27437 2.972C5.75237 2.972 5.36037 3.23 5.09937 3.619C4.77237 4.007 4.64137 4.525 4.64137 5.172C4.64137 5.755 4.70637 6.531 4.96737 6.919C5.29437 7.307 5.68637 7.436 6.20837 7.436Z" fill="black"/>
<path d="M21.4202 19.412C25.7312 19.412 28.0812 23.1 28.0812 27.436C28.0812 33.26 24.7512 37.335 20.3102 39.083C18.9382 39.665 16.4572 40.117 15.2812 40.117L15.0852 39.017C19.7872 38.241 23.1182 34.876 23.9672 30.735L22.2042 31.641C21.4862 32.029 20.9632 32.158 20.3752 32.158C16.7172 32.158 14.3672 29.57 14.3672 26.205C14.3672 23.294 16.7842 19.412 21.4202 19.412ZM20.7672 20.641C18.8082 20.641 18.0242 23.035 18.0242 25.041C18.0242 27.759 19.5272 30.152 21.9422 30.152C22.8572 30.152 23.5752 29.893 24.0982 29.57C24.2282 28.729 24.2282 27.952 24.2282 27.305C24.2942 24.265 23.5102 20.641 20.7672 20.641Z" fill="#1A1A1A"/>
</svg>
