<svg width="32" height="44" viewBox="0 0 32 44" fill="none" xmlns="http://www.w3.org/2000/svg">
<path d="M3.069 0.5H28.996C30.3502 0.5 31.5 1.63245 31.5 3.041V40.959C31.5 42.3615 30.3572 43.5 28.931 43.5H3.069C1.64365 43.5 0.5 42.3614 0.5 40.959V3.041C0.5 1.6395 1.64376 0.5 3.069 0.5Z" fill="white" stroke="#383838"/>
<path d="M6.40429 22.059H9.14729L9.08229 21.8C7.90629 21.736 7.51529 21.347 6.99229 20.83C6.47029 20.247 6.53429 18.694 6.53429 18.694C7.44929 19.859 8.03629 20.182 8.42929 20.182C9.14729 20.182 9.80029 19.988 10.3233 19.212C10.8453 18.435 10.5193 17.271 8.69029 16.041C6.86129 14.811 6.27429 13.065 6.27429 13.065C6.27429 13.065 5.68629 14.812 3.85729 16.042C2.02829 17.272 1.70229 18.435 2.22529 19.212C2.81329 19.923 3.53129 20.118 4.24929 20.118C4.70729 20.118 5.22829 19.794 6.14329 18.63C6.14329 18.63 6.20829 20.183 5.68629 20.765C5.16429 21.347 4.77229 21.671 3.59629 21.736L3.53129 22.059H6.40429Z" fill="#1A1A1A"/>
<path d="M8.62507 11.706H9.93107L6.99207 2H5.68607L2.74707 11.706H4.05307L4.64107 9.765H8.10207L8.62507 11.706ZM5.03307 8.471L6.33907 3.941H6.40407L7.71007 8.471H5.03307Z" fill="black"/>
<path d="M21.5511 40.117V39.146C23.1181 38.887 23.3141 38.5 22.9221 37.206C22.5951 36.171 22.204 34.747 21.682 33.194H16.3911C16.0651 34.359 15.6731 35.524 15.3471 36.753C14.8891 38.436 15.0201 38.823 16.9791 39.147V40.118H11.1021V39.147C12.8001 38.888 13.1921 38.565 14.1061 35.913L19.526 19.801L20.7011 19.413C22.3991 24.849 24.0971 30.413 25.7951 35.784C26.6451 38.502 27.0361 38.889 28.7341 39.084V40.119H21.5511V40.117ZM19.1351 24.524H19.0701C18.2861 26.918 17.5681 29.377 16.8491 31.706H21.2891L19.1351 24.524Z" fill="#1A1A1A"/>
</svg>
