<svg width="32" height="44" viewBox="0 0 32 44" fill="none" xmlns="http://www.w3.org/2000/svg">
<path d="M3.069 0.5H28.996C30.3502 0.5 31.5 1.63245 31.5 3.041V40.959C31.5 42.3615 30.3572 43.5 28.931 43.5H3.069C1.64365 43.5 0.5 42.3614 0.5 40.959V3.041C0.5 1.6395 1.64376 0.5 3.069 0.5Z" fill="white" stroke="#383838"/>
<path d="M6.40429 22.059H9.14729L9.08229 21.8C7.90629 21.736 7.51529 21.347 6.99229 20.83C6.47029 20.247 6.53529 18.694 6.53529 18.694C7.45029 19.859 8.03729 20.182 8.42929 20.182C9.14729 20.182 9.80029 19.988 10.3233 19.212C10.8453 18.435 10.5193 17.271 8.69129 16.041C6.86129 14.812 6.27429 13.065 6.27429 13.065C6.27429 13.065 5.68629 14.812 3.85729 16.042C2.02829 17.272 1.70229 18.435 2.22529 19.212C2.81229 19.923 3.53129 20.118 4.24929 20.118C4.70729 20.118 5.22929 19.794 6.14429 18.63C6.14429 18.63 6.20929 20.183 5.68629 20.765C5.16329 21.347 4.77229 21.671 3.59629 21.736L3.53129 22.059H6.40429Z" fill="#1A1A1A"/>
<path d="M4.70773 11.706H3.40073V3.941H2.09473V3.294L4.70673 2V11.706H4.70773Z" fill="black"/>
<path d="M11.2377 8.21198C11.2377 9.24698 10.9767 10.153 10.5187 10.735C10.0617 11.382 9.4087 11.641 8.6247 11.641C7.8407 11.641 7.1877 11.317 6.7307 10.735C6.2737 10.088 6.0127 9.24698 6.0127 8.21198V5.42998C6.0127 4.39498 6.2737 3.55398 6.7307 2.90698C7.1877 2.32398 7.8407 2.00098 8.6247 2.00098C9.4087 2.00098 10.0617 2.32398 10.5187 2.97198C10.9767 3.61898 11.2377 4.45998 11.2377 5.49498V8.21198ZM9.9317 5.23598C9.9317 4.58898 9.9967 4.00698 9.7357 3.61798C9.4747 3.22898 9.08269 3.03598 8.62569 3.03598C8.16769 3.03598 7.7767 3.22998 7.5157 3.61898C7.2547 4.00698 7.31969 4.58898 7.31969 5.23698V8.47198C7.31969 9.11898 7.2547 9.70098 7.5157 10.089C7.7767 10.478 8.16869 10.672 8.62569 10.672C9.08269 10.672 9.4747 10.478 9.7357 10.089C9.9967 9.70098 9.9317 9.11898 9.9317 8.47198V5.23598Z" fill="black"/>
<path d="M11.7549 40.117V39.471C13.3869 39.471 13.7139 39.212 13.7139 36.883V23.941C13.1919 23.941 11.7549 23.941 11.7549 23.941V23.294C13.5829 22.971 15.2159 21.741 16.2609 19.412H16.9789V36.883C16.9789 39.148 17.3059 39.535 18.9379 39.535V40.117H11.7549Z" fill="#1A1A1A"/>
<path d="M23.9021 19.412C19.7231 19.412 18.2861 25.042 18.2861 29.765C18.2861 34.553 19.6581 40.118 23.8371 40.118C28.0161 40.118 29.3881 34.425 29.3881 29.765C29.3881 25.042 28.0171 19.412 23.9021 19.412ZM25.4701 36.947C25.4701 37.723 24.7521 38.37 23.8371 38.37C22.9221 38.37 22.2041 37.724 22.2041 36.947V22.583C22.2041 21.807 22.9221 21.159 23.8371 21.159C24.7521 21.159 25.4701 21.806 25.4701 22.583V36.947Z" fill="#1A1A1A"/>
</svg>
