<svg width="52" height="52" viewBox="0 0 52 52" fill="none" xmlns="http://www.w3.org/2000/svg">
<g clip-path="url(#clip0_1_1412)">
<path d="M26 52C40.3594 52 52 40.3594 52 26C52 11.6406 40.3594 0 26 0C11.6406 0 0 11.6406 0 26C0 40.3594 11.6406 52 26 52Z" fill="#85858F"/>
<path d="M26.0434 47.2727C40.3789 47.2727 52.0001 36.6904 52.0001 23.6364C52.0001 10.5824 40.3789 0 26.0434 0C11.7079 0 0.0866394 10.5824 0.0866394 23.6364C0.0866394 36.6904 11.7079 47.2727 26.0434 47.2727Z" fill="url(#paint0_linear_1_1412)"/>
<path d="M17.3003 42.5451V14.1814H25.8617C28.2258 14.1319 30.566 14.7059 32.684 15.8549C34.6121 16.9157 36.2149 18.5685 37.2956 20.6105C38.4089 22.7591 38.9737 25.195 38.9309 27.6636V29.0818C38.979 31.5643 38.411 34.0147 37.287 36.1727C36.1896 38.2203 34.5604 39.8656 32.6061 40.9C30.4356 42.0368 28.0519 42.6034 25.6454 42.5545L17.3003 42.5451ZM22.3359 18.1571V38.612H25.6238C26.7369 38.6922 27.8531 38.518 28.9011 38.1005C29.9491 37.6829 30.906 37.0312 31.7106 36.1869C33.2301 34.2579 34.0055 31.76 33.8737 29.2189V27.6447C34.036 25.0942 33.3027 22.5721 31.8231 20.5916C31.0464 19.7451 30.113 19.0899 29.0856 18.67C28.0582 18.2501 26.9604 18.0752 25.866 18.1571H22.3359Z" fill="white"/>
<path d="M17.3003 37.8185V9.45486H25.8617C28.2258 9.40534 30.566 9.97936 32.684 11.1283C34.6121 12.1892 36.2149 13.842 37.2956 15.8839C38.4089 18.0325 38.9737 20.4684 38.9309 22.937V24.3552C38.979 26.8377 38.411 29.2881 37.287 31.4461C36.1896 33.4937 34.5604 35.139 32.6061 36.1734C30.4356 37.3102 28.0519 37.8768 25.6454 37.8279L17.3003 37.8185ZM22.3359 13.4305V33.8854H25.6238C26.7369 33.9657 27.8531 33.7915 28.9011 33.3739C29.9491 32.9564 30.906 32.3046 31.7106 31.4603C33.2301 29.5313 34.0055 27.0334 33.8737 24.4923V22.9181C34.036 20.3677 33.3027 17.8455 31.8231 15.8651C31.0464 15.0186 30.113 14.3634 29.0856 13.9435C28.0582 13.5236 26.9604 13.3487 25.866 13.4305H22.3359Z" fill="black"/>
</g>
<defs>
<linearGradient id="paint0_linear_1_1412" x1="26.0434" y1="0" x2="26.0434" y2="47.2727" gradientUnits="userSpaceOnUse">
<stop stop-color="white"/>
<stop offset="1" stop-color="#B8B8BB"/>
</linearGradient>
<clipPath id="clip0_1_1412">
<rect width="52" height="52" fill="white"/>
</clipPath>
</defs>
</svg>
