<svg width="391" height="114" viewBox="0 0 391 114" fill="none" xmlns="http://www.w3.org/2000/svg">
<path d="M11.67 112.749C11.67 110.329 11.67 107.906 11.67 105.479C11.67 103.053 11.67 100.623 11.67 98.1893C13.6433 98.1226 15.6133 98.0526 17.58 97.9793C17.58 95.566 17.58 93.1526 17.58 90.7393C17.58 88.3193 17.58 85.9026 17.58 83.4893C16.5467 81.3826 15.5133 79.2726 14.48 77.1593C13.4467 75.046 12.4133 72.9326 11.38 70.8193C10.3467 68.706 9.31333 66.5926 8.28 64.4793C7.24667 62.366 6.21333 60.2526 5.18 58.1393C3.45333 58.1993 1.72667 58.2593 0 58.3193C0 55.8993 0 53.4793 0 51.0593C0 48.6393 0 46.2193 0 43.7993C3.23333 43.6793 6.46667 43.5626 9.7 43.4493C12.9267 43.3293 16.1567 43.2093 19.39 43.0893C20.0767 44.8626 20.76 46.6393 21.44 48.4193C22.1267 50.1993 22.81 51.9793 23.49 53.7593C24.1767 55.5393 24.86 57.3193 25.54 59.0993C26.2267 60.8726 26.91 62.6493 27.59 64.4293C28.3167 62.6026 29.0433 60.7726 29.77 58.9393C30.4967 57.1126 31.22 55.2826 31.94 53.4493C32.6667 51.616 33.39 49.7826 34.11 47.9493C34.8367 46.116 35.56 44.2826 36.28 42.4493C39.4467 42.336 42.6133 42.2193 45.78 42.0993C48.9467 41.9793 52.1133 41.8593 55.28 41.7393C55.28 44.1726 55.28 46.606 55.28 49.0393C55.28 51.466 55.28 53.896 55.28 56.3293C53.5533 56.3893 51.8267 56.4526 50.1 56.5193C49.0333 58.7126 47.9667 60.906 46.9 63.0993C45.84 65.2926 44.7767 67.4826 43.71 69.6693C42.6433 71.856 41.5767 74.0426 40.51 76.2293C39.4433 78.416 38.3767 80.6026 37.31 82.7893C37.31 85.2026 37.31 87.616 37.31 90.0293C37.31 92.436 37.31 94.846 37.31 97.2593C39.2767 97.186 41.2433 97.116 43.21 97.0493C43.21 99.4693 43.21 101.889 43.21 104.309C43.21 106.729 43.21 109.146 43.21 111.559C40.5833 111.659 37.9567 111.759 35.33 111.859C32.7033 111.959 30.0733 112.059 27.44 112.159C24.8133 112.259 22.1867 112.359 19.56 112.459C16.9333 112.559 14.3033 112.656 11.67 112.749Z" fill="url(#paint0_linear_427_2536)"/>
<path d="M69.29 98.1893C71.05 98.1293 72.8067 98.066 74.56 97.9993C74.56 96.2926 74.56 94.586 74.56 92.8793C74.56 91.1726 74.56 89.466 74.56 87.7593C74.56 86.046 74.56 84.336 74.56 82.6293C74.56 80.916 74.56 79.2026 74.56 77.4893C72.8067 77.5493 71.05 77.6093 69.29 77.6693C69.29 79.3826 69.29 81.096 69.29 82.8093C69.29 84.5226 69.29 86.2326 69.29 87.9393C69.29 89.6526 69.29 91.3626 69.29 93.0693C69.29 94.776 69.29 96.4826 69.29 98.1893ZM91.26 99.2993C91.26 102.739 90.32 105.379 88.43 107.219C86.54 109.049 83.76 110.039 80.08 110.179C77.3467 110.279 74.6133 110.383 71.88 110.489C69.1467 110.589 66.41 110.689 63.67 110.789C60.03 110.929 57.26 110.139 55.37 108.439C53.48 106.729 52.54 104.139 52.54 100.689C52.54 98.6626 52.54 96.636 52.54 94.6093C52.54 92.5826 52.54 90.556 52.54 88.5293C52.54 86.5026 52.54 84.476 52.54 82.4493C52.54 80.416 52.54 78.3826 52.54 76.3493C52.54 72.8593 53.48 70.1893 55.37 68.3393C57.26 66.4593 60.03 65.4693 63.67 65.3493C66.41 65.2493 69.1467 65.1526 71.88 65.0593C74.6133 64.966 77.3467 64.8726 80.08 64.7793C83.76 64.6593 86.54 65.4593 88.43 67.1993C90.32 68.9393 91.26 71.5393 91.26 75.0393C91.26 77.066 91.26 79.096 91.26 81.1293C91.26 83.1493 91.26 85.1726 91.26 87.1993C91.26 89.2193 91.26 91.2393 91.26 93.2593C91.26 95.2726 91.26 97.286 91.26 99.2993Z" fill="url(#paint1_linear_427_2536)"/>
<path d="M141.26 97.2693C141.26 100.649 140.27 103.349 138.3 105.379C136.35 107.399 133.73 108.429 130.44 108.479C127.393 108.546 124.35 108.623 121.31 108.709C118.263 108.809 115.217 108.913 112.17 109.019C108.88 109.129 106.26 108.219 104.31 106.299C102.39 104.369 101.43 101.689 101.43 98.2393C101.43 95.5193 101.43 92.796 101.43 90.0693C101.43 87.336 101.43 84.6026 101.43 81.8693C101.43 79.1226 101.43 76.3726 101.43 73.6193C101.43 70.866 101.43 68.106 101.43 65.3393C99.9167 65.386 98.4033 65.4326 96.89 65.4793C96.89 63.5126 96.89 61.546 96.89 59.5793C96.89 57.6126 96.89 55.6426 96.89 53.6693C98.5967 53.6093 100.3 53.5526 102 53.4993C103.707 53.446 105.413 53.3926 107.12 53.3393C108.82 53.286 110.523 53.2326 112.23 53.1793C113.937 53.1326 115.64 53.086 117.34 53.0393C117.34 54.906 117.34 56.776 117.34 58.6493C117.34 60.5093 117.34 62.3726 117.34 64.2393C117.34 66.0926 117.34 67.946 117.34 69.7993C117.34 71.6526 117.34 73.4993 117.34 75.3393C117.34 77.186 117.34 79.026 117.34 80.8593C117.34 82.6926 117.34 84.526 117.34 86.3593C117.34 88.186 117.34 90.0093 117.34 91.8293C117.34 93.6493 117.34 95.466 117.34 97.2793C120.007 97.206 122.677 97.136 125.35 97.0693C125.35 95.2626 125.35 93.4493 125.35 91.6293C125.35 89.8093 125.35 87.9893 125.35 86.1693C125.35 84.336 125.35 82.5026 125.35 80.6693C125.35 78.836 125.35 76.996 125.35 75.1493C125.35 73.3026 125.35 71.456 125.35 69.6093C125.35 67.756 125.35 65.8993 125.35 64.0393C125.35 62.1793 125.35 60.3126 125.35 58.4393C125.35 56.5726 125.35 54.7026 125.35 52.8293C127.05 52.7826 128.747 52.7426 130.44 52.7093C132.14 52.6693 133.837 52.6326 135.53 52.5993C137.23 52.5726 138.93 52.5426 140.63 52.5093C142.323 52.4826 144.02 52.456 145.72 52.4293C145.72 54.416 145.72 56.3993 145.72 58.3793C145.72 60.3593 145.72 62.336 145.72 64.3093C144.233 64.3293 142.747 64.3526 141.26 64.3793C141.26 67.1526 141.26 69.9226 141.26 72.6893C141.26 75.4426 141.26 78.1926 141.26 80.9393C141.26 83.6726 141.26 86.4026 141.26 89.1293C141.26 91.8493 141.26 94.5626 141.26 97.2693Z" fill="url(#paint2_linear_427_2536)"/>
<path d="M181.99 108.269C181.583 106.009 181.173 103.746 180.76 101.479C180.353 99.206 179.947 96.936 179.54 94.6693C179.127 92.3893 178.717 90.1126 178.31 87.8393C177.903 85.5593 177.493 83.276 177.08 80.9893C176.673 78.7026 176.267 76.4126 175.86 74.1193C175.453 71.8193 175.043 69.5193 174.63 67.2193C174.223 64.9126 173.817 62.6026 173.41 60.2893C172.997 57.976 172.587 55.6593 172.18 53.3393C170.553 53.3593 168.927 53.376 167.3 53.3893C167.3 50.9293 167.3 48.4693 167.3 46.0093C167.3 43.5493 167.3 41.086 167.3 38.6193C169.733 38.5993 172.167 38.576 174.6 38.5493C177.033 38.5293 179.463 38.506 181.89 38.4793C184.323 38.4593 186.757 38.4393 189.19 38.4193C191.623 38.3926 194.057 38.3693 196.49 38.3493C196.49 40.8226 196.49 43.2926 196.49 45.7593C196.49 48.226 196.49 50.6926 196.49 53.1593C194.657 53.166 192.82 53.176 190.98 53.1893C191.4 56.016 191.82 58.8426 192.24 61.6693C192.66 64.4826 193.077 67.296 193.49 70.1093C193.91 72.916 194.33 75.716 194.75 78.5093C195.17 81.3026 195.59 84.0926 196.01 86.8793C196.443 84.8793 196.877 82.8793 197.31 80.8793C197.743 78.8726 198.177 76.866 198.61 74.8593C199.043 72.846 199.477 70.8293 199.91 68.8093C200.343 66.7893 200.777 64.766 201.21 62.7393C201.643 60.7126 202.077 58.6826 202.51 56.6493C202.943 54.6093 203.377 52.5726 203.81 50.5393C204.243 48.4926 204.677 46.4493 205.11 44.4093C205.543 42.3626 205.977 40.316 206.41 38.2693C208.877 38.2493 211.34 38.2293 213.8 38.2093C216.267 38.1893 218.733 38.1726 221.2 38.1593C221.66 40.206 222.123 42.2526 222.59 44.2993C223.05 46.3526 223.51 48.4026 223.97 50.4493C224.43 52.496 224.893 54.5393 225.36 56.5793C225.82 58.626 226.28 60.666 226.74 62.6993C227.207 64.7326 227.67 66.766 228.13 68.7993C228.59 70.826 229.053 72.8493 229.52 74.8693C229.98 76.8826 230.44 78.896 230.9 80.9093C231.367 82.916 231.83 84.9226 232.29 86.9293C232.623 84.136 232.957 81.3426 233.29 78.5493C233.623 75.736 233.957 72.9226 234.29 70.1093C234.623 67.276 234.957 64.4393 235.29 61.5993C235.623 58.7526 235.957 55.8993 236.29 53.0393C234.597 53.0326 232.903 53.0293 231.21 53.0293C231.21 50.5426 231.21 48.056 231.21 45.5693C231.21 43.076 231.21 40.5826 231.21 38.0893C233.61 38.076 236.01 38.0626 238.41 38.0493C240.817 38.036 243.22 38.026 245.62 38.0193C248.02 38.0193 250.42 38.0193 252.82 38.0193C255.22 38.0393 257.62 38.0626 260.02 38.0893C260.02 40.636 260.02 43.1726 260.02 45.6993C260.02 48.2193 260.02 50.736 260.02 53.2493C258.407 53.2226 256.797 53.196 255.19 53.1693C254.83 55.5293 254.467 57.886 254.1 60.2393C253.74 62.5793 253.38 64.916 253.02 67.2493C252.653 69.576 252.29 71.896 251.93 74.2093C251.563 76.516 251.2 78.8193 250.84 81.1193C250.48 83.4126 250.117 85.6993 249.75 87.9793C249.39 90.2593 249.03 92.5326 248.67 94.7993C248.303 97.066 247.94 99.326 247.58 101.579C247.213 103.833 246.85 106.086 246.49 108.339C244.537 108.333 242.58 108.326 240.62 108.319C238.667 108.313 236.71 108.306 234.75 108.299C232.797 108.293 230.84 108.289 228.88 108.289C226.927 108.283 224.97 108.279 223.01 108.279C222.63 106.586 222.25 104.896 221.87 103.209C221.49 101.509 221.11 99.8126 220.73 98.1193C220.35 96.4193 219.967 94.7193 219.58 93.0193C219.2 91.3193 218.82 89.616 218.44 87.9093C218.06 86.2026 217.68 84.4926 217.3 82.7793C216.92 81.066 216.54 79.3493 216.16 77.6293C215.78 75.916 215.4 74.196 215.02 72.4693C214.64 70.7493 214.26 69.0226 213.88 67.2893C213.493 69.0226 213.107 70.7493 212.72 72.4693C212.333 74.1893 211.947 75.9093 211.56 77.6293C211.173 79.3493 210.787 81.0626 210.4 82.7693C210.013 84.4826 209.627 86.1926 209.24 87.8993C208.853 89.606 208.467 91.3093 208.08 93.0093C207.693 94.7093 207.307 96.4093 206.92 98.1093C206.533 99.8026 206.147 101.496 205.76 103.189C205.373 104.883 204.987 106.576 204.6 108.269C202.72 108.269 200.837 108.269 198.95 108.269C197.063 108.269 195.18 108.269 193.3 108.269C191.413 108.269 189.53 108.269 187.65 108.269C185.763 108.269 183.877 108.269 181.99 108.269Z" fill="url(#paint3_linear_427_2536)"/>
<path d="M295.08 39.4193C295.08 41.906 295.08 44.3893 295.08 46.8693C295.08 49.3493 295.08 51.8293 295.08 54.3093C293.207 54.236 291.333 54.166 289.46 54.0993C289.46 55.8193 289.46 57.5393 289.46 59.2593C289.46 60.9793 289.46 62.6926 289.46 64.3993C289.46 66.1126 289.46 67.8226 289.46 69.5293C289.46 71.236 289.46 72.9393 289.46 74.6393C289.46 76.3326 289.46 78.026 289.46 79.7193C289.46 81.4126 289.46 83.1026 289.46 84.7893C289.46 86.476 289.46 88.1593 289.46 89.8393C289.46 91.5193 289.46 93.1993 289.46 94.8793C291.333 94.9393 293.207 94.9993 295.08 95.0593C295.08 97.486 295.08 99.9126 295.08 102.339C295.08 104.759 295.08 107.176 295.08 109.589C292.513 109.496 289.947 109.406 287.38 109.319C284.807 109.226 282.237 109.133 279.67 109.039C277.103 108.953 274.537 108.869 271.97 108.789C269.403 108.709 266.837 108.633 264.27 108.559C264.27 106.179 264.27 103.793 264.27 101.399C264.27 98.9993 264.27 96.5926 264.27 94.1793C266.143 94.2193 268.013 94.2626 269.88 94.3093C269.88 92.6426 269.88 90.9693 269.88 89.2893C269.88 87.616 269.88 85.936 269.88 84.2493C269.88 82.5626 269.88 80.876 269.88 79.1893C269.88 77.496 269.88 75.7993 269.88 74.0993C269.88 72.3926 269.88 70.686 269.88 68.9793C269.88 67.266 269.88 65.5526 269.88 63.8393C269.88 62.1126 269.88 60.3893 269.88 58.6693C269.88 56.936 269.88 55.2026 269.88 53.4693C268.013 53.4226 266.143 53.376 264.27 53.3293C264.27 50.8226 264.27 48.3093 264.27 45.7893C264.27 43.2626 264.27 40.7293 264.27 38.1893C266.837 38.2693 269.403 38.356 271.97 38.4493C274.537 38.5493 277.103 38.6493 279.67 38.7493C282.237 38.8626 284.807 38.9726 287.38 39.0793C289.947 39.1926 292.513 39.306 295.08 39.4193Z" fill="url(#paint4_linear_427_2536)"/>
<path d="M366.32 42.6493C366.32 45.0893 366.32 47.5293 366.32 49.9693C366.32 52.4026 366.32 54.836 366.32 57.2693C364.48 57.1893 362.64 57.1093 360.8 57.0293C360.8 59.336 360.8 61.6393 360.8 63.9393C360.8 66.2393 360.8 68.5393 360.8 70.8393C360.8 73.1326 360.8 75.4293 360.8 77.7293C360.8 80.0226 360.8 82.316 360.8 84.6093C360.8 86.896 360.8 89.186 360.8 91.4793C360.8 93.766 360.8 96.0526 360.8 98.3393C360.8 100.633 360.8 102.919 360.8 105.199C360.8 107.486 360.8 109.769 360.8 112.049C357.76 111.936 354.717 111.823 351.67 111.709C348.63 111.589 345.587 111.473 342.54 111.359C340.967 108.406 339.393 105.449 337.82 102.489C336.247 99.5293 334.67 96.5693 333.09 93.6093C331.517 90.6426 329.943 87.6726 328.37 84.6993C326.797 81.726 325.22 78.7493 323.64 75.7693C323.64 78.6893 323.64 81.6093 323.64 84.5293C323.64 87.4426 323.64 90.3526 323.64 93.2593C323.64 96.166 323.64 99.0693 323.64 101.969C323.64 104.863 323.64 107.756 323.64 110.649C321.647 110.576 319.653 110.503 317.66 110.429C315.667 110.349 313.673 110.273 311.68 110.199C309.687 110.126 307.693 110.053 305.7 109.979C303.707 109.906 301.713 109.833 299.72 109.759C299.72 107.339 299.72 104.919 299.72 102.499C299.72 100.073 299.72 97.646 299.72 95.2193C301.587 95.286 303.457 95.3493 305.33 95.4093C305.33 93.7293 305.33 92.0493 305.33 90.3693C305.33 88.6893 305.33 87.006 305.33 85.3193C305.33 83.626 305.33 81.936 305.33 80.2493C305.33 78.556 305.33 76.8626 305.33 75.1693C305.33 73.4693 305.33 71.7693 305.33 70.0693C305.33 68.3693 305.33 66.666 305.33 64.9593C305.33 63.2526 305.33 61.546 305.33 59.8393C305.33 58.1326 305.33 56.4226 305.33 54.7093C303.457 54.636 301.587 54.5626 299.72 54.4893C299.72 52.016 299.72 49.5393 299.72 47.0593C299.72 44.586 299.72 42.106 299.72 39.6193C301.713 39.7126 303.707 39.8026 305.7 39.8893C307.693 39.976 309.687 40.066 311.68 40.1593C313.673 40.246 315.667 40.336 317.66 40.4293C319.653 40.516 321.647 40.606 323.64 40.6993C325.213 43.7193 326.79 46.736 328.37 49.7493C329.943 52.7626 331.517 55.7693 333.09 58.7693C334.67 61.7693 336.247 64.7626 337.82 67.7493C339.393 70.736 340.967 73.7193 342.54 76.6993C342.54 73.7793 342.54 70.8593 342.54 67.9393C342.54 65.0193 342.54 62.096 342.54 59.1693C342.54 56.236 342.54 53.3026 342.54 50.3693C342.54 47.4293 342.54 44.4926 342.54 41.5593C344.527 41.6526 346.51 41.746 348.49 41.8393C350.47 41.926 352.45 42.016 354.43 42.1093C356.417 42.196 358.4 42.286 360.38 42.3793C362.36 42.4726 364.34 42.5626 366.32 42.6493Z" fill="url(#paint5_linear_427_2536)"/>
<path d="M377.3 91.3993C377.3 89.3926 377.3 87.3893 377.3 85.3893C377.3 83.3826 377.3 81.376 377.3 79.3693C377.3 77.356 377.3 75.346 377.3 73.3393C377.3 71.3326 377.3 69.326 377.3 67.3193C377.3 65.306 377.3 63.2926 377.3 61.2793C377.3 59.2726 377.3 57.2626 377.3 55.2493C377.3 53.236 377.3 51.2193 377.3 49.1993C377.3 47.186 377.3 45.1726 377.3 43.1593C379.46 43.2593 381.617 43.356 383.77 43.4493C385.93 43.5426 388.087 43.636 390.24 43.7293C390.24 45.7426 390.24 47.7526 390.24 49.7593C390.24 51.766 390.24 53.7726 390.24 55.7793C390.24 57.786 390.24 59.7926 390.24 61.7993C390.24 63.806 390.24 65.8126 390.24 67.8193C390.24 69.826 390.24 71.8326 390.24 73.8393C390.24 75.846 390.24 77.8526 390.24 79.8593C390.24 81.8593 390.24 83.8626 390.24 85.8693C390.24 87.876 390.24 89.8793 390.24 91.8793C388.087 91.806 385.93 91.7293 383.77 91.6493C381.617 91.5626 379.46 91.4793 377.3 91.3993Z" fill="url(#paint6_linear_427_2536)"/>
<path d="M377.3 91.3993C377.3 89.3926 377.3 87.3893 377.3 85.3893C377.3 83.3826 377.3 81.376 377.3 79.3693C377.3 77.356 377.3 75.346 377.3 73.3393C377.3 71.3326 377.3 69.326 377.3 67.3193C377.3 65.306 377.3 63.2926 377.3 61.2793C377.3 59.2726 377.3 57.2626 377.3 55.2493C377.3 53.236 377.3 51.2193 377.3 49.1993C377.3 47.186 377.3 45.1726 377.3 43.1593C379.46 43.2593 381.617 43.356 383.77 43.4493C385.93 43.5426 388.087 43.636 390.24 43.7293C390.24 45.7426 390.24 47.7526 390.24 49.7593C390.24 51.766 390.24 53.7726 390.24 55.7793C390.24 57.786 390.24 59.7926 390.24 61.7993C390.24 63.806 390.24 65.8126 390.24 67.8193C390.24 69.826 390.24 71.8326 390.24 73.8393C390.24 75.846 390.24 77.8526 390.24 79.8593C390.24 81.8593 390.24 83.8626 390.24 85.8693C390.24 87.876 390.24 89.8793 390.24 91.8793C388.087 91.806 385.93 91.7293 383.77 91.6493C381.617 91.5626 379.46 91.4793 377.3 91.3993Z" fill="url(#paint7_linear_427_2536)"/>
<path d="M377.3 91.3993C377.3 89.3926 377.3 87.3893 377.3 85.3893C377.3 83.3826 377.3 81.376 377.3 79.3693C377.3 77.356 377.3 75.346 377.3 73.3393C377.3 71.3326 377.3 69.326 377.3 67.3193C377.3 65.306 377.3 63.2926 377.3 61.2793C377.3 59.2726 377.3 57.2626 377.3 55.2493C377.3 53.236 377.3 51.2193 377.3 49.1993C377.3 47.186 377.3 45.1726 377.3 43.1593C379.46 43.2593 381.617 43.356 383.77 43.4493C385.93 43.5426 388.087 43.636 390.24 43.7293C390.24 45.7426 390.24 47.7526 390.24 49.7593C390.24 51.766 390.24 53.7726 390.24 55.7793C390.24 57.786 390.24 59.7926 390.24 61.7993C390.24 63.806 390.24 65.8126 390.24 67.8193C390.24 69.826 390.24 71.8326 390.24 73.8393C390.24 75.846 390.24 77.8526 390.24 79.8593C390.24 81.8593 390.24 83.8626 390.24 85.8693C390.24 87.876 390.24 89.8793 390.24 91.8793C388.087 91.806 385.93 91.7293 383.77 91.6493C381.617 91.5626 379.46 91.4793 377.3 91.3993Z" fill="url(#paint8_linear_427_2536)"/>
<path d="M377.3 91.3993C377.3 89.3926 377.3 87.3893 377.3 85.3893C377.3 83.3826 377.3 81.376 377.3 79.3693C377.3 77.356 377.3 75.346 377.3 73.3393C377.3 71.3326 377.3 69.326 377.3 67.3193C377.3 65.306 377.3 63.2926 377.3 61.2793C377.3 59.2726 377.3 57.2626 377.3 55.2493C377.3 53.236 377.3 51.2193 377.3 49.1993C377.3 47.186 377.3 45.1726 377.3 43.1593C379.46 43.2593 381.617 43.356 383.77 43.4493C385.93 43.5426 388.087 43.636 390.24 43.7293C390.24 45.7426 390.24 47.7526 390.24 49.7593C390.24 51.766 390.24 53.7726 390.24 55.7793C390.24 57.786 390.24 59.7926 390.24 61.7993C390.24 63.806 390.24 65.8126 390.24 67.8193C390.24 69.826 390.24 71.8326 390.24 73.8393C390.24 75.846 390.24 77.8526 390.24 79.8593C390.24 81.8593 390.24 83.8626 390.24 85.8693C390.24 87.876 390.24 89.8793 390.24 91.8793C388.087 91.806 385.93 91.7293 383.77 91.6493C381.617 91.5626 379.46 91.4793 377.3 91.3993Z" fill="url(#paint9_linear_427_2536)"/>
<path d="M377.2 112.679C377.2 110.513 377.2 108.349 377.2 106.189C377.2 104.023 377.2 101.856 377.2 99.6893C379.367 99.7693 381.533 99.8493 383.7 99.9293C385.867 100.009 388.033 100.089 390.2 100.169C390.2 102.336 390.2 104.503 390.2 106.669C390.2 108.836 390.2 111.003 390.2 113.169C388.033 113.089 385.867 113.006 383.7 112.919C381.533 112.839 379.367 112.759 377.2 112.679Z" fill="url(#paint10_linear_427_2536)"/>
<path d="M377.2 112.679C377.2 110.513 377.2 108.349 377.2 106.189C377.2 104.023 377.2 101.856 377.2 99.6893C379.367 99.7693 381.533 99.8493 383.7 99.9293C385.867 100.009 388.033 100.089 390.2 100.169C390.2 102.336 390.2 104.503 390.2 106.669C390.2 108.836 390.2 111.003 390.2 113.169C388.033 113.089 385.867 113.006 383.7 112.919C381.533 112.839 379.367 112.759 377.2 112.679Z" fill="url(#paint11_linear_427_2536)"/>
<path d="M280.375 2L284.003 14.5647L297.073 14.9976L286.244 22.3301L289.872 34.8947L279.552 26.8618L268.723 34.1942L273.174 21.8971L262.854 13.8641L275.925 14.2971L280.375 2Z" fill="url(#paint12_linear_427_2536)"/>
<path d="M11.67 110.749C11.67 108.329 11.67 105.906 11.67 103.479C11.67 101.053 11.67 98.6226 11.67 96.1893C13.6433 96.1226 15.6133 96.0526 17.58 95.9793C17.58 93.566 17.58 91.1526 17.58 88.7393C17.58 86.3193 17.58 83.9026 17.58 81.4893C16.5467 79.3826 15.5133 77.2726 14.48 75.1593C13.4467 73.046 12.4133 70.9326 11.38 68.8193C10.3467 66.706 9.31333 64.5926 8.28 62.4793C7.24667 60.366 6.21333 58.2526 5.18 56.1393C3.45333 56.1993 1.72667 56.2593 0 56.3193C0 53.8993 0 51.4793 0 49.0593C0 46.6393 0 44.2193 0 41.7993C3.23333 41.6793 6.46667 41.5626 9.7 41.4493C12.9267 41.3293 16.1567 41.2093 19.39 41.0893C20.0767 42.8626 20.76 44.6393 21.44 46.4193C22.1267 48.1993 22.81 49.9793 23.49 51.7593C24.1767 53.5393 24.86 55.3193 25.54 57.0993C26.2267 58.8726 26.91 60.6493 27.59 62.4293C28.3167 60.6026 29.0433 58.7726 29.77 56.9393C30.4967 55.1126 31.22 53.2826 31.94 51.4493C32.6667 49.616 33.39 47.7826 34.11 45.9493C34.8367 44.116 35.56 42.2826 36.28 40.4493C39.4467 40.336 42.6133 40.2193 45.78 40.0993C48.9467 39.9793 52.1133 39.8593 55.28 39.7393C55.28 42.1726 55.28 44.606 55.28 47.0393C55.28 49.466 55.28 51.896 55.28 54.3293C53.5533 54.3893 51.8267 54.4526 50.1 54.5193C49.0333 56.7126 47.9667 58.906 46.9 61.0993C45.84 63.2926 44.7767 65.4826 43.71 67.6693C42.6433 69.856 41.5767 72.0426 40.51 74.2293C39.4433 76.416 38.3767 78.6026 37.31 80.7893C37.31 83.2026 37.31 85.616 37.31 88.0293C37.31 90.436 37.31 92.846 37.31 95.2593C39.2767 95.186 41.2433 95.116 43.21 95.0493C43.21 97.4693 43.21 99.8893 43.21 102.309C43.21 104.729 43.21 107.146 43.21 109.559C40.5833 109.659 37.9567 109.759 35.33 109.859C32.7033 109.959 30.0733 110.059 27.44 110.159C24.8133 110.259 22.1867 110.359 19.56 110.459C16.9333 110.559 14.3033 110.656 11.67 110.749Z" fill="url(#paint13_linear_427_2536)"/>
<path d="M69.29 96.1893C71.05 96.1293 72.8067 96.066 74.56 95.9993C74.56 94.2926 74.56 92.586 74.56 90.8793C74.56 89.1726 74.56 87.466 74.56 85.7593C74.56 84.046 74.56 82.336 74.56 80.6293C74.56 78.916 74.56 77.2026 74.56 75.4893C72.8067 75.5493 71.05 75.6093 69.29 75.6693C69.29 77.3826 69.29 79.096 69.29 80.8093C69.29 82.5226 69.29 84.2326 69.29 85.9393C69.29 87.6526 69.29 89.3626 69.29 91.0693C69.29 92.776 69.29 94.4826 69.29 96.1893ZM91.26 97.2993C91.26 100.739 90.32 103.379 88.43 105.219C86.54 107.049 83.76 108.039 80.08 108.179C77.3467 108.279 74.6133 108.383 71.88 108.489C69.1467 108.589 66.41 108.689 63.67 108.789C60.03 108.929 57.26 108.139 55.37 106.439C53.48 104.729 52.54 102.139 52.54 98.6893C52.54 96.6626 52.54 94.636 52.54 92.6093C52.54 90.5826 52.54 88.556 52.54 86.5293C52.54 84.5026 52.54 82.476 52.54 80.4493C52.54 78.416 52.54 76.3826 52.54 74.3493C52.54 70.8593 53.48 68.1893 55.37 66.3393C57.26 64.4593 60.03 63.4693 63.67 63.3493C66.41 63.2493 69.1467 63.1526 71.88 63.0593C74.6133 62.966 77.3467 62.8726 80.08 62.7793C83.76 62.6593 86.54 63.4593 88.43 65.1993C90.32 66.9393 91.26 69.5393 91.26 73.0393C91.26 75.066 91.26 77.096 91.26 79.1293C91.26 81.1493 91.26 83.1726 91.26 85.1993C91.26 87.2193 91.26 89.2393 91.26 91.2593C91.26 93.2726 91.26 95.286 91.26 97.2993Z" fill="url(#paint14_linear_427_2536)"/>
<path d="M141.26 95.2693C141.26 98.6493 140.27 101.349 138.3 103.379C136.35 105.399 133.73 106.429 130.44 106.479C127.393 106.546 124.35 106.623 121.31 106.709C118.263 106.809 115.217 106.913 112.17 107.019C108.88 107.129 106.26 106.219 104.31 104.299C102.39 102.369 101.43 99.6893 101.43 96.2393C101.43 93.5193 101.43 90.796 101.43 88.0693C101.43 85.336 101.43 82.6026 101.43 79.8693C101.43 77.1226 101.43 74.3726 101.43 71.6193C101.43 68.866 101.43 66.106 101.43 63.3393C99.9167 63.386 98.4033 63.4326 96.89 63.4793C96.89 61.5126 96.89 59.546 96.89 57.5793C96.89 55.6126 96.89 53.6426 96.89 51.6693C98.5967 51.6093 100.3 51.5526 102 51.4993C103.707 51.446 105.413 51.3926 107.12 51.3393C108.82 51.286 110.523 51.2326 112.23 51.1793C113.937 51.1326 115.64 51.086 117.34 51.0393C117.34 52.906 117.34 54.776 117.34 56.6493C117.34 58.5093 117.34 60.3726 117.34 62.2393C117.34 64.0926 117.34 65.946 117.34 67.7993C117.34 69.6526 117.34 71.4993 117.34 73.3393C117.34 75.186 117.34 77.026 117.34 78.8593C117.34 80.6926 117.34 82.526 117.34 84.3593C117.34 86.186 117.34 88.0093 117.34 89.8293C117.34 91.6493 117.34 93.466 117.34 95.2793C120.007 95.206 122.677 95.136 125.35 95.0693C125.35 93.2626 125.35 91.4493 125.35 89.6293C125.35 87.8093 125.35 85.9893 125.35 84.1693C125.35 82.336 125.35 80.5026 125.35 78.6693C125.35 76.836 125.35 74.996 125.35 73.1493C125.35 71.3026 125.35 69.456 125.35 67.6093C125.35 65.756 125.35 63.8993 125.35 62.0393C125.35 60.1793 125.35 58.3126 125.35 56.4393C125.35 54.5726 125.35 52.7026 125.35 50.8293C127.05 50.7826 128.747 50.7426 130.44 50.7093C132.14 50.6693 133.837 50.6326 135.53 50.5993C137.23 50.5726 138.93 50.5426 140.63 50.5093C142.323 50.4826 144.02 50.456 145.72 50.4293C145.72 52.416 145.72 54.3993 145.72 56.3793C145.72 58.3593 145.72 60.336 145.72 62.3093C144.233 62.3293 142.747 62.3526 141.26 62.3793C141.26 65.1526 141.26 67.9226 141.26 70.6893C141.26 73.4426 141.26 76.1926 141.26 78.9393C141.26 81.6726 141.26 84.4026 141.26 87.1293C141.26 89.8493 141.26 92.5626 141.26 95.2693Z" fill="url(#paint15_linear_427_2536)"/>
<path d="M181.99 106.269C181.583 104.009 181.173 101.746 180.76 99.4793C180.353 97.206 179.947 94.936 179.54 92.6693C179.127 90.3893 178.717 88.1126 178.31 85.8393C177.903 83.5593 177.493 81.276 177.08 78.9893C176.673 76.7026 176.267 74.4126 175.86 72.1193C175.453 69.8193 175.043 67.5193 174.63 65.2193C174.223 62.9126 173.817 60.6026 173.41 58.2893C172.997 55.976 172.587 53.6593 172.18 51.3393C170.553 51.3593 168.927 51.376 167.3 51.3893C167.3 48.9293 167.3 46.4693 167.3 44.0093C167.3 41.5493 167.3 39.086 167.3 36.6193C169.733 36.5993 172.167 36.576 174.6 36.5493C177.033 36.5293 179.463 36.506 181.89 36.4793C184.323 36.4593 186.757 36.4393 189.19 36.4193C191.623 36.3926 194.057 36.3693 196.49 36.3493C196.49 38.8226 196.49 41.2926 196.49 43.7593C196.49 46.226 196.49 48.6926 196.49 51.1593C194.657 51.166 192.82 51.176 190.98 51.1893C191.4 54.016 191.82 56.8426 192.24 59.6693C192.66 62.4826 193.077 65.296 193.49 68.1093C193.91 70.916 194.33 73.716 194.75 76.5093C195.17 79.3026 195.59 82.0926 196.01 84.8793C196.443 82.8793 196.877 80.8793 197.31 78.8793C197.743 76.8726 198.177 74.866 198.61 72.8593C199.043 70.846 199.477 68.8293 199.91 66.8093C200.343 64.7893 200.777 62.766 201.21 60.7393C201.643 58.7126 202.077 56.6826 202.51 54.6493C202.943 52.6093 203.377 50.5726 203.81 48.5393C204.243 46.4926 204.677 44.4493 205.11 42.4093C205.543 40.3626 205.977 38.316 206.41 36.2693C208.877 36.2493 211.34 36.2293 213.8 36.2093C216.267 36.1893 218.733 36.1726 221.2 36.1593C221.66 38.206 222.123 40.2526 222.59 42.2993C223.05 44.3526 223.51 46.4026 223.97 48.4493C224.43 50.496 224.893 52.5393 225.36 54.5793C225.82 56.626 226.28 58.666 226.74 60.6993C227.207 62.7326 227.67 64.766 228.13 66.7993C228.59 68.826 229.053 70.8493 229.52 72.8693C229.98 74.8826 230.44 76.896 230.9 78.9093C231.367 80.916 231.83 82.9226 232.29 84.9293C232.623 82.136 232.957 79.3426 233.29 76.5493C233.623 73.736 233.957 70.9226 234.29 68.1093C234.623 65.276 234.957 62.4393 235.29 59.5993C235.623 56.7526 235.957 53.8993 236.29 51.0393C234.597 51.0326 232.903 51.0293 231.21 51.0293C231.21 48.5426 231.21 46.056 231.21 43.5693C231.21 41.076 231.21 38.5826 231.21 36.0893C233.61 36.076 236.01 36.0626 238.41 36.0493C240.817 36.036 243.22 36.026 245.62 36.0193C248.02 36.0193 250.42 36.0193 252.82 36.0193C255.22 36.0393 257.62 36.0626 260.02 36.0893C260.02 38.636 260.02 41.1726 260.02 43.6993C260.02 46.2193 260.02 48.736 260.02 51.2493C258.407 51.2226 256.797 51.196 255.19 51.1693C254.83 53.5293 254.467 55.886 254.1 58.2393C253.74 60.5793 253.38 62.916 253.02 65.2493C252.653 67.576 252.29 69.896 251.93 72.2093C251.563 74.516 251.2 76.8193 250.84 79.1193C250.48 81.4126 250.117 83.6993 249.75 85.9793C249.39 88.2593 249.03 90.5326 248.67 92.7993C248.303 95.066 247.94 97.326 247.58 99.5793C247.213 101.833 246.85 104.086 246.49 106.339C244.537 106.333 242.58 106.326 240.62 106.319C238.667 106.313 236.71 106.306 234.75 106.299C232.797 106.293 230.84 106.289 228.88 106.289C226.927 106.283 224.97 106.279 223.01 106.279C222.63 104.586 222.25 102.896 221.87 101.209C221.49 99.5093 221.11 97.8126 220.73 96.1193C220.35 94.4193 219.967 92.7193 219.58 91.0193C219.2 89.3193 218.82 87.616 218.44 85.9093C218.06 84.2026 217.68 82.4926 217.3 80.7793C216.92 79.066 216.54 77.3493 216.16 75.6293C215.78 73.916 215.4 72.196 215.02 70.4693C214.64 68.7493 214.26 67.0226 213.88 65.2893C213.493 67.0226 213.107 68.7493 212.72 70.4693C212.333 72.1893 211.947 73.9093 211.56 75.6293C211.173 77.3493 210.787 79.0626 210.4 80.7693C210.013 82.4826 209.627 84.1926 209.24 85.8993C208.853 87.606 208.467 89.3093 208.08 91.0093C207.693 92.7093 207.307 94.4093 206.92 96.1093C206.533 97.8026 206.147 99.496 205.76 101.189C205.373 102.883 204.987 104.576 204.6 106.269C202.72 106.269 200.837 106.269 198.95 106.269C197.063 106.269 195.18 106.269 193.3 106.269C191.413 106.269 189.53 106.269 187.65 106.269C185.763 106.269 183.877 106.269 181.99 106.269Z" fill="url(#paint16_linear_427_2536)"/>
<path d="M295.08 37.4193C295.08 39.906 295.08 42.3893 295.08 44.8693C295.08 47.3493 295.08 49.8293 295.08 52.3093C293.207 52.236 291.333 52.166 289.46 52.0993C289.46 53.8193 289.46 55.5393 289.46 57.2593C289.46 58.9793 289.46 60.6926 289.46 62.3993C289.46 64.1126 289.46 65.8226 289.46 67.5293C289.46 69.236 289.46 70.9393 289.46 72.6393C289.46 74.3326 289.46 76.026 289.46 77.7193C289.46 79.4126 289.46 81.1026 289.46 82.7893C289.46 84.476 289.46 86.1593 289.46 87.8393C289.46 89.5193 289.46 91.1993 289.46 92.8793C291.333 92.9393 293.207 92.9993 295.08 93.0593C295.08 95.486 295.08 97.9126 295.08 100.339C295.08 102.759 295.08 105.176 295.08 107.589C292.513 107.496 289.947 107.406 287.38 107.319C284.807 107.226 282.237 107.133 279.67 107.039C277.103 106.953 274.537 106.869 271.97 106.789C269.403 106.709 266.837 106.633 264.27 106.559C264.27 104.179 264.27 101.793 264.27 99.3993C264.27 96.9993 264.27 94.5926 264.27 92.1793C266.143 92.2193 268.013 92.2626 269.88 92.3093C269.88 90.6426 269.88 88.9693 269.88 87.2893C269.88 85.616 269.88 83.936 269.88 82.2493C269.88 80.5626 269.88 78.876 269.88 77.1893C269.88 75.496 269.88 73.7993 269.88 72.0993C269.88 70.3926 269.88 68.686 269.88 66.9793C269.88 65.266 269.88 63.5526 269.88 61.8393C269.88 60.1126 269.88 58.3893 269.88 56.6693C269.88 54.936 269.88 53.2026 269.88 51.4693C268.013 51.4226 266.143 51.376 264.27 51.3293C264.27 48.8226 264.27 46.3093 264.27 43.7893C264.27 41.2626 264.27 38.7293 264.27 36.1893C266.837 36.2693 269.403 36.356 271.97 36.4493C274.537 36.5493 277.103 36.6493 279.67 36.7493C282.237 36.8626 284.807 36.9726 287.38 37.0793C289.947 37.1926 292.513 37.306 295.08 37.4193Z" fill="url(#paint17_linear_427_2536)"/>
<path d="M366.32 40.6493C366.32 43.0893 366.32 45.5293 366.32 47.9693C366.32 50.4026 366.32 52.836 366.32 55.2693C364.48 55.1893 362.64 55.1093 360.8 55.0293C360.8 57.336 360.8 59.6393 360.8 61.9393C360.8 64.2393 360.8 66.5393 360.8 68.8393C360.8 71.1326 360.8 73.4293 360.8 75.7293C360.8 78.0226 360.8 80.316 360.8 82.6093C360.8 84.896 360.8 87.186 360.8 89.4793C360.8 91.766 360.8 94.0526 360.8 96.3393C360.8 98.6326 360.8 100.919 360.8 103.199C360.8 105.486 360.8 107.769 360.8 110.049C357.76 109.936 354.717 109.823 351.67 109.709C348.63 109.589 345.587 109.473 342.54 109.359C340.967 106.406 339.393 103.449 337.82 100.489C336.247 97.5293 334.67 94.5693 333.09 91.6093C331.517 88.6426 329.943 85.6726 328.37 82.6993C326.797 79.726 325.22 76.7493 323.64 73.7693C323.64 76.6893 323.64 79.6093 323.64 82.5293C323.64 85.4426 323.64 88.3526 323.64 91.2593C323.64 94.166 323.64 97.0693 323.64 99.9693C323.64 102.863 323.64 105.756 323.64 108.649C321.647 108.576 319.653 108.503 317.66 108.429C315.667 108.349 313.673 108.273 311.68 108.199C309.687 108.126 307.693 108.053 305.7 107.979C303.707 107.906 301.713 107.833 299.72 107.759C299.72 105.339 299.72 102.919 299.72 100.499C299.72 98.0726 299.72 95.646 299.72 93.2193C301.587 93.286 303.457 93.3493 305.33 93.4093C305.33 91.7293 305.33 90.0493 305.33 88.3693C305.33 86.6893 305.33 85.006 305.33 83.3193C305.33 81.626 305.33 79.936 305.33 78.2493C305.33 76.556 305.33 74.8626 305.33 73.1693C305.33 71.4693 305.33 69.7693 305.33 68.0693C305.33 66.3693 305.33 64.666 305.33 62.9593C305.33 61.2526 305.33 59.546 305.33 57.8393C305.33 56.1326 305.33 54.4226 305.33 52.7093C303.457 52.636 301.587 52.5626 299.72 52.4893C299.72 50.016 299.72 47.5393 299.72 45.0593C299.72 42.586 299.72 40.106 299.72 37.6193C301.713 37.7126 303.707 37.8026 305.7 37.8893C307.693 37.976 309.687 38.066 311.68 38.1593C313.673 38.246 315.667 38.336 317.66 38.4293C319.653 38.516 321.647 38.606 323.64 38.6993C325.213 41.7193 326.79 44.736 328.37 47.7493C329.943 50.7626 331.517 53.7693 333.09 56.7693C334.67 59.7693 336.247 62.7626 337.82 65.7493C339.393 68.736 340.967 71.7193 342.54 74.6993C342.54 71.7793 342.54 68.8593 342.54 65.9393C342.54 63.0193 342.54 60.096 342.54 57.1693C342.54 54.236 342.54 51.3026 342.54 48.3693C342.54 45.4293 342.54 42.4926 342.54 39.5593C344.527 39.6526 346.51 39.746 348.49 39.8393C350.47 39.926 352.45 40.016 354.43 40.1093C356.417 40.196 358.4 40.286 360.38 40.3793C362.36 40.4726 364.34 40.5626 366.32 40.6493Z" fill="url(#paint18_linear_427_2536)"/>
<path d="M377.3 89.3993C377.3 87.3926 377.3 85.3893 377.3 83.3893C377.3 81.3826 377.3 79.376 377.3 77.3693C377.3 75.356 377.3 73.346 377.3 71.3393C377.3 69.3326 377.3 67.326 377.3 65.3193C377.3 63.306 377.3 61.2926 377.3 59.2793C377.3 57.2726 377.3 55.2626 377.3 53.2493C377.3 51.236 377.3 49.2193 377.3 47.1993C377.3 45.186 377.3 43.1726 377.3 41.1593C379.46 41.2593 381.617 41.356 383.77 41.4493C385.93 41.5426 388.087 41.636 390.24 41.7293C390.24 43.7426 390.24 45.7526 390.24 47.7593C390.24 49.766 390.24 51.7726 390.24 53.7793C390.24 55.786 390.24 57.7926 390.24 59.7993C390.24 61.806 390.24 63.8126 390.24 65.8193C390.24 67.826 390.24 69.8326 390.24 71.8393C390.24 73.846 390.24 75.8526 390.24 77.8593C390.24 79.8593 390.24 81.8626 390.24 83.8693C390.24 85.876 390.24 87.8793 390.24 89.8793C388.087 89.806 385.93 89.7293 383.77 89.6493C381.617 89.5626 379.46 89.4793 377.3 89.3993Z" fill="url(#paint19_linear_427_2536)"/>
<path d="M377.3 89.3993C377.3 87.3926 377.3 85.3893 377.3 83.3893C377.3 81.3826 377.3 79.376 377.3 77.3693C377.3 75.356 377.3 73.346 377.3 71.3393C377.3 69.3326 377.3 67.326 377.3 65.3193C377.3 63.306 377.3 61.2926 377.3 59.2793C377.3 57.2726 377.3 55.2626 377.3 53.2493C377.3 51.236 377.3 49.2193 377.3 47.1993C377.3 45.186 377.3 43.1726 377.3 41.1593C379.46 41.2593 381.617 41.356 383.77 41.4493C385.93 41.5426 388.087 41.636 390.24 41.7293C390.24 43.7426 390.24 45.7526 390.24 47.7593C390.24 49.766 390.24 51.7726 390.24 53.7793C390.24 55.786 390.24 57.7926 390.24 59.7993C390.24 61.806 390.24 63.8126 390.24 65.8193C390.24 67.826 390.24 69.8326 390.24 71.8393C390.24 73.846 390.24 75.8526 390.24 77.8593C390.24 79.8593 390.24 81.8626 390.24 83.8693C390.24 85.876 390.24 87.8793 390.24 89.8793C388.087 89.806 385.93 89.7293 383.77 89.6493C381.617 89.5626 379.46 89.4793 377.3 89.3993Z" fill="url(#paint20_linear_427_2536)"/>
<path d="M377.3 89.3993C377.3 87.3926 377.3 85.3893 377.3 83.3893C377.3 81.3826 377.3 79.376 377.3 77.3693C377.3 75.356 377.3 73.346 377.3 71.3393C377.3 69.3326 377.3 67.326 377.3 65.3193C377.3 63.306 377.3 61.2926 377.3 59.2793C377.3 57.2726 377.3 55.2626 377.3 53.2493C377.3 51.236 377.3 49.2193 377.3 47.1993C377.3 45.186 377.3 43.1726 377.3 41.1593C379.46 41.2593 381.617 41.356 383.77 41.4493C385.93 41.5426 388.087 41.636 390.24 41.7293C390.24 43.7426 390.24 45.7526 390.24 47.7593C390.24 49.766 390.24 51.7726 390.24 53.7793C390.24 55.786 390.24 57.7926 390.24 59.7993C390.24 61.806 390.24 63.8126 390.24 65.8193C390.24 67.826 390.24 69.8326 390.24 71.8393C390.24 73.846 390.24 75.8526 390.24 77.8593C390.24 79.8593 390.24 81.8626 390.24 83.8693C390.24 85.876 390.24 87.8793 390.24 89.8793C388.087 89.806 385.93 89.7293 383.77 89.6493C381.617 89.5626 379.46 89.4793 377.3 89.3993Z" fill="url(#paint21_linear_427_2536)"/>
<path d="M377.3 89.3993C377.3 87.3926 377.3 85.3893 377.3 83.3893C377.3 81.3826 377.3 79.376 377.3 77.3693C377.3 75.356 377.3 73.346 377.3 71.3393C377.3 69.3326 377.3 67.326 377.3 65.3193C377.3 63.306 377.3 61.2926 377.3 59.2793C377.3 57.2726 377.3 55.2626 377.3 53.2493C377.3 51.236 377.3 49.2193 377.3 47.1993C377.3 45.186 377.3 43.1726 377.3 41.1593C379.46 41.2593 381.617 41.356 383.77 41.4493C385.93 41.5426 388.087 41.636 390.24 41.7293C390.24 43.7426 390.24 45.7526 390.24 47.7593C390.24 49.766 390.24 51.7726 390.24 53.7793C390.24 55.786 390.24 57.7926 390.24 59.7993C390.24 61.806 390.24 63.8126 390.24 65.8193C390.24 67.826 390.24 69.8326 390.24 71.8393C390.24 73.846 390.24 75.8526 390.24 77.8593C390.24 79.8593 390.24 81.8626 390.24 83.8693C390.24 85.876 390.24 87.8793 390.24 89.8793C388.087 89.806 385.93 89.7293 383.77 89.6493C381.617 89.5626 379.46 89.4793 377.3 89.3993Z" fill="url(#paint22_linear_427_2536)"/>
<path d="M377.2 110.679C377.2 108.513 377.2 106.349 377.2 104.189C377.2 102.023 377.2 99.856 377.2 97.6893C379.367 97.7693 381.533 97.8493 383.7 97.9293C385.867 98.0093 388.033 98.0893 390.2 98.1693C390.2 100.336 390.2 102.503 390.2 104.669C390.2 106.836 390.2 109.003 390.2 111.169C388.033 111.089 385.867 111.006 383.7 110.919C381.533 110.839 379.367 110.759 377.2 110.679Z" fill="url(#paint23_linear_427_2536)"/>
<path d="M377.2 110.679C377.2 108.513 377.2 106.349 377.2 104.189C377.2 102.023 377.2 99.856 377.2 97.6893C379.367 97.7693 381.533 97.8493 383.7 97.9293C385.867 98.0093 388.033 98.0893 390.2 98.1693C390.2 100.336 390.2 102.503 390.2 104.669C390.2 106.836 390.2 109.003 390.2 111.169C388.033 111.089 385.867 111.006 383.7 110.919C381.533 110.839 379.367 110.759 377.2 110.679Z" fill="url(#paint24_linear_427_2536)"/>
<path d="M280.375 0L284.003 12.5647L297.073 12.9976L286.244 20.3301L289.872 32.8947L279.552 24.8618L268.723 32.1942L273.174 19.8971L262.854 11.8641L275.925 12.2971L280.375 0Z" fill="url(#paint25_linear_427_2536)"/>
<defs>
<linearGradient id="paint0_linear_427_2536" x1="-11.8066" y1="128.904" x2="401.193" y2="25.4041" gradientUnits="userSpaceOnUse">
<stop stop-color="#60502B"/>
<stop offset="1" stop-color="#6D6A2D"/>
</linearGradient>
<linearGradient id="paint1_linear_427_2536" x1="-11.8066" y1="128.904" x2="401.193" y2="25.4041" gradientUnits="userSpaceOnUse">
<stop stop-color="#60502B"/>
<stop offset="1" stop-color="#6D6A2D"/>
</linearGradient>
<linearGradient id="paint2_linear_427_2536" x1="-11.8066" y1="128.904" x2="401.193" y2="25.4041" gradientUnits="userSpaceOnUse">
<stop stop-color="#60502B"/>
<stop offset="1" stop-color="#6D6A2D"/>
</linearGradient>
<linearGradient id="paint3_linear_427_2536" x1="-11.8066" y1="128.904" x2="401.193" y2="25.4041" gradientUnits="userSpaceOnUse">
<stop stop-color="#60502B"/>
<stop offset="1" stop-color="#6D6A2D"/>
</linearGradient>
<linearGradient id="paint4_linear_427_2536" x1="-11.8066" y1="128.904" x2="401.193" y2="25.4041" gradientUnits="userSpaceOnUse">
<stop stop-color="#60502B"/>
<stop offset="1" stop-color="#6D6A2D"/>
</linearGradient>
<linearGradient id="paint5_linear_427_2536" x1="-11.8066" y1="128.904" x2="401.193" y2="25.4041" gradientUnits="userSpaceOnUse">
<stop stop-color="#60502B"/>
<stop offset="1" stop-color="#6D6A2D"/>
</linearGradient>
<linearGradient id="paint6_linear_427_2536" x1="-11.8066" y1="128.904" x2="401.193" y2="25.4041" gradientUnits="userSpaceOnUse">
<stop stop-color="#60502B"/>
<stop offset="1" stop-color="#6D6A2D"/>
</linearGradient>
<linearGradient id="paint7_linear_427_2536" x1="-11.8066" y1="128.904" x2="401.193" y2="25.4041" gradientUnits="userSpaceOnUse">
<stop stop-color="#60502B"/>
<stop offset="1" stop-color="#6D6A2D"/>
</linearGradient>
<linearGradient id="paint8_linear_427_2536" x1="-11.8066" y1="128.904" x2="401.193" y2="25.4041" gradientUnits="userSpaceOnUse">
<stop stop-color="#60502B"/>
<stop offset="1" stop-color="#6D6A2D"/>
</linearGradient>
<linearGradient id="paint9_linear_427_2536" x1="-11.8066" y1="128.904" x2="401.193" y2="25.4041" gradientUnits="userSpaceOnUse">
<stop stop-color="#60502B"/>
<stop offset="1" stop-color="#6D6A2D"/>
</linearGradient>
<linearGradient id="paint10_linear_427_2536" x1="-11.8066" y1="128.904" x2="401.193" y2="25.4041" gradientUnits="userSpaceOnUse">
<stop stop-color="#60502B"/>
<stop offset="1" stop-color="#6D6A2D"/>
</linearGradient>
<linearGradient id="paint11_linear_427_2536" x1="-11.8066" y1="128.904" x2="401.193" y2="25.4041" gradientUnits="userSpaceOnUse">
<stop stop-color="#60502B"/>
<stop offset="1" stop-color="#6D6A2D"/>
</linearGradient>
<linearGradient id="paint12_linear_427_2536" x1="-11.8066" y1="128.904" x2="401.193" y2="25.4041" gradientUnits="userSpaceOnUse">
<stop stop-color="#60502B"/>
<stop offset="1" stop-color="#6D6A2D"/>
</linearGradient>
<linearGradient id="paint13_linear_427_2536" x1="-11.8066" y1="126.904" x2="401.193" y2="23.4041" gradientUnits="userSpaceOnUse">
<stop stop-color="#F6C858"/>
<stop offset="1" stop-color="#FEF77A"/>
</linearGradient>
<linearGradient id="paint14_linear_427_2536" x1="-11.8066" y1="126.904" x2="401.193" y2="23.4041" gradientUnits="userSpaceOnUse">
<stop stop-color="#F6C858"/>
<stop offset="1" stop-color="#FEF77A"/>
</linearGradient>
<linearGradient id="paint15_linear_427_2536" x1="-11.8066" y1="126.904" x2="401.193" y2="23.4041" gradientUnits="userSpaceOnUse">
<stop stop-color="#F6C858"/>
<stop offset="1" stop-color="#FEF77A"/>
</linearGradient>
<linearGradient id="paint16_linear_427_2536" x1="-11.8066" y1="126.904" x2="401.193" y2="23.4041" gradientUnits="userSpaceOnUse">
<stop stop-color="#F6C858"/>
<stop offset="1" stop-color="#FEF77A"/>
</linearGradient>
<linearGradient id="paint17_linear_427_2536" x1="-11.8066" y1="126.904" x2="401.193" y2="23.4041" gradientUnits="userSpaceOnUse">
<stop stop-color="#F6C858"/>
<stop offset="1" stop-color="#FEF77A"/>
</linearGradient>
<linearGradient id="paint18_linear_427_2536" x1="-11.8066" y1="126.904" x2="401.193" y2="23.4041" gradientUnits="userSpaceOnUse">
<stop stop-color="#F6C858"/>
<stop offset="1" stop-color="#FEF77A"/>
</linearGradient>
<linearGradient id="paint19_linear_427_2536" x1="-11.8066" y1="126.904" x2="401.193" y2="23.4041" gradientUnits="userSpaceOnUse">
<stop stop-color="#F6C858"/>
<stop offset="1" stop-color="#FEF77A"/>
</linearGradient>
<linearGradient id="paint20_linear_427_2536" x1="-11.8066" y1="126.904" x2="401.193" y2="23.4041" gradientUnits="userSpaceOnUse">
<stop stop-color="#F6C858"/>
<stop offset="1" stop-color="#FEF77A"/>
</linearGradient>
<linearGradient id="paint21_linear_427_2536" x1="-11.8066" y1="126.904" x2="401.193" y2="23.4041" gradientUnits="userSpaceOnUse">
<stop stop-color="#F6C858"/>
<stop offset="1" stop-color="#FEF77A"/>
</linearGradient>
<linearGradient id="paint22_linear_427_2536" x1="-11.8066" y1="126.904" x2="401.193" y2="23.4041" gradientUnits="userSpaceOnUse">
<stop stop-color="#F6C858"/>
<stop offset="1" stop-color="#FEF77A"/>
</linearGradient>
<linearGradient id="paint23_linear_427_2536" x1="-11.8066" y1="126.904" x2="401.193" y2="23.4041" gradientUnits="userSpaceOnUse">
<stop stop-color="#F6C858"/>
<stop offset="1" stop-color="#FEF77A"/>
</linearGradient>
<linearGradient id="paint24_linear_427_2536" x1="-11.8066" y1="126.904" x2="401.193" y2="23.4041" gradientUnits="userSpaceOnUse">
<stop stop-color="#F6C858"/>
<stop offset="1" stop-color="#FEF77A"/>
</linearGradient>
<linearGradient id="paint25_linear_427_2536" x1="-11.8066" y1="126.904" x2="401.193" y2="23.4041" gradientUnits="userSpaceOnUse">
<stop stop-color="#F6C858"/>
<stop offset="1" stop-color="#FEF77A"/>
</linearGradient>
</defs>
</svg>
