<svg width="51" height="51" viewBox="0 0 51 51" fill="none" xmlns="http://www.w3.org/2000/svg">
<path opacity="0.3" fill-rule="evenodd" clip-rule="evenodd" d="M46.4212 3H4.58018C2.15018 3 1.10031 4.27794 1.63731 6.53394C5.39931 22.3409 7.93724 25.9409 14.4997 26.7599C15.9335 30.2948 18.1561 33.4553 20.9978 36H20.9842C22.4977 39.375 19.4844 43.2 17.9754 45H17.9978C17.2021 45 16.4389 45.3161 15.8763 45.8787C15.3137 46.4413 14.9978 47.2043 14.9978 48V51H35.9978V48C35.9978 47.2043 35.6819 46.4413 35.1192 45.8787C34.5566 45.3161 33.7934 45 32.9978 45C31.5158 43.2 28.4978 39.375 30.0113 36H29.9978C32.9086 33.4344 35.2291 30.2688 36.8001 26.7209C43.1361 25.8284 45.6502 22.0964 49.3597 6.53394C49.8997 4.27794 48.8497 3 46.4212 3ZM7.49778 16.0785C6.23328 12.963 4.49778 6 4.49778 6H10.5278C10.6059 11.7997 11.4856 17.5608 13.1422 23.1194C10.6927 22.2269 9.20778 20.286 7.49778 16.0785ZM43.4978 16.5465C41.8478 20.6235 40.3986 22.4745 38.0826 23.2965C39.6746 17.6689 40.4747 11.8469 40.459 5.99854H46.4978C45.6826 9.5645 44.6813 13.0853 43.4978 16.5465Z" fill="black"/>
<path fill-rule="evenodd" clip-rule="evenodd" d="M46.4212 0H4.58018C2.15018 0 1.10031 1.27794 1.63731 3.53394C5.39931 19.3409 7.93724 22.9409 14.4997 23.7599C15.9335 27.2948 18.1561 30.4553 20.9978 33H20.9842C22.4977 36.375 19.4844 40.2 17.9754 42H17.9978C17.2021 42 16.4389 42.3161 15.8763 42.8787C15.3137 43.4413 14.9978 44.2044 14.9978 45V48H35.9978V45C35.9978 44.2044 35.6818 43.4413 35.1192 42.8787C34.5566 42.3161 33.7934 42 32.9978 42C31.5158 40.2 28.4978 36.375 30.0113 33H29.9978C32.9086 30.4344 35.2291 27.2688 36.8001 23.7209C43.1361 22.8284 45.6502 19.0964 49.3597 3.53394C49.8997 1.27794 48.8497 0 46.4212 0ZM7.49778 13.0785C6.23328 9.96299 4.49778 3 4.49778 3H10.5278C10.6059 8.79975 11.4856 14.5608 13.1422 20.1194C10.6927 19.2269 9.20778 17.286 7.49778 13.0785ZM43.4978 13.5465C41.8478 17.6235 40.3986 19.4745 38.0826 20.2965C39.6746 14.6689 40.4747 8.84693 40.459 2.99854H46.4978C45.6826 6.5645 44.6813 10.0853 43.4978 13.5465V13.5465Z" fill="#EABF73"/>
<path opacity="0.2" fill-rule="evenodd" clip-rule="evenodd" d="M29.9978 33H29.9407C28.6639 33.973 27.1031 34.4998 25.4978 34.4998C23.8925 34.4998 22.3318 33.973 21.0549 33H20.9843C21.4117 33.9929 21.5127 35.096 21.2725 36.15C22.5061 37.0291 23.983 37.5016 25.4978 37.5016C27.0126 37.5016 28.4895 37.0291 29.7231 36.15C29.4809 35.0961 29.582 33.9924 30.0114 33H29.9978Z" fill="#1F1E2D"/>
<path opacity="0.2" fill-rule="evenodd" clip-rule="evenodd" d="M25.4978 3H40.4648C40.4903 2.028 40.5084 1.038 40.5084 0H10.4857C10.4857 1.032 10.5099 2.0235 10.5414 3H25.4978Z" fill="white"/>
<path opacity="0.2" d="M18.0007 42H33.0007C33.7964 42 34.5594 42.3161 35.1221 42.8787C35.6847 43.4413 36.0007 44.2044 36.0007 45H15.0007C15.0007 44.2044 15.3168 43.4413 15.8794 42.8787C16.442 42.3161 17.2051 42 18.0007 42V42Z" fill="white"/>
<path opacity="0.2" d="M40.5007 3H10.5007V6H40.5007V3Z" fill="#1F1E2D"/>
<path opacity="0.3" d="M36.0007 45H15.0007V48H36.0007V45Z" fill="#1F1E2D"/>
<path opacity="0.2" d="M25.5007 25.5C30.4713 25.5 34.5007 21.4706 34.5007 16.5C34.5007 11.5294 30.4713 7.5 25.5007 7.5C20.5302 7.5 16.5007 11.5294 16.5007 16.5C16.5007 21.4706 20.5302 25.5 25.5007 25.5Z" fill="#1F1E2D"/>
<path d="M25.5007 27C30.4713 27 34.5007 22.9706 34.5007 18C34.5007 13.0294 30.4713 9 25.5007 9C20.5302 9 16.5007 13.0294 16.5007 18C16.5007 22.9706 20.5302 27 25.5007 27Z" fill="#F7DB9C"/>
<path opacity="0.2" fill-rule="evenodd" clip-rule="evenodd" d="M25.4978 25.5C23.2418 25.4984 21.0687 24.6496 19.4088 23.1216C17.7489 21.5937 16.7232 19.4982 16.5352 17.25C16.5142 17.4975 16.4978 17.7465 16.4978 18C16.4978 20.3869 17.446 22.6762 19.1338 24.364C20.8216 26.0518 23.1109 27 25.4978 27C27.8848 27 30.174 26.0518 31.8618 24.364C33.5496 22.6762 34.4978 20.3869 34.4978 18C34.4978 17.7465 34.4799 17.4975 34.4604 17.25C34.2724 19.4982 33.2467 21.5937 31.5868 23.1216C29.9269 24.6496 27.7538 25.4984 25.4978 25.5Z" fill="white"/>
<path d="M20.9978 24L23.6558 22.6291V13.3709L20.9978 12H29.9978L27.3384 13.3709V22.6291L29.9978 24H20.9978Z" fill="#935C2E"/>
</svg>
