<svg width="40" height="40" viewBox="0 0 40 40" fill="none" xmlns="http://www.w3.org/2000/svg">
<path fill-rule="evenodd" clip-rule="evenodd" d="M30.9441 20.962L33 20.955L32.9932 18.955L30.937 18.962C30.8187 17.5898 30.4364 16.2532 29.811 15.026L31.5432 13.941L30.4812 12.241L28.7451 13.329C28.0617 12.4306 27.2437 11.643 26.3201 10.994L27.3411 9.21899L25.6072 8.21899L24.5862 10C23.4415 9.4766 22.2153 9.15422 20.9612 9.047L20.9551 6.99097L18.9551 6.99695L18.9612 9.05298C17.5891 9.1714 16.2529 9.55417 15.0261 10.1801L13.9402 8.44702L12.2461 9.50903L13.334 11.245C12.4356 11.9285 11.6481 12.7465 10.999 13.67L9.22314 12.65L8.22314 14.384L9.99805 15.4041C9.47513 16.5489 9.1529 17.7751 9.04517 19.0291L6.98901 19.036L6.99609 21.036L9.052 21.0291C9.17081 22.4009 9.5531 23.7369 10.178 24.964L8.44604 26.05L9.50806 27.75L11.2441 26.662C11.9279 27.5601 12.7458 28.3476 13.6692 28.9969L12.6482 30.772L14.3821 31.772L15.4031 29.996C16.5479 30.5189 17.7741 30.8413 19.0281 30.949L19.0342 33.005L21.0342 32.999L21.0281 30.942C22.3999 30.8232 23.7361 30.4409 24.9631 29.816L26.0491 31.548L27.7432 30.486L26.655 28.75C27.5536 28.0671 28.3412 27.2495 28.99 26.326L30.7661 27.3459L31.7661 25.6121L29.9912 24.592C30.5147 23.4456 30.8369 22.2177 30.9441 20.962V20.962ZM22.4961 20C22.4961 20.4945 22.3494 20.9778 22.0747 21.3889C21.8 21.8 21.4097 22.1205 20.9529 22.3097C20.4961 22.4989 19.9933 22.5484 19.5083 22.4519C19.0233 22.3554 18.5779 22.1175 18.2283 21.7678C17.8786 21.4182 17.6407 20.9726 17.5442 20.4877C17.4477 20.0027 17.4971 19.5002 17.6863 19.0433C17.8755 18.5865 18.1961 18.1961 18.6072 17.9214C19.0183 17.6467 19.5016 17.5 19.9961 17.5C20.6591 17.5 21.2951 17.7633 21.7639 18.2322C22.2328 18.701 22.4961 19.337 22.4961 20ZM17.519 10.829C18.0037 10.7019 18.4976 10.6129 18.9961 10.563V16.141C18.4811 16.2648 17.9965 16.4919 17.5718 16.8083C17.147 17.1248 16.7909 17.5241 16.5249 17.9822C16.2589 18.4402 16.0883 18.9474 16.0239 19.4731C15.9595 19.9989 16.0025 20.5323 16.1501 21.041L11.417 24.0649C10.8156 22.8101 10.4987 21.4381 10.4883 20.0466C10.4779 18.6552 10.7744 17.2785 11.3569 16.0148C11.9395 14.7511 12.7936 13.6314 13.8584 12.7356C14.9232 11.8398 16.1724 11.1898 17.5171 10.832L17.519 10.829ZM22.4741 29.171C20.6551 29.6618 18.7312 29.6005 16.947 28.9951C15.1628 28.3897 13.5989 27.2675 12.4541 25.771L17.1321 22.783C17.4987 23.1623 17.9369 23.4652 18.4214 23.6738C18.9059 23.8825 19.4271 23.9929 19.9546 23.9987C20.4821 24.0044 21.0057 23.9054 21.4946 23.7074C21.9836 23.5094 22.4282 23.2162 22.803 22.845L27.636 25.635C26.3664 27.3647 24.5461 28.6107 22.4741 29.168V29.171ZM28.6531 23.9139L23.8171 21.1219C23.9775 20.6098 24.0311 20.0702 23.9744 19.5365C23.9176 19.0028 23.7518 18.4864 23.4873 18.0194C23.2228 17.5524 22.8653 17.1448 22.4368 16.8217C22.0082 16.4985 21.5178 16.2668 20.9961 16.141V10.5601C22.4908 10.7171 23.9268 11.2267 25.186 12.0471C26.4453 12.8675 27.4917 13.9753 28.2393 15.2791C28.9868 16.5828 29.4142 18.0454 29.4861 19.5466C29.558 21.0478 29.2726 22.5446 28.6531 23.9139V23.9139Z" fill="white"/>
</svg>
