<svg width="24" height="25" viewBox="0 0 24 25" fill="none" xmlns="http://www.w3.org/2000/svg">
<path d="M12.2765 22.5928L13.2046 21.6647C13.4243 21.445 13.4243 21.0889 13.2046 20.8692L5.9329 13.5975H21.9375C22.2481 13.5975 22.5 13.3456 22.5 13.035V11.7225C22.5 11.4119 22.2481 11.16 21.9375 11.16H5.9329L13.2046 3.88829C13.4243 3.66863 13.4243 3.31248 13.2046 3.09277L12.2765 2.16474C12.0569 1.94509 11.7007 1.94509 11.481 2.16474L1.66474 11.981C1.44509 12.2007 1.44509 12.5568 1.66474 12.7765L11.481 22.5928C11.7007 22.8125 12.0568 22.8125 12.2765 22.5928Z" fill="white"/>
</svg>
