<svg width="27" height="27" viewBox="0 0 27 27" fill="none" xmlns="http://www.w3.org/2000/svg">
<path d="M26.913 11.945C26.8557 11.8077 26.7735 11.6828 26.6689 11.5782L23.295 8.20431C22.8552 7.76556 22.1442 7.76556 21.7043 8.20431C21.2644 8.64416 21.2644 9.35629 21.7043 9.79504L23.1589 11.2497H16.8746C16.2525 11.2497 15.7496 11.7536 15.7496 12.3746C15.7496 12.9956 16.2525 13.4996 16.8746 13.4996H23.1589L21.7042 14.9543C21.2644 15.3941 21.2644 16.1062 21.7042 16.545C21.9236 16.7655 22.2116 16.8746 22.4996 16.8746C22.7877 16.8746 23.0757 16.7655 23.295 16.545L26.6689 13.1711C26.7735 13.0676 26.8557 12.9427 26.913 12.8043C27.0266 12.5299 27.0266 12.2194 26.913 11.945Z" fill="white"/>
<path d="M19.125 15.75C18.5029 15.75 18 16.254 18 16.875V22.5H13.5V4.49998C13.5 4.00386 13.1737 3.56511 12.6979 3.42225L8.79071 2.25002H18V7.87504C18 8.49604 18.5029 9.00002 19.125 9.00002C19.7471 9.00002 20.2499 8.49604 20.2499 7.87504V1.12504C20.2499 0.503982 19.7471 0 19.125 0H1.12498C1.08448 0 1.04846 0.016875 1.00912 0.0213574C0.956232 0.027 0.907875 0.0359648 0.85725 0.0483574C0.739125 0.0787324 0.632232 0.124875 0.532143 0.18784C0.50741 0.203607 0.477035 0.204715 0.45341 0.222697C0.44434 0.2295 0.440965 0.241893 0.431947 0.248643C0.30934 0.345357 0.206982 0.463482 0.132732 0.604125C0.116965 0.6345 0.11359 0.667143 0.10125 0.698625C0.0652324 0.784107 0.0258926 0.867375 0.0123926 0.961875C0.00675 0.995625 0.016875 1.02711 0.0157676 1.05975C0.0146602 1.08227 0 1.10252 0 1.12498V23.625C0 24.1616 0.379107 24.6229 0.9045 24.7275L12.1545 26.9775C12.2276 26.9933 12.3019 27.0001 12.375 27.0001C12.6326 27.0001 12.8857 26.9112 13.0882 26.7447C13.3481 26.5309 13.4999 26.2125 13.4999 25.875V24.75H19.125C19.7471 24.75 20.2499 24.2461 20.2499 23.6251V16.875C20.2499 16.254 19.7471 15.75 19.125 15.75Z" fill="white"/>
</svg>
