<svg width="40" height="40" viewBox="0 0 40 40" fill="none" xmlns="http://www.w3.org/2000/svg">
<path d="M34.2596 13.8774H31.9952V21.881C31.9952 24.4038 29.8396 26.4574 27.191 26.4574H17.144L15.2264 28.3716C15.5902 28.902 16.2328 29.259 16.9706 29.259H25.746L31.118 34.6208V29.259H34.2596C35.3986 29.259 36.32 28.4192 36.32 27.3822V15.7542C36.32 14.7172 35.3986 13.8774 34.2596 13.8774Z" fill="white"/>
<path d="M16.2226 24.227H27.191C28.6122 24.227 29.7648 23.1764 29.7648 21.881V7.346C29.7648 6.0506 28.6122 5 27.191 5H5.5738C4.1526 5 3 6.0506 3 7.346V21.881C3 23.1764 4.1526 24.227 5.5738 24.227H9.5008V30.9284L16.2226 24.227ZM23.5394 12.6466C24.6308 12.6466 25.5148 13.5306 25.5148 14.622C25.5148 15.7134 24.6308 16.5974 23.5394 16.5974C22.448 16.5974 21.564 15.7134 21.564 14.622C21.564 13.5306 22.448 12.6466 23.5394 12.6466ZM16.3824 12.6466C17.4738 12.6466 18.3578 13.5306 18.3578 14.622C18.3578 15.7134 17.4738 16.5974 16.3824 16.5974C15.291 16.5974 14.407 15.7134 14.407 14.622C14.407 13.5306 15.291 12.6466 16.3824 12.6466ZM9.2254 16.594C8.134 16.594 7.25 15.71 7.25 14.6186C7.25 13.5272 8.134 12.6432 9.2254 12.6432C10.3168 12.6432 11.2008 13.5272 11.2008 14.6186C11.2008 15.71 10.3134 16.594 9.2254 16.594Z" fill="white"/>
</svg>
